<svg id="Слой_1" data-name="Слой 1" xmlns="http://www.w3.org/2000/svg" xmlns:xlink="http://www.w3.org/1999/xlink" viewBox="0 0 453.25 381.75"><defs><style>.cls-1{fill:url(#Безымянный_градиент_394);}.cls-2{fill:url(#Безымянный_градиент_437);}.cls-3{fill:url(#Безымянный_градиент_470);}.cls-4{stroke:#000;stroke-width:0.88px;fill:url(#Безымянный_градиент_262);}.cls-4,.cls-68,.cls-69{stroke-miterlimit:10;}.cls-5{fill:url(#Безымянный_градиент_164);}.cls-6{fill:url(#Безымянный_градиент_198);}.cls-7{fill:url(#Безымянный_градиент_164-2);}.cls-8{fill:url(#Безымянный_градиент_198-2);}.cls-9{fill:#05b2e8;}.cls-10{fill:#ffc200;}.cls-11{fill:url(#Безымянный_градиент_126);}.cls-12{fill:#e5ab07;}.cls-13{fill:url(#Безымянный_градиент_166);}.cls-14{fill:url(#Безымянный_градиент_38);}.cls-15{fill:#666;}.cls-16{fill:#333;}.cls-17{fill:#141414;}.cls-18{fill:url(#Безымянный_градиент_327);}.cls-19{fill:url(#linear-gradient);}.cls-20{fill:url(#Безымянный_градиент_367);}.cls-21{fill:url(#linear-gradient-2);}.cls-22{fill:url(#Безымянный_градиент_301);}.cls-23{fill:url(#linear-gradient-3);}.cls-24{fill:url(#Безымянный_градиент_349);}.cls-25{fill:url(#linear-gradient-4);}.cls-26{fill:url(#Безымянный_градиент_349-2);}.cls-27{fill:url(#linear-gradient-5);}.cls-28{fill:url(#Безымянный_градиент_349-3);}.cls-29{fill:url(#linear-gradient-6);}.cls-30{fill:url(#Безымянный_градиент_349-4);}.cls-31{fill:url(#linear-gradient-7);}.cls-32{fill:#4d4d4d;}.cls-33{fill:url(#Безымянный_градиент_290);}.cls-34{fill:url(#Безымянный_градиент_290-2);}.cls-35{fill:url(#Безымянный_градиент_349-5);}.cls-36{fill:url(#linear-gradient-8);}.cls-37{fill:url(#Безымянный_градиент_349-6);}.cls-38{fill:url(#linear-gradient-9);}.cls-39{fill:url(#Безымянный_градиент_349-7);}.cls-40{fill:url(#linear-gradient-10);}.cls-41{fill:url(#Безымянный_градиент_349-8);}.cls-42{fill:url(#linear-gradient-11);}.cls-43{fill:url(#Безымянный_градиент_327-2);}.cls-44{fill:url(#linear-gradient-12);}.cls-45{fill:url(#Безымянный_градиент_367-2);}.cls-46{fill:url(#linear-gradient-13);}.cls-47{fill:url(#Безымянный_градиент_301-2);}.cls-48{fill:url(#linear-gradient-14);}.cls-49{fill:url(#Безымянный_градиент_349-9);}.cls-50{fill:url(#linear-gradient-15);}.cls-51{fill:url(#Безымянный_градиент_349-10);}.cls-52{fill:url(#linear-gradient-16);}.cls-53{fill:url(#Безымянный_градиент_349-11);}.cls-54{fill:url(#linear-gradient-17);}.cls-55{fill:url(#Безымянный_градиент_349-12);}.cls-56{fill:url(#linear-gradient-18);}.cls-57{fill:url(#Безымянный_градиент_290-3);}.cls-58{fill:url(#Безымянный_градиент_290-4);}.cls-59{fill:url(#Безымянный_градиент_349-13);}.cls-60{fill:url(#linear-gradient-19);}.cls-61{fill:url(#Безымянный_градиент_349-14);}.cls-62{fill:url(#linear-gradient-20);}.cls-63{fill:url(#Безымянный_градиент_349-15);}.cls-64{fill:url(#linear-gradient-21);}.cls-65{fill:url(#Безымянный_градиент_349-16);}.cls-66{fill:url(#linear-gradient-22);}.cls-67{fill:url(#Безымянный_градиент_471);}.cls-68,.cls-69{fill:#f9dfa5;stroke:#42210b;}.cls-68{stroke-width:0.94px;}.cls-69{stroke-width:1px;}</style><linearGradient id="Безымянный_градиент_394" x1="225.76" y1="354.69" x2="225.76" y2="60.05" gradientUnits="userSpaceOnUse"><stop offset="0" stop-color="#ec4c56"/><stop offset="0.45" stop-color="#ec4c56"/><stop offset="0.6" stop-color="#e94a54"/><stop offset="0.69" stop-color="#e1454e"/><stop offset="0.77" stop-color="#d23d45"/><stop offset="0.84" stop-color="#bd3037"/><stop offset="0.9" stop-color="#a12025"/><stop offset="0.97" stop-color="#800d0f"/><stop offset="1" stop-color="#6a0000"/></linearGradient><linearGradient id="Безымянный_градиент_437" x1="266.98" y1="159.3" x2="249.31" y2="159.3" gradientUnits="userSpaceOnUse"><stop offset="0" stop-color="#929497"/><stop offset="0.43" stop-color="#5e5e5e"/><stop offset="0.49" stop-color="#5e5e5e"/><stop offset="0.5" stop-color="#777"/><stop offset="0.51" stop-color="#979898"/><stop offset="0.52" stop-color="#b0b1b2"/><stop offset="0.53" stop-color="#c2c4c4"/><stop offset="0.54" stop-color="#cdcecf"/><stop offset="0.55" stop-color="#d0d2d3"/><stop offset="0.65" stop-color="#929497"/><stop offset="0.79" stop-color="#c1c2c4"/><stop offset="0.92" stop-color="#929497"/><stop offset="1" stop-color="#929497"/></linearGradient><linearGradient id="Безымянный_градиент_470" x1="222.67" y1="277.73" x2="231.46" y2="277.73" gradientUnits="userSpaceOnUse"><stop offset="0" stop-color="#42210b"/><stop offset="0.01" stop-color="#49210e"/><stop offset="0.07" stop-color="#622317"/><stop offset="0.11" stop-color="#6b231b"/><stop offset="0.49" stop-color="#b47d4f"/><stop offset="0.61" stop-color="#97593a"/><stop offset="0.76" stop-color="#773224"/><stop offset="0.84" stop-color="#6b231b"/><stop offset="1" stop-color="#42210b"/></linearGradient><linearGradient id="Безымянный_градиент_262" x1="257.75" y1="428.8" x2="257.75" y2="89.57" gradientTransform="translate(-31.12 14.41) scale(1 0.85)" gradientUnits="userSpaceOnUse"><stop offset="0"/><stop offset="0.04" stop-color="#030303"/><stop offset="0.08" stop-color="#0e0e0e"/><stop offset="0.11" stop-color="#1f1f1f"/><stop offset="0.14" stop-color="#373737"/><stop offset="0.17" stop-color="#575757"/><stop offset="0.2" stop-color="#7d7d7d"/><stop offset="0.2" stop-color="gray"/><stop offset="0.21" stop-color="#717171"/><stop offset="0.24" stop-color="#525252"/><stop offset="0.27" stop-color="#393939"/><stop offset="0.3" stop-color="#282828"/><stop offset="0.33" stop-color="#1d1d1d"/><stop offset="0.37" stop-color="#1a1a1a"/><stop offset="0.41" stop-color="#1d1d1d"/><stop offset="0.44" stop-color="#272727"/><stop offset="0.47" stop-color="#383838"/><stop offset="0.49" stop-color="#505050"/><stop offset="0.52" stop-color="#6f6f6f"/><stop offset="0.53" stop-color="gray"/><stop offset="0.56" stop-color="#636363"/><stop offset="0.61" stop-color="#3b3b3b"/><stop offset="0.65" stop-color="#232323"/><stop offset="0.67" stop-color="#1a1a1a"/><stop offset="0.74" stop-color="#1c1c1c"/><stop offset="0.77" stop-color="#232323"/><stop offset="0.79" stop-color="#303030"/><stop offset="0.81" stop-color="#414141"/><stop offset="0.83" stop-color="#585858"/><stop offset="0.84" stop-color="#747474"/><stop offset="0.85" stop-color="gray"/><stop offset="0.85" stop-color="#7e7e7e"/><stop offset="0.87" stop-color="#585858"/><stop offset="0.89" stop-color="#383838"/><stop offset="0.92" stop-color="#1f1f1f"/><stop offset="0.94" stop-color="#0e0e0e"/><stop offset="0.97" stop-color="#030303"/><stop offset="1"/></linearGradient><linearGradient id="Безымянный_градиент_164" x1="31.12" y1="86.58" x2="108.31" y2="86.58" gradientUnits="userSpaceOnUse"><stop offset="0" stop-color="#08b1f4"/><stop offset="0.19" stop-color="#08a8f4"/><stop offset="0.49" stop-color="#088ef4"/><stop offset="0.65" stop-color="#087ff4"/><stop offset="0.79" stop-color="#084ff4"/><stop offset="0.99" stop-color="#087ff4"/></linearGradient><linearGradient id="Безымянный_градиент_198" x1="122.9" y1="51.67" x2="25.07" y2="169.93" gradientUnits="userSpaceOnUse"><stop offset="0" stop-color="#ff9200"/><stop offset="0.05" stop-color="#ff9303"/><stop offset="0.08" stop-color="#ff950c"/><stop offset="0.11" stop-color="#ff981c"/><stop offset="0.13" stop-color="#ff9b2a"/><stop offset="0.23" stop-color="#feac28"/><stop offset="0.43" stop-color="#fdcc24"/><stop offset="0.61" stop-color="#fce022"/><stop offset="0.73" stop-color="#fce721"/><stop offset="1" stop-color="#fcff21"/></linearGradient><linearGradient id="Безымянный_градиент_164-2" x1="1060.87" y1="86.58" x2="1138.05" y2="86.58" gradientTransform="matrix(-1, 0, 0, 1, 1545.25, 0)" xlink:href="#Безымянный_градиент_164"/><linearGradient id="Безымянный_градиент_198-2" x1="1152.65" y1="51.67" x2="1054.82" y2="169.93" gradientTransform="matrix(-1, 0, 0, 1, 1545.25, 0)" xlink:href="#Безымянный_градиент_198"/><linearGradient id="Безымянный_градиент_126" x1="87.66" y1="65.33" x2="426.96" y2="65.33" gradientUnits="userSpaceOnUse"><stop offset="0" stop-color="#ffbc19" stop-opacity="0"/><stop offset="0.07" stop-color="#ffe6ab" stop-opacity="0.25"/><stop offset="0.11" stop-color="#fff" stop-opacity="0.4"/><stop offset="0.15" stop-color="#edfffa" stop-opacity="0.23"/><stop offset="0.19" stop-color="#dffff5" stop-opacity="0.11"/><stop offset="0.22" stop-color="#d7fff3" stop-opacity="0.03"/><stop offset="0.25" stop-color="#d4fff2" stop-opacity="0"/><stop offset="0.52" stop-color="#d4fff2" stop-opacity="0"/><stop offset="0.57" stop-color="#d4fff2" stop-opacity="0"/><stop offset="0.74" stop-color="#d4fff2" stop-opacity="0"/><stop offset="0.77" stop-color="#d4fff2" stop-opacity="0"/><stop offset="0.79" stop-color="#d6fff3" stop-opacity="0.02"/><stop offset="0.82" stop-color="#defff5" stop-opacity="0.09"/><stop offset="0.85" stop-color="#e9fff8" stop-opacity="0.2"/><stop offset="0.88" stop-color="#f9fffd" stop-opacity="0.35"/><stop offset="0.89" stop-color="#fff" stop-opacity="0.4"/><stop offset="0.92" stop-color="#f9e7c4" stop-opacity="0.3"/><stop offset="0.99" stop-color="#e9a92d" stop-opacity="0.06"/><stop offset="1" stop-color="#e59a07" stop-opacity="0"/></linearGradient><linearGradient id="Безымянный_градиент_166" x1="113.7" y1="95.17" x2="93" y2="120.2" gradientUnits="userSpaceOnUse"><stop offset="0" stop-color="#ffbc19"/><stop offset="0.21" stop-color="#f8ac14"/><stop offset="0.72" stop-color="#ea8b0b"/><stop offset="1" stop-color="#e57f07"/></linearGradient><linearGradient id="Безымянный_градиент_38" x1="1197.38" y1="95.17" x2="1176.68" y2="120.2" gradientTransform="matrix(-1, 0, 0, 1, 1599.18, 0)" gradientUnits="userSpaceOnUse"><stop offset="0" stop-color="#ffbc19"/><stop offset="0.55" stop-color="#efa60e"/><stop offset="1" stop-color="#e59a07"/></linearGradient><linearGradient id="Безымянный_градиент_327" x1="1886.85" y1="-117.33" x2="1952.94" y2="-211.71" gradientTransform="translate(-189.24 2058.5) rotate(-69.57)" gradientUnits="userSpaceOnUse"><stop offset="0" stop-color="#b3b3b3"/><stop offset="0.07" stop-color="gray"/><stop offset="0.17" stop-color="#fff"/><stop offset="0.19" stop-color="#f7f7f7"/><stop offset="0.23" stop-color="#e1e1e2"/><stop offset="0.27" stop-color="#cccccd"/><stop offset="0.34" stop-color="#fff"/><stop offset="0.4" stop-color="#a3a4a6"/><stop offset="0.43" stop-color="#9c9c9e"/><stop offset="0.47" stop-color="#878888"/><stop offset="0.48" stop-color="gray"/><stop offset="0.57" stop-color="#fff"/><stop offset="0.58" stop-color="#f7f7f7"/><stop offset="0.6" stop-color="#e1e1e1"/><stop offset="0.63" stop-color="#bdbdbd"/><stop offset="0.66" stop-color="#8c8c8c"/><stop offset="0.66" stop-color="gray"/><stop offset="0.72" stop-color="#b0b0b1"/><stop offset="0.75" stop-color="#cccccd"/><stop offset="0.77" stop-color="#c4c4c5"/><stop offset="0.79" stop-color="#aeaeaf"/><stop offset="0.82" stop-color="#8b8b8b"/><stop offset="0.83" stop-color="gray"/><stop offset="0.91" stop-color="#fff"/><stop offset="0.94" stop-color="#e8e8e8"/><stop offset="0.99" stop-color="#cccccd"/></linearGradient><linearGradient id="linear-gradient" x1="1921.6" y1="-143.5" x2="1921.6" y2="-171.88" gradientTransform="translate(-189.24 2058.5) rotate(-69.57)" gradientUnits="userSpaceOnUse"><stop offset="0" stop-color="#edeae7"/><stop offset="0" stop-color="#e6e2df"/><stop offset="0.06" stop-color="#d7d3d2"/><stop offset="0.19" stop-color="#b1acaf"/><stop offset="0.26" stop-color="#979297"/><stop offset="0.52" stop-color="#f6f7f7"/><stop offset="0.59" stop-color="#e8e8e9"/><stop offset="0.71" stop-color="#c3c1c3"/><stop offset="0.88" stop-color="#8b8689"/><stop offset="1" stop-color="#dad9d8"/><stop offset="1" stop-color="#b2b2b2"/></linearGradient><linearGradient id="Безымянный_градиент_367" x1="1877.02" y1="-119.46" x2="1958.82" y2="-201.26" gradientTransform="translate(-189.24 2058.5) rotate(-69.57)" gradientUnits="userSpaceOnUse"><stop offset="0" stop-color="#edeae7"/><stop offset="0" stop-color="#dfeaea"/><stop offset="0.07" stop-color="#d3dbdb"/><stop offset="0.2" stop-color="#b4b4b4"/><stop offset="0.21" stop-color="#b2b2b2"/><stop offset="0.32" stop-color="#f6f7f7"/><stop offset="0.35" stop-color="#e7e8e8"/><stop offset="0.41" stop-color="#c1c1c1"/><stop offset="0.44" stop-color="#b2b2b2"/><stop offset="0.55" stop-color="#f6f7f7"/><stop offset="0.59" stop-color="#e7e8e8"/><stop offset="0.66" stop-color="#c1c1c1"/><stop offset="0.68" stop-color="#b2b2b2"/><stop offset="0.85" stop-color="#f6f7f7"/><stop offset="0.88" stop-color="#e7e9e9"/><stop offset="0.93" stop-color="#c0c4c4"/><stop offset="1" stop-color="#828888"/><stop offset="1" stop-color="#818787"/></linearGradient><linearGradient id="linear-gradient-2" x1="1918.29" y1="-146.47" x2="1918.29" y2="-165.79" xlink:href="#linear-gradient"/><linearGradient id="Безымянный_градиент_301" x1="1820.97" y1="-152.83" x2="1826.53" y2="-181.45" gradientTransform="translate(-189.24 2058.5) rotate(-69.57)" gradientUnits="userSpaceOnUse"><stop offset="0" stop-color="#e6e7e8"/><stop offset="0.05" stop-color="#929497"/><stop offset="0.15" stop-color="#e6e7e8"/><stop offset="0.29" stop-color="#5e5e5e"/><stop offset="0.47" stop-color="#5e5e5e"/><stop offset="0.5" stop-color="#8b8c8c"/><stop offset="0.52" stop-color="#b0b2b3"/><stop offset="0.54" stop-color="#c8c9ca"/><stop offset="0.55" stop-color="#d0d2d3"/><stop offset="0.65" stop-color="#929497"/><stop offset="0.8" stop-color="#e6e7e8"/><stop offset="0.92" stop-color="#929497"/><stop offset="1" stop-color="#e6e7e8"/></linearGradient><linearGradient id="linear-gradient-3" x1="1823.73" y1="-152.25" x2="1823.73" y2="-181.9" xlink:href="#linear-gradient"/><linearGradient id="Безымянный_градиент_349" x1="1824.87" y1="-183.42" x2="1826.56" y2="-185.11" gradientTransform="translate(-220.36 2031.97) rotate(-69.57)" gradientUnits="userSpaceOnUse"><stop offset="0" stop-color="#edeae7"/><stop offset="0" stop-color="#dfeaea"/><stop offset="0.05" stop-color="#d2dbdb"/><stop offset="0.15" stop-color="#afb4b4"/><stop offset="0.26" stop-color="gray"/><stop offset="0.61" stop-color="#ccc"/><stop offset="0.71" stop-color="#bdc1c0"/><stop offset="0.88" stop-color="#98a4a3"/><stop offset="1" stop-color="#dad9d8"/><stop offset="1" stop-color="#b2b2b2"/></linearGradient><linearGradient id="linear-gradient-4" x1="1825.9" y1="-182.8" x2="1825.9" y2="-185.33" xlink:href="#linear-gradient"/><linearGradient id="Безымянный_градиент_349-2" x1="1825.02" y1="-181.99" x2="1826.38" y2="-183.35" gradientTransform="translate(-189.24 2058.5) rotate(-69.57)" xlink:href="#Безымянный_градиент_349"/><linearGradient id="linear-gradient-5" x1="1825.7" y1="-181.68" x2="1825.7" y2="-183.66" xlink:href="#linear-gradient"/><linearGradient id="Безымянный_градиент_349-3" x1="1824.73" y1="-180.82" x2="1826.57" y2="-182.65" gradientTransform="translate(-189.24 2058.5) rotate(-69.57)" xlink:href="#Безымянный_градиент_349"/><linearGradient id="linear-gradient-6" x1="1825.65" y1="-180.57" x2="1825.65" y2="-182.91" xlink:href="#linear-gradient"/><linearGradient id="Безымянный_градиент_349-4" x1="1827.03" y1="-184.39" x2="1824.99" y2="-187.3" gradientTransform="translate(-189.24 2058.5) rotate(-69.57)" xlink:href="#Безымянный_градиент_349"/><linearGradient id="linear-gradient-7" x1="1825.9" y1="-184.35" x2="1825.9" y2="-188.27" xlink:href="#linear-gradient"/><radialGradient id="Безымянный_градиент_290" cx="1817.46" cy="-199.06" r="1.08" gradientTransform="matrix(0.36, -0.78, 0.91, 0.27, -196.9, 1777.73)" gradientUnits="userSpaceOnUse"><stop offset="0" stop-color="#edeae7"/><stop offset="0" stop-color="#e6e2df"/><stop offset="0.16" stop-color="#d7d3d2"/><stop offset="0.45" stop-color="#b1acaf"/><stop offset="0.64" stop-color="#979297"/><stop offset="0.76" stop-color="#8b8689"/><stop offset="1" stop-color="#dad9d8"/><stop offset="1" stop-color="#b2b2b2"/></radialGradient><radialGradient id="Безымянный_градиент_290-2" cx="1826.63" cy="-197.56" r="1.08" xlink:href="#Безымянный_градиент_290"/><linearGradient id="Безымянный_градиент_349-5" x1="54.64" y1="2693.95" x2="56.32" y2="2692.26" gradientTransform="translate(2818.74 1159.96) rotate(110.43)" xlink:href="#Безымянный_градиент_349"/><linearGradient id="linear-gradient-8" x1="1822.39" y1="-148.59" x2="1822.39" y2="-151.12" xlink:href="#linear-gradient"/><linearGradient id="Безымянный_градиент_349-6" x1="54.79" y1="2695.38" x2="56.15" y2="2694.02" gradientTransform="translate(2849.87 1186.49) rotate(110.43)" xlink:href="#Безымянный_градиент_349"/><linearGradient id="linear-gradient-9" x1="1822.59" y1="-150.26" x2="1822.59" y2="-152.23" xlink:href="#linear-gradient"/><linearGradient id="Безымянный_градиент_349-7" x1="54.5" y1="2696.56" x2="56.34" y2="2694.72" gradientTransform="translate(2849.87 1186.49) rotate(110.43)" xlink:href="#Безымянный_градиент_349"/><linearGradient id="linear-gradient-10" x1="1822.64" y1="-151.01" x2="1822.64" y2="-153.35" xlink:href="#linear-gradient"/><linearGradient id="Безымянный_градиент_349-8" x1="56.8" y1="2692.98" x2="54.76" y2="2690.07" gradientTransform="translate(2849.87 1186.49) rotate(110.43)" xlink:href="#Безымянный_градиент_349"/><linearGradient id="linear-gradient-11" x1="1822.39" y1="-145.65" x2="1822.39" y2="-149.57" xlink:href="#linear-gradient"/><linearGradient id="Безымянный_градиент_327-2" x1="2421.14" y1="1316.88" x2="2487.23" y2="1222.49" gradientTransform="matrix(-0.35, -0.94, -0.94, 0.35, 2234.82, 2058.5)" xlink:href="#Безымянный_градиент_327"/><linearGradient id="linear-gradient-12" x1="2455.88" y1="1290.7" x2="2455.88" y2="1262.33" gradientTransform="matrix(-0.35, -0.94, -0.94, 0.35, 2234.82, 2058.5)" xlink:href="#linear-gradient"/><linearGradient id="Безымянный_градиент_367-2" x1="2411.3" y1="1314.75" x2="2493.1" y2="1232.94" gradientTransform="matrix(-0.35, -0.94, -0.94, 0.35, 2234.82, 2058.5)" xlink:href="#Безымянный_градиент_367"/><linearGradient id="linear-gradient-13" x1="2452.58" y1="1287.73" x2="2452.58" y2="1268.42" gradientTransform="matrix(-0.35, -0.94, -0.94, 0.35, 2234.82, 2058.5)" xlink:href="#linear-gradient"/><linearGradient id="Безымянный_градиент_301-2" x1="2355.25" y1="1281.38" x2="2360.82" y2="1252.75" gradientTransform="matrix(-0.35, -0.94, -0.94, 0.35, 2234.82, 2058.5)" xlink:href="#Безымянный_градиент_301"/><linearGradient id="linear-gradient-14" x1="2358.02" y1="1281.96" x2="2358.02" y2="1252.3" gradientTransform="matrix(-0.35, -0.94, -0.94, 0.35, 2234.82, 2058.5)" xlink:href="#linear-gradient"/><linearGradient id="Безымянный_градиент_349-9" x1="2359.16" y1="1250.78" x2="2360.85" y2="1249.1" gradientTransform="matrix(-0.35, -0.94, -0.94, 0.35, 2203.7, 2031.97)" xlink:href="#Безымянный_градиент_349"/><linearGradient id="linear-gradient-15" x1="2360.18" y1="1251.4" x2="2360.18" y2="1248.88" gradientTransform="matrix(-0.35, -0.94, -0.94, 0.35, 2234.82, 2058.5)" xlink:href="#linear-gradient"/><linearGradient id="Безымянный_градиент_349-10" x1="2359.31" y1="1252.21" x2="2360.67" y2="1250.86" gradientTransform="matrix(-0.35, -0.94, -0.94, 0.35, 2234.82, 2058.5)" xlink:href="#Безымянный_градиент_349"/><linearGradient id="linear-gradient-16" x1="2359.99" y1="1252.52" x2="2359.99" y2="1250.55" gradientTransform="matrix(-0.35, -0.94, -0.94, 0.35, 2234.82, 2058.5)" xlink:href="#linear-gradient"/><linearGradient id="Безымянный_градиент_349-11" x1="2359.02" y1="1253.39" x2="2360.86" y2="1251.55" gradientTransform="matrix(-0.35, -0.94, -0.94, 0.35, 2234.82, 2058.5)" xlink:href="#Безымянный_градиент_349"/><linearGradient id="linear-gradient-17" x1="2359.94" y1="1253.64" x2="2359.94" y2="1251.3" gradientTransform="matrix(-0.35, -0.94, -0.94, 0.35, 2234.82, 2058.5)" xlink:href="#linear-gradient"/><linearGradient id="Безымянный_градиент_349-12" x1="2361.32" y1="1249.82" x2="2359.28" y2="1246.9" gradientTransform="matrix(-0.35, -0.94, -0.94, 0.35, 2234.82, 2058.5)" xlink:href="#Безымянный_градиент_349"/><linearGradient id="linear-gradient-18" x1="2360.18" y1="1249.86" x2="2360.18" y2="1245.93" gradientTransform="matrix(-0.35, -0.94, -0.94, 0.35, 2234.82, 2058.5)" xlink:href="#linear-gradient"/><radialGradient id="Безымянный_градиент_290-3" cx="2328.27" cy="1285.47" r="1.08" gradientTransform="matrix(-0.36, -0.78, -0.91, 0.27, 2242.49, 1777.73)" xlink:href="#Безымянный_градиент_290"/><radialGradient id="Безымянный_градиент_290-4" cx="2337.45" cy="1286.97" r="1.08" gradientTransform="matrix(-0.36, -0.78, -0.91, 0.27, 2242.49, 1777.73)" xlink:href="#Безымянный_градиент_290"/><linearGradient id="Безымянный_градиент_349-13" x1="-479.65" y1="1259.75" x2="-477.96" y2="1258.06" gradientTransform="matrix(0.35, 0.94, 0.94, -0.35, -835.4, 1159.96)" xlink:href="#Безымянный_градиент_349"/><linearGradient id="linear-gradient-19" x1="2356.68" y1="1285.62" x2="2356.68" y2="1283.09" gradientTransform="matrix(-0.35, -0.94, -0.94, 0.35, 2234.82, 2058.5)" xlink:href="#linear-gradient"/><linearGradient id="Безымянный_градиент_349-14" x1="-479.5" y1="1261.18" x2="-478.14" y2="1259.82" gradientTransform="matrix(0.35, 0.94, 0.94, -0.35, -804.28, 1186.49)" xlink:href="#Безымянный_градиент_349"/><linearGradient id="linear-gradient-20" x1="2356.88" y1="1283.94" x2="2356.88" y2="1281.97" gradientTransform="matrix(-0.35, -0.94, -0.94, 0.35, 2234.82, 2058.5)" xlink:href="#linear-gradient"/><linearGradient id="Безымянный_градиент_349-15" x1="-479.79" y1="1262.35" x2="-477.95" y2="1260.51" gradientTransform="matrix(0.35, 0.94, 0.94, -0.35, -804.28, 1186.49)" xlink:href="#Безымянный_градиент_349"/><linearGradient id="linear-gradient-21" x1="2356.92" y1="1283.19" x2="2356.92" y2="1280.85" gradientTransform="matrix(-0.35, -0.94, -0.94, 0.35, 2234.82, 2058.5)" xlink:href="#linear-gradient"/><linearGradient id="Безымянный_градиент_349-16" x1="-477.49" y1="1258.78" x2="-479.53" y2="1255.87" gradientTransform="matrix(0.35, 0.94, 0.94, -0.35, -804.28, 1186.49)" xlink:href="#Безымянный_градиент_349"/><linearGradient id="linear-gradient-22" x1="2356.68" y1="1288.56" x2="2356.68" y2="1284.63" gradientTransform="matrix(-0.35, -0.94, -0.94, 0.35, 2234.82, 2058.5)" xlink:href="#linear-gradient"/><linearGradient id="Безымянный_градиент_471" x1="231.84" y1="174.39" x2="222.3" y2="174.39" gradientUnits="userSpaceOnUse"><stop offset="0" stop-color="#929497"/><stop offset="0.08" stop-color="#929497"/><stop offset="0.21" stop-color="#c1c2c4"/><stop offset="0.35" stop-color="#929497"/><stop offset="0.45" stop-color="#d0d2d3"/><stop offset="0.46" stop-color="#cdcecf"/><stop offset="0.47" stop-color="#c2c4c4"/><stop offset="0.48" stop-color="#b0b1b2"/><stop offset="0.49" stop-color="#979898"/><stop offset="0.5" stop-color="#777"/><stop offset="0.51" stop-color="#5e5e5e"/><stop offset="0.57" stop-color="#5e5e5e"/><stop offset="1" stop-color="#929497"/></linearGradient></defs><title>logo</title><polygon class="cls-1" points="38.59 60.05 40.76 90.98 226.85 354.69 412.93 90.98 412.93 63.47 38.59 60.05"/><path class="cls-2" d="M267,163.65l-8.79-46.14-8.79,46.14a21.39,21.39,0,0,0,1.76,10.7,25.93,25.93,0,0,0,4.92,7.31,80.43,80.43,0,0,0-2.34,18.42c0,.45.05.57.05,1h8.79c0-.45.06-.57.05-1a80.45,80.45,0,0,0-2.36-18.5,25.89,25.89,0,0,0,4.84-7.23,21.39,21.39,0,0,0,1.76-10.7Z" transform="translate(-31.12 -26.53)"/><polygon class="cls-3" points="222.67 374.74 222.67 174.47 231.46 174.47 231.46 374.71 227.07 380.99 222.67 374.74"/><polyline class="cls-4" points="40.76 90.98 227.07 354.69 412.49 90.98 430.07 90.98 227.07 380.99 23.18 90.98"/><path class="cls-5" d="M31.12,83.15v24.68Q69.41,97.07,108.31,90V65.33Q69.45,72.39,31.12,83.15Z" transform="translate(-31.12 -26.53)"/><path class="cls-6" d="M31.12,107.83v25.7q38.29-5.68,77.18-9.43V90Q69.45,97.07,31.12,107.83Z" transform="translate(-31.12 -26.53)"/><path class="cls-7" d="M484.38,83.15v24.68Q446.09,97.07,407.19,90V65.33Q446,72.39,484.38,83.15Z" transform="translate(-31.12 -26.53)"/><path class="cls-8" d="M484.38,107.83v25.7q-38.29-5.68-77.18-9.43V90Q446,97.07,484.38,107.83Z" transform="translate(-31.12 -26.53)"/><path class="cls-9" d="M427,47.14V74.46a1343.41,1343.41,0,0,0-339.3.1V47.36A708.15,708.15,0,0,1,427,47.14Z" transform="translate(-31.12 -26.53)"/><path class="cls-10" d="M427,74.46v29.65a1164.71,1164.71,0,0,0-339.3.14V74.57C200.1,55.9,291.3,50.6,427,74.46Z" transform="translate(-31.12 -26.53)"/><path class="cls-11" d="M427,47v57a1164.71,1164.71,0,0,0-339.3.14V47.26A708.15,708.15,0,0,1,427,47Z" transform="translate(-31.12 -26.53)"/><path class="cls-12" d="M87.66,104.24q10.3,9.47,20.64,19.86V101.37Q98,102.71,87.66,104.24Z" transform="translate(-31.12 -26.53)"/><path class="cls-13" d="M87.66,104.24q10.3,9.47,20.64,19.86V101.37Q98,102.71,87.66,104.24Z" transform="translate(-31.12 -26.53)"/><path class="cls-14" d="M427.84,104.24q-10.3,9.47-20.64,19.86V101.37Q417.53,102.71,427.84,104.24Z" transform="translate(-31.12 -26.53)"/><path class="cls-15" d="M287.76,289.17l8.46,4.05c-5.34,7.46-13,18.22-14.36,20.61-1.67,2.89,2.54,5.18,2.54,5.18,1.1.47.76,1.32-.78,3.17-2.83,3.4-8.55,1.36-8.55,1.36a2.27,2.27,0,0,1-3.36,1.07c-.75-.21-1.54.76-2,.62s.28-1.25-.57-1.63c-2.07-.93-.94-3.32-.94-3.32-1.49-1.37-1.82-3.1.62-6.37.74-1,2.95-3.43,2.95-3.43S276.42,305.24,287.76,289.17Z" transform="translate(-31.12 -26.53)"/><path class="cls-16" d="M286.73,289.64l8.46,4.05c-5.34,7.46-13,18.22-14.36,20.61-1.67,2.89,2.54,5.18,2.54,5.18,1.1.47,1.63.58.1,2.43a5.6,5.6,0,0,1-2,1.52c1.26-1.59.73-1.71-.32-2.16,0,0-4.21-2.28-2.54-5.18,1.38-2.4,9-13.16,14.36-20.61l-7.75-3.71Z" transform="translate(-31.12 -26.53)"/><path class="cls-17" d="M285.21,291.78l7.75,3.71c-1.49,2.07-3.15,4.4-4.81,6.74l-.22.31-2,2.83-.22.31L284.1,308l-.22.31-1.69,2.42L282,311c-.68,1-1.29,1.87-1.81,2.64L280,314c-.64,1-1.11,1.69-1.37,2.14l-.09.18a2.14,2.14,0,0,0-.13.3c-1,2.66,2.76,4.7,2.76,4.7,1,.44,1.58.57.32,2.16a10.13,10.13,0,0,1-6.21.32c-1.12,2.41-4.24,1.4-4.24,1.4-.75-.21-1.38.81-1.87.67s.06-1.18-.79-1.56c-2.07-.93-1.21-3.53-1.21-3.53-1.49-1.37-1.83-3.1.62-6.36.34-.45,1-1.21,1.58-1.9l.23-.26,1.13-1.27s.32-.35,1-1.16l.23-.28c.52-.63,1.22-1.5,2.1-2.62l.22-.28,1.37-1.77.22-.29,2.05-2.71.21-.29q1.06-1.41,2.28-3.08l.22-.29C282,296.3,283.51,294.17,285.21,291.78Z" transform="translate(-31.12 -26.53)"/><path class="cls-18" d="M365.79,118.39c.53,4.71-.11,12.15-.8,17.76-5.16,42.15-12,57-25.69,86.49s-38.83,63.67-38.83,63.67-2.28,3.16-5.3,7.38l-8.46-4.05c3.86-5.47,8.43-12.09,13.75-20,20.91-31.09,31.8-55.4,31.8-55.4,10.32-19.82,13.59-34.28,17.2-45.74s6.09-30.23,8-44.46,3-15.64,4.47-16.22C362,107.83,364.93,108.39,365.79,118.39Z" transform="translate(-31.12 -26.53)"/><path class="cls-19" d="M295.29,294.09l-9-4.33.21-.3c4.32-6.13,8.95-12.85,13.74-20,20.65-30.7,31.67-55.11,31.77-55.35,8.43-16.18,12.18-28.88,15.19-39.09.69-2.32,1.33-4.52,2-6.62,3.45-11,5.84-28.43,7.77-42.46l.27-2c1.91-14,2.94-15.8,4.67-16.47l.08,0,.09,0c.13,0,3.18.72,4.05,10.84.58,5.14-.25,13.37-.79,17.83-5.17,42.2-12,57-25.71,86.59C326.09,252,301,286.16,300.74,286.5h0s-2.28,3.16-5.29,7.38Zm-8.09-4.57,7.89,3.78c2.94-4.11,5.14-7.17,5.14-7.17.25-.34,25.31-34.49,38.8-63.62,13.65-29.49,20.5-44.29,25.66-86.4.54-4.43,1.37-12.61.79-17.68h0c-.74-8.62-3-10.06-3.48-10.26-1.28.56-2.3,2.23-4.17,15.93l-.27,2c-1.92,14.06-4.32,31.55-7.79,42.56-.66,2.1-1.31,4.29-2,6.61-3,10.23-6.78,23-15.23,39.18-.1.23-11.13,24.68-31.82,55.43C296,276.85,291.46,283.47,287.2,289.52Z" transform="translate(-31.12 -26.53)"/><path class="cls-20" d="M300.55,282.19c6.62-10,18.85-24.73,37-61.9s23-65.24,25.7-83.55c1.8-12-2.72-9.45-3.11-8.51s-.6,6.62-1.92,14a346.66,346.66,0,0,1-9.76,38.36c-4.5,14.77-13.73,34.62-19.13,45.18s-22.7,39.89-32.57,53.93a1.37,1.37,0,0,0,.14,1.85C297.26,282,299.62,283.33,300.55,282.19Z" transform="translate(-31.12 -26.53)"/><path class="cls-21" d="M299.48,282.79a4.82,4.82,0,0,1-2.72-1.12,1.53,1.53,0,0,1-.15-2.06c9.88-14.06,27-43.11,32.55-53.9,4.92-9.61,14.48-29.93,19.12-45.15A344.74,344.74,0,0,0,358,142.21c.76-4.25,1.16-8,1.42-10.48a21.72,21.72,0,0,1,.51-3.57,2,2,0,0,1,2.09-.93c1.2.33,2.41,2.26,1.32,9.53-3.46,23.13-9,49.27-25.72,83.59C322.94,250.54,312.15,265.86,305,276c-1.66,2.36-3.09,4.39-4.34,6.28h0a1.42,1.42,0,0,1-1.11.51Zm62.17-155.3a1.73,1.73,0,0,0-1.39.79,22.93,22.93,0,0,0-.49,3.48c-.26,2.49-.66,6.24-1.42,10.5a345.17,345.17,0,0,1-9.76,38.38c-4.65,15.25-14.22,35.59-19.14,45.2-5.53,10.8-22.69,39.87-32.58,53.95a1.21,1.21,0,0,0,.13,1.66,4.38,4.38,0,0,0,2.56,1,1.12,1.12,0,0,0,.87-.39c1.25-1.89,2.68-3.92,4.34-6.28,7.13-10.13,17.92-25.44,32.62-55.6,16.72-34.29,22.23-60.4,25.69-83.5,1.15-7.69-.38-9-1.09-9.18A1.19,1.19,0,0,0,361.65,127.5Z" transform="translate(-31.12 -26.53)"/><path class="cls-22" d="M277.42,285.06l1.25-1.53s10.87,7.13,17.09,0c0,0,.88-1,.72.21,0,0-3.53,7.63,8.07,12.81l-.92,1.33s-11-5.12-17.42.86c0,0-1.29,1-.9-.27S289.71,292.72,277.42,285.06Z" transform="translate(-31.12 -26.53)"/><path class="cls-23" d="M285.45,299.22a.29.29,0,0,1-.17,0c-.14-.1-.15-.32,0-.68a4.13,4.13,0,0,1,.21-.49c.79-1.65,2.91-6-8.08-12.87l-.08,0,1.35-1.66.06,0a23.23,23.23,0,0,0,6.19,2.67c3.17.81,7.61,1,10.8-2.62.07-.09.46-.51.71-.4s.19.28.14.68v0a7.7,7.7,0,0,0,0,5.5c1.08,2.89,3.78,5.31,8,7.2l.09,0-1,1.47-.06,0c-.11-.05-11.06-5-17.33.85A1.82,1.82,0,0,1,285.45,299.22ZM277.54,285c11,6.89,8.87,11.35,8.06,13a4.08,4.08,0,0,0-.21.47c-.12.38-.05.48,0,.5s.55-.14.8-.32c6.1-5.71,16.54-1.29,17.44-.9l.83-1.2c-4.23-1.91-6.93-4.35-8-7.25a7.88,7.88,0,0,1,0-5.61c.05-.43,0-.5-.05-.5s-.37.18-.53.36c-3.24,3.69-7.75,3.49-11,2.66a23.47,23.47,0,0,1-6.18-2.65Z" transform="translate(-31.12 -26.53)"/><polygon class="cls-24" points="243.09 257.5 244.62 255.32 245.81 256.58 244.97 257.78 243.09 257.5"/><path class="cls-25" d="M276.15,284.44h-.07l-2.07-.31,1.73-2.45,1.35,1.44Zm-1.73-.5,1.62.25.74-1.06-1-1.09Z" transform="translate(-31.12 -26.53)"/><path class="cls-26" d="M278,283.53l-.9,1.24a.78.78,0,0,1-.95.22h0a.52.52,0,0,1-.22-.79l.9-1.24a.78.78,0,0,1,.95-.22h0A.52.52,0,0,1,278,283.53Z" transform="translate(-31.12 -26.53)"/><path class="cls-27" d="M276.45,285.17a.86.86,0,0,1-.38-.09.68.68,0,0,1-.37-.44.63.63,0,0,1,.11-.53l.9-1.24a.9.9,0,0,1,1.09-.25.68.68,0,0,1,.37.44.63.63,0,0,1-.11.53l-.9,1.24A.88.88,0,0,1,276.45,285.17Zm1-2.39a.65.65,0,0,0-.52.24l-.9,1.24a.4.4,0,0,0-.07.33.44.44,0,0,0,.24.28.67.67,0,0,0,.8-.18l.9-1.24a.4.4,0,0,0,.07-.33.44.44,0,0,0-.24-.28A.65.65,0,0,0,277.42,282.78Z" transform="translate(-31.12 -26.53)"/><path class="cls-28" d="M279.23,283.34l-1.7,2.35a.78.78,0,0,1-.95.22h0a.52.52,0,0,1-.22-.79l1.7-2.35a.78.78,0,0,1,.95-.22h0A.52.52,0,0,1,279.23,283.34Z" transform="translate(-31.12 -26.53)"/><path class="cls-29" d="M276.91,286.1a.86.86,0,0,1-.38-.09.68.68,0,0,1-.37-.44.63.63,0,0,1,.11-.53l1.7-2.35a.91.91,0,0,1,1.09-.25.68.68,0,0,1,.37.44.63.63,0,0,1-.11.53l-1.7,2.35A.88.88,0,0,1,276.91,286.1Zm1.77-3.5a.65.65,0,0,0-.52.24l-1.7,2.35a.4.4,0,0,0-.07.33.44.44,0,0,0,.24.28.68.68,0,0,0,.8-.18l1.7-2.35a.4.4,0,0,0,.07-.33.44.44,0,0,0-.24-.28A.65.65,0,0,0,278.68,282.6Z" transform="translate(-31.12 -26.53)"/><path class="cls-30" d="M274.21,284l1.53-2.18s-1-.64-3.63-.47c-.12,0-.16.07-.12.16A7.45,7.45,0,0,0,274.21,284Z" transform="translate(-31.12 -26.53)"/><path class="cls-31" d="M274.25,284.17l-.09,0a7.49,7.49,0,0,1-2.26-2.53.23.23,0,0,1,0-.22.27.27,0,0,1,.21-.12c2.65-.17,3.67.46,3.71.48l.1.07Zm-2.14-2.68a8.4,8.4,0,0,0,2.07,2.37l1.39-2a7.21,7.21,0,0,0-3.45-.39Zm0,0Z" transform="translate(-31.12 -26.53)"/><path class="cls-32" d="M272.33,316.85l6.17-.57a2.14,2.14,0,0,0-.13.3l-6.25.58-2.79-4.68.23-.26Z" transform="translate(-31.12 -26.53)"/><path class="cls-32" d="M274.69,314.17l5.49-.51L280,314l-5.49.51-2.8-4.69.23-.28Z" transform="translate(-31.12 -26.53)"/><path class="cls-32" d="M277,311.19l5.22-.48L282,311l-5.22.48L274,306.89l.22-.28Z" transform="translate(-31.12 -26.53)"/><path class="cls-32" d="M278.2,308.53l5.89-.55-.22.31-5.89.55-2.39-4,.22-.29Z" transform="translate(-31.12 -26.53)"/><path class="cls-32" d="M280.66,305.85l5.28-.49-.22.31-5.26.49-2.58-4.32.21-.29Z" transform="translate(-31.12 -26.53)"/><path class="cls-32" d="M283.27,302.69l4.88-.45-.22.31-4.87.45-2.69-4.52.22-.29Z" transform="translate(-31.12 -26.53)"/><path class="cls-32" d="M277.73,310.3a.79.79,0,0,1,0,1.25,1.18,1.18,0,0,1-1.47-.09.79.79,0,0,1,0-1.25A1.18,1.18,0,0,1,277.73,310.3Z" transform="translate(-31.12 -26.53)"/><path class="cls-32" d="M282.4,303.56a.79.79,0,0,1,0,1.25,1.18,1.18,0,0,1-1.47-.1.79.79,0,0,1,0-1.25A1.18,1.18,0,0,1,282.4,303.56Z" transform="translate(-31.12 -26.53)"/><path class="cls-33" d="M277.54,310.45a.79.79,0,0,1,0,1.25,1.18,1.18,0,0,1-1.47-.1.79.79,0,0,1,0-1.25A1.18,1.18,0,0,1,277.54,310.45Z" transform="translate(-31.12 -26.53)"/><path class="cls-34" d="M282.21,303.71a.79.79,0,0,1,0,1.25,1.18,1.18,0,0,1-1.47-.09.79.79,0,0,1,0-1.25A1.18,1.18,0,0,1,282.21,303.71Z" transform="translate(-31.12 -26.53)"/><polygon class="cls-35" points="276.9 271.06 275.36 273.24 274.18 271.97 275.02 270.77 276.9 271.06"/><path class="cls-36" d="M306.5,300l-1.35-1.44.93-1.34h.07l2.07.31Zm-1-1.46,1,1.09,1.34-1.9-1.62-.25Z" transform="translate(-31.12 -26.53)"/><path class="cls-37" d="M304.27,298.08l.9-1.24a.78.78,0,0,1,.95-.22h0a.52.52,0,0,1,.22.79l-.9,1.24a.78.78,0,0,1-.95.22h0A.52.52,0,0,1,304.27,298.08Z" transform="translate(-31.12 -26.53)"/><path class="cls-38" d="M304.81,299.06a.86.86,0,0,1-.38-.09.68.68,0,0,1-.37-.44.63.63,0,0,1,.11-.52l.9-1.24a.91.91,0,0,1,1.09-.25.68.68,0,0,1,.37.44.63.63,0,0,1-.11.53l-.9,1.24A.89.89,0,0,1,304.81,299.06Zm1-2.39a.65.65,0,0,0-.52.24l-.9,1.24a.39.39,0,0,0-.07.33.44.44,0,0,0,.24.28.67.67,0,0,0,.8-.18l.9-1.24a.39.39,0,0,0,.07-.33.44.44,0,0,0-.24-.28A.63.63,0,0,0,305.78,296.67Z" transform="translate(-31.12 -26.53)"/><path class="cls-39" d="M303,298.27l1.7-2.35a.78.78,0,0,1,.95-.22h0a.52.52,0,0,1,.22.79l-1.7,2.35a.78.78,0,0,1-.95.22h0A.52.52,0,0,1,303,298.27Z" transform="translate(-31.12 -26.53)"/><path class="cls-40" d="M303.55,299.24a.85.85,0,0,1-.38-.09.68.68,0,0,1-.37-.44.63.63,0,0,1,.11-.52l1.7-2.35a.91.91,0,0,1,1.09-.25.67.67,0,0,1,.37.44.63.63,0,0,1-.11.53l-1.7,2.35A.89.89,0,0,1,303.55,299.24Zm1.77-3.5a.65.65,0,0,0-.52.24l-1.7,2.35a.39.39,0,0,0-.07.33.44.44,0,0,0,.24.28.67.67,0,0,0,.8-.18l1.7-2.35a.4.4,0,0,0,.07-.33.44.44,0,0,0-.24-.28A.64.64,0,0,0,305.32,295.74Z" transform="translate(-31.12 -26.53)"/><path class="cls-41" d="M308,297.59l-1.53,2.18s1,.64,3.63.47c.12,0,.16-.07.12-.16A7.44,7.44,0,0,0,308,297.59Z" transform="translate(-31.12 -26.53)"/><path class="cls-42" d="M309.24,300.38a5.53,5.53,0,0,1-2.81-.52l-.1-.07,1.66-2.36.09,0a7.48,7.48,0,0,1,2.27,2.53.23.23,0,0,1,0,.22.27.27,0,0,1-.21.12C309.81,300.37,309.51,300.38,309.24,300.38Zm-2.58-.66a7.28,7.28,0,0,0,3.45.39h0a8.41,8.41,0,0,0-2.07-2.37Z" transform="translate(-31.12 -26.53)"/><path class="cls-15" d="M227.31,289.17l-8.46,4.05c5.34,7.46,13,18.22,14.36,20.61,1.67,2.89-2.54,5.18-2.54,5.18-1.1.47-.76,1.32.78,3.17,2.83,3.4,8.55,1.36,8.55,1.36a2.27,2.27,0,0,0,3.36,1.07c.75-.21,1.54.76,2,.62s-.28-1.25.57-1.63c2.07-.93.94-3.32.94-3.32,1.49-1.37,1.82-3.1-.62-6.37-.74-1-2.95-3.43-2.95-3.43S238.65,305.24,227.31,289.17Z" transform="translate(-31.12 -26.53)"/><path class="cls-16" d="M228.35,289.64l-8.46,4.05c5.34,7.46,13,18.22,14.36,20.61,1.67,2.89-2.54,5.18-2.54,5.18-1.1.47-1.63.58-.1,2.43a5.6,5.6,0,0,0,2,1.52c-1.26-1.59-.73-1.71.32-2.16,0,0,4.21-2.28,2.54-5.18-1.38-2.4-9-13.16-14.36-20.61l7.75-3.71Z" transform="translate(-31.12 -26.53)"/><path class="cls-17" d="M229.86,291.78l-7.75,3.71c1.48,2.07,3.15,4.4,4.81,6.74l.22.31,2,2.83.22.31L231,308l.22.31,1.69,2.42.21.31c.68,1,1.29,1.87,1.81,2.64l.21.31c.64,1,1.11,1.69,1.37,2.14l.09.18a2.13,2.13,0,0,1,.13.3c1,2.66-2.76,4.7-2.76,4.7-1,.44-1.58.57-.32,2.16a10.13,10.13,0,0,0,6.21.32c1.12,2.41,4.24,1.4,4.24,1.4.75-.21,1.38.81,1.87.67s-.06-1.18.79-1.56c2.07-.93,1.21-3.53,1.21-3.53,1.49-1.37,1.83-3.1-.62-6.36-.34-.45-1-1.21-1.58-1.9l-.23-.26-1.13-1.27s-.32-.35-1-1.16l-.23-.28c-.52-.63-1.22-1.5-2.1-2.62l-.22-.28-1.37-1.77-.22-.29-2.05-2.71-.21-.29c-.71-.94-1.46-2-2.28-3.08l-.22-.29C233.1,296.3,231.57,294.17,229.86,291.78Z" transform="translate(-31.12 -26.53)"/><path class="cls-43" d="M149.28,118.39c-.53,4.71.11,12.15.8,17.76,5.16,42.15,12,57,25.69,86.49s38.83,63.67,38.83,63.67,2.28,3.16,5.3,7.38l8.46-4.05c-3.86-5.47-8.43-12.09-13.75-20-20.91-31.09-31.8-55.4-31.8-55.4-10.33-19.82-13.59-34.28-17.2-45.74s-6.09-30.23-8-44.46-3-15.64-4.47-16.22C153.08,107.83,150.14,108.39,149.28,118.39Z" transform="translate(-31.12 -26.53)"/><path class="cls-44" d="M219.78,294.09l-.15-.21c-3-4.22-5.29-7.38-5.29-7.38-.25-.34-25.35-34.53-38.86-63.73-13.68-29.55-20.55-44.39-25.71-86.59-.55-4.45-1.37-12.69-.8-17.83.87-10.13,3.93-10.82,4.06-10.84l.09,0,.08,0c1.73.67,2.76,2.52,4.67,16.47l.27,1.94c1.92,14,4.31,31.51,7.77,42.47.66,2.1,1.31,4.3,2,6.62,3,10.2,6.76,22.9,15.18,39.07.12.26,11.13,24.66,31.78,55.37,4.8,7.13,9.42,13.86,13.74,20l.21.3ZM153.07,108.16c-.43.19-2.73,1.61-3.48,10.26h0c-.57,5.07.25,13.26.79,17.68,5.15,42.1,12,56.9,25.66,86.4,13.49,29.13,38.54,63.28,38.8,63.62,0,0,2.21,3.06,5.14,7.17l7.89-3.78c-4.26-6-8.82-12.67-13.54-19.69-20.68-30.75-31.72-55.2-31.83-55.45-8.44-16.2-12.2-28.93-15.22-39.16-.69-2.32-1.33-4.51-2-6.61-3.47-11-5.87-28.51-7.79-42.57l-.27-1.94C155.37,110.39,154.35,108.72,153.07,108.16Z" transform="translate(-31.12 -26.53)"/><path class="cls-45" d="M214.53,282.19c-6.62-10-18.85-24.73-37-61.9s-23-65.24-25.7-83.55c-1.8-12,2.72-9.45,3.11-8.51s.6,6.62,1.92,14a346.66,346.66,0,0,0,9.76,38.36c4.5,14.77,13.73,34.62,19.13,45.18s22.7,39.89,32.57,53.93a1.37,1.37,0,0,1-.14,1.85C217.81,282,215.46,283.33,214.53,282.19Z" transform="translate(-31.12 -26.53)"/><path class="cls-46" d="M215.59,282.79h-.08a1.42,1.42,0,0,1-1.11-.51h0c-1.25-1.89-2.68-3.92-4.34-6.28-7.14-10.14-17.93-25.46-32.65-55.64-16.74-34.32-22.25-60.46-25.72-83.59-1.09-7.27.12-9.19,1.32-9.53a2,2,0,0,1,2.09.93,21.7,21.7,0,0,1,.51,3.56c.26,2.48.66,6.23,1.42,10.48a344.82,344.82,0,0,0,9.76,38.35c4.64,15.23,14.2,35.55,19.12,45.15,5.53,10.79,22.67,39.84,32.56,53.91h0a1.53,1.53,0,0,1-.15,2.05A4.81,4.81,0,0,1,215.59,282.79Zm-.94-.7a1.13,1.13,0,0,0,.87.39,4.44,4.44,0,0,0,2.56-1,1.2,1.2,0,0,0,.13-1.64c-9.91-14.09-27.06-43.16-32.59-54-4.92-9.61-14.49-30-19.14-45.2a345,345,0,0,1-9.76-38.38c-.76-4.26-1.16-8-1.42-10.51a23.18,23.18,0,0,0-.49-3.48,1.67,1.67,0,0,0-1.72-.75c-.71.2-2.24,1.49-1.09,9.18,3.46,23.11,9,49.22,25.69,83.5,14.71,30.16,25.49,45.47,32.62,55.6C212,278.17,213.41,280.21,214.65,282.09Z" transform="translate(-31.12 -26.53)"/><path class="cls-47" d="M237.65,285.06l-1.25-1.53s-10.87,7.13-17.09,0c0,0-.88-1-.72.21,0,0,3.53,7.63-8.07,12.81l.92,1.33s11-5.12,17.42.86c0,0,1.29,1,.9-.27S225.36,292.72,237.65,285.06Z" transform="translate(-31.12 -26.53)"/><path class="cls-48" d="M229.62,299.22a1.8,1.8,0,0,1-.81-.37c-6.28-5.88-17.23-.91-17.34-.85l-.06,0-1-1.47.09,0c4.24-1.89,6.94-4.32,8-7.2a7.68,7.68,0,0,0,0-5.5v0c-.05-.4,0-.61.14-.68s.64.32.71.4c6.11,7,16.88,0,17-.05l.06,0,1.35,1.66-.08,0c-11,6.85-8.87,11.23-8.08,12.87a4.06,4.06,0,0,1,.21.49c.11.36.1.58,0,.68A.29.29,0,0,1,229.62,299.22Zm-8.93-3.4a11.69,11.69,0,0,1,8.22,2.9c.25.18.66.41.79.32s.1-.12,0-.5a4.06,4.06,0,0,0-.21-.47c-.81-1.68-3-6.13,8.06-13l-1.15-1.41a23.47,23.47,0,0,1-6.18,2.65c-3.21.82-7.72,1-11-2.66-.16-.18-.43-.41-.53-.36s-.11.07-.05.5a7.88,7.88,0,0,1,0,5.61c-1.09,2.91-3.79,5.35-8,7.25l.83,1.2A25.18,25.18,0,0,1,220.69,295.82Z" transform="translate(-31.12 -26.53)"/><polygon class="cls-49" points="209.74 257.5 208.2 255.32 207.02 256.58 207.86 257.78 209.74 257.5"/><path class="cls-50" d="M238.92,284.44,238,283.1l1.35-1.44,1.73,2.45Zm-.63-1.32.74,1.06,1.62-.25-1.34-1.9Z" transform="translate(-31.12 -26.53)"/><path class="cls-51" d="M237.11,283.53l.9,1.24a.78.78,0,0,0,.95.22h0a.52.52,0,0,0,.22-.79l-.9-1.24a.78.78,0,0,0-.95-.22h0A.52.52,0,0,0,237.11,283.53Z" transform="translate(-31.12 -26.53)"/><path class="cls-52" d="M238.62,285.17a.88.88,0,0,1-.71-.34l-.9-1.24a.63.63,0,0,1-.11-.53.68.68,0,0,1,.37-.44.9.9,0,0,1,1.09.25l.9,1.24a.63.63,0,0,1,.11.53.68.68,0,0,1-.37.44A.86.86,0,0,1,238.62,285.17Zm-1-2.39a.65.65,0,0,0-.28.06.44.44,0,0,0-.24.28.39.39,0,0,0,.07.33h0l.9,1.24a.67.67,0,0,0,.8.18.44.44,0,0,0,.24-.28.39.39,0,0,0-.07-.33l-.9-1.24A.65.65,0,0,0,237.65,282.78Z" transform="translate(-31.12 -26.53)"/><path class="cls-53" d="M235.85,283.34l1.7,2.35a.78.78,0,0,0,.95.22h0a.52.52,0,0,0,.22-.79l-1.7-2.35a.78.78,0,0,0-.95-.22h0A.52.52,0,0,0,235.85,283.34Z" transform="translate(-31.12 -26.53)"/><path class="cls-54" d="M238.16,286.1a.88.88,0,0,1-.71-.34l-1.7-2.35h0a.63.63,0,0,1-.11-.53.68.68,0,0,1,.37-.44.9.9,0,0,1,1.09.25l1.7,2.35a.63.63,0,0,1,.11.53.68.68,0,0,1-.37.44A.86.86,0,0,1,238.16,286.1Zm-1.77-3.5a.65.65,0,0,0-.28.06.44.44,0,0,0-.24.28.39.39,0,0,0,.07.33h0l1.7,2.35a.67.67,0,0,0,.8.18.44.44,0,0,0,.24-.28.39.39,0,0,0-.07-.33l-1.7-2.35A.65.65,0,0,0,236.39,282.6Z" transform="translate(-31.12 -26.53)"/><path class="cls-55" d="M240.86,284l-1.53-2.18s1-.64,3.63-.47c.12,0,.16.07.12.16A7.44,7.44,0,0,1,240.86,284Z" transform="translate(-31.12 -26.53)"/><path class="cls-56" d="M240.82,284.17l-1.66-2.36.1-.07s1-.65,3.7-.49a.28.28,0,0,1,.22.12.22.22,0,0,1,0,.2,7.53,7.53,0,0,1-2.28,2.55Zm-1.32-2.29,1.39,2A8.41,8.41,0,0,0,243,281.5h0A7.26,7.26,0,0,0,239.5,281.88Z" transform="translate(-31.12 -26.53)"/><path class="cls-32" d="M242.74,316.85l-6.17-.57a2.13,2.13,0,0,1,.13.3l6.25.58,2.79-4.68-.23-.26Z" transform="translate(-31.12 -26.53)"/><path class="cls-32" d="M240.38,314.17l-5.49-.51.21.31,5.49.51,2.8-4.69-.23-.28Z" transform="translate(-31.12 -26.53)"/><path class="cls-32" d="M238.1,311.19l-5.22-.48.21.31,5.22.48,2.75-4.61-.22-.28Z" transform="translate(-31.12 -26.53)"/><path class="cls-32" d="M236.87,308.53,231,308l.22.31,5.89.55,2.39-4-.22-.29Z" transform="translate(-31.12 -26.53)"/><path class="cls-32" d="M234.41,305.85l-5.28-.49.22.31,5.26.49,2.58-4.32-.21-.29Z" transform="translate(-31.12 -26.53)"/><path class="cls-32" d="M231.8,302.69l-4.88-.45.22.31L232,303l2.69-4.52-.22-.29Z" transform="translate(-31.12 -26.53)"/><path class="cls-32" d="M237.34,310.3a.79.79,0,0,0,0,1.25,1.18,1.18,0,0,0,1.47-.09.79.79,0,0,0,0-1.25A1.18,1.18,0,0,0,237.34,310.3Z" transform="translate(-31.12 -26.53)"/><path class="cls-32" d="M232.67,303.56a.79.79,0,0,0,0,1.25,1.18,1.18,0,0,0,1.47-.1.79.79,0,0,0,0-1.25A1.18,1.18,0,0,0,232.67,303.56Z" transform="translate(-31.12 -26.53)"/><path class="cls-57" d="M237.53,310.45a.79.79,0,0,0,0,1.25,1.18,1.18,0,0,0,1.47-.1.79.79,0,0,0,0-1.25A1.18,1.18,0,0,0,237.53,310.45Z" transform="translate(-31.12 -26.53)"/><path class="cls-58" d="M232.86,303.71a.79.79,0,0,0,0,1.25,1.18,1.18,0,0,0,1.47-.09.79.79,0,0,0,0-1.25A1.18,1.18,0,0,0,232.86,303.71Z" transform="translate(-31.12 -26.53)"/><polygon class="cls-59" points="175.93 271.06 177.46 273.24 178.65 271.97 177.81 270.77 175.93 271.06"/><path class="cls-60" d="M208.57,300l-1.73-2.45,2.14-.33.93,1.34Zm-1.31-2.28,1.34,1.9,1-1.09-.74-1.06Z" transform="translate(-31.12 -26.53)"/><path class="cls-61" d="M210.81,298.08l-.9-1.24a.78.78,0,0,0-.95-.22h0a.52.52,0,0,0-.22.79l.9,1.24a.78.78,0,0,0,.95.22h0A.52.52,0,0,0,210.81,298.08Z" transform="translate(-31.12 -26.53)"/><path class="cls-62" d="M210.26,299.06a.88.88,0,0,1-.71-.34l-.9-1.24a.63.63,0,0,1-.11-.53.68.68,0,0,1,.37-.44.9.9,0,0,1,1.09.25l.9,1.24a.63.63,0,0,1,.11.53.68.68,0,0,1-.37.44A.86.86,0,0,1,210.26,299.06Zm-1-2.39a.65.65,0,0,0-.28.06.44.44,0,0,0-.24.28.39.39,0,0,0,.07.33l.9,1.24a.67.67,0,0,0,.8.18.44.44,0,0,0,.24-.28.39.39,0,0,0-.07-.33h0l-.9-1.24A.65.65,0,0,0,209.29,296.67Z" transform="translate(-31.12 -26.53)"/><path class="cls-63" d="M212.07,298.27l-1.7-2.35a.78.78,0,0,0-.95-.22h0a.52.52,0,0,0-.22.79l1.7,2.35a.78.78,0,0,0,.95.22h0A.52.52,0,0,0,212.07,298.27Z" transform="translate(-31.12 -26.53)"/><path class="cls-64" d="M211.52,299.24a.88.88,0,0,1-.71-.34l-1.7-2.35A.63.63,0,0,1,209,296a.68.68,0,0,1,.37-.44.9.9,0,0,1,1.09.25l1.7,2.35a.63.63,0,0,1,.11.53.68.68,0,0,1-.37.44A.86.86,0,0,1,211.52,299.24Zm-1.77-3.5a.63.63,0,0,0-.28.06.44.44,0,0,0-.24.28.39.39,0,0,0,.07.33l1.7,2.35a.67.67,0,0,0,.8.18.44.44,0,0,0,.24-.28.39.39,0,0,0-.07-.33l-1.7-2.35A.65.65,0,0,0,209.75,295.74Z" transform="translate(-31.12 -26.53)"/><path class="cls-65" d="M207.05,297.59l1.53,2.18s-1,.64-3.63.47c-.12,0-.16-.07-.12-.16A7.44,7.44,0,0,1,207.05,297.59Z" transform="translate(-31.12 -26.53)"/><path class="cls-66" d="M205.84,300.38l-.89,0a.28.28,0,0,1-.22-.12.22.22,0,0,1,0-.2,7.53,7.53,0,0,1,2.28-2.55l.09,0,1.66,2.36-.1.07A5.52,5.52,0,0,1,205.84,300.38Zm-.89-.27h0a7.24,7.24,0,0,0,3.44-.39l-1.39-2A8.43,8.43,0,0,0,205,300.11Z" transform="translate(-31.12 -26.53)"/><path d="M218.61,55.16a1,1,0,0,1-.87-.44l-6.56-8.47v8.36a.48.48,0,0,1-.54.54h-2.34a.48.48,0,0,1-.54-.54V36.1a.48.48,0,0,1,.54-.54h2.34a.48.48,0,0,1,.54.54v8.39L217.93,36a1,1,0,0,1,.87-.44h2.8q.54,0,.22.44l-7.6,9.12L222,54.73q.33.44-.22.44Z" transform="translate(-31.12 -26.53)"/><path d="M234.43,55.49a11.24,11.24,0,0,1-3.8-.63,8.27,8.27,0,0,1-3-1.89,8.81,8.81,0,0,1-2-3.16,12.26,12.26,0,0,1-.74-4.45,12.27,12.27,0,0,1,.74-4.45,8.82,8.82,0,0,1,2-3.16,8.28,8.28,0,0,1,3-1.89,11.83,11.83,0,0,1,7.6,0,8.29,8.29,0,0,1,3,1.89,8.82,8.82,0,0,1,2,3.16,12.28,12.28,0,0,1,.73,4.45,12.27,12.27,0,0,1-.73,4.45,8.81,8.81,0,0,1-2,3.16,8.28,8.28,0,0,1-3,1.89A11.24,11.24,0,0,1,234.43,55.49Zm0-2.59a6.73,6.73,0,0,0,2.31-.4,4.84,4.84,0,0,0,1.92-1.29A6.32,6.32,0,0,0,240,48.87a11.3,11.3,0,0,0,.48-3.51,11.3,11.3,0,0,0-.48-3.51,6.42,6.42,0,0,0-1.29-2.34,4.71,4.71,0,0,0-1.92-1.29,7.07,7.07,0,0,0-4.66,0,4.72,4.72,0,0,0-1.92,1.29,6.42,6.42,0,0,0-1.29,2.34,11.29,11.29,0,0,0-.48,3.51,11.28,11.28,0,0,0,.48,3.51,6.3,6.3,0,0,0,1.31,2.34,4.83,4.83,0,0,0,1.92,1.29A6.73,6.73,0,0,0,234.43,52.9Z" transform="translate(-31.12 -26.53)"/><path d="M247,55.16a.48.48,0,0,1-.54-.54V36.1a.48.48,0,0,1,.54-.54h5.17a7.32,7.32,0,0,1,2.83.53,6.73,6.73,0,0,1,2.21,1.46,6.62,6.62,0,0,1,1.44,2.18,6.92,6.92,0,0,1,.52,2.67,6.75,6.75,0,0,1-.52,2.63,6.64,6.64,0,0,1-1.44,2.16A6.86,6.86,0,0,1,255,48.65a7.18,7.18,0,0,1-2.82.54h-2.29v5.42a.48.48,0,0,1-.54.54Zm4.63-8.41a4.08,4.08,0,0,0,3.06-1.08,4.54,4.54,0,0,0,1-3.27,4.54,4.54,0,0,0-1-3.27A4.16,4.16,0,0,0,251.67,38h-1.74v8.74Z" transform="translate(-31.12 -26.53)"/><path d="M272.63,55.16a.48.48,0,0,1-.54-.54V38h-7V54.62a.48.48,0,0,1-.55.54H262.2a.48.48,0,0,1-.54-.54V36.1a.48.48,0,0,1,.54-.54H275a.48.48,0,0,1,.54.54V54.62a.48.48,0,0,1-.54.54Z" transform="translate(-31.12 -26.53)"/><path d="M282.19,55.16q-.52,0-.33-.49l1.88-4.9L278.46,36q-.19-.49.33-.49h2.78a.68.68,0,0,1,.71.52l3.29,10.4,3.32-10.4a.69.69,0,0,1,.73-.52H292c.34,0,.45.16.33.49l-6.92,18.62a.71.71,0,0,1-.76.49Z" transform="translate(-31.12 -26.53)"/><path d="M310,53.31a1.52,1.52,0,0,1,.12.54.47.47,0,0,1-.15.3,3.66,3.66,0,0,1-.8.42,11.18,11.18,0,0,1-1.29.44,14.34,14.34,0,0,1-1.59.34,11.69,11.69,0,0,1-5.55-.49,8.27,8.27,0,0,1-3-1.89,8.81,8.81,0,0,1-2-3.16,12.26,12.26,0,0,1-.74-4.45,12.27,12.27,0,0,1,.74-4.45,8.82,8.82,0,0,1,2-3.16,8.29,8.29,0,0,1,3-1.89,11.69,11.69,0,0,1,5.55-.49,14.48,14.48,0,0,1,1.59.34,11.4,11.4,0,0,1,1.29.44,3.7,3.7,0,0,1,.8.42.46.46,0,0,1,.15.27,1,1,0,0,1-.12.44l-.44,1.14a.33.33,0,0,1-.3.12,2.33,2.33,0,0,1-.41-.07q-.63-.16-1.8-.41a12.35,12.35,0,0,0-2.53-.25,6.87,6.87,0,0,0-2.33.39,4.71,4.71,0,0,0-1.92,1.29A6.42,6.42,0,0,0,299,41.85a11.3,11.3,0,0,0-.48,3.51,11.3,11.3,0,0,0,.48,3.51,6.29,6.29,0,0,0,1.31,2.34,4.82,4.82,0,0,0,1.92,1.29,6.73,6.73,0,0,0,2.31.4,12.36,12.36,0,0,0,2.53-.25q1.17-.25,1.8-.41a1.91,1.91,0,0,1,.39-.07.35.35,0,0,1,.31.12Z" transform="translate(-31.12 -26.53)"/><path d="M193.9,91.95a.48.48,0,0,1-.54.54h-1.8a.48.48,0,0,1-.54-.54l-.54-4.63h-10l-.54,4.63a.48.48,0,0,1-.54.54h-1.8a.48.48,0,0,1-.54-.54V85.58a.48.48,0,0,1,.54-.54H178q.38,0,.67-.5a4.13,4.13,0,0,0,.37-1.65l1.33-14.62q.08-.54.57-.54h10.32a.48.48,0,0,1,.54.54V84.87h1.52a.48.48,0,0,1,.54.54Zm-5.5-7.08V70.17h-4.82L182.5,83.07a3.67,3.67,0,0,1-.23,1,4.77,4.77,0,0,1-.42.83Z" transform="translate(-31.12 -26.53)"/><path d="M204.88,87.65a11.24,11.24,0,0,1-3.8-.63,8.27,8.27,0,0,1-3-1.89A8.81,8.81,0,0,1,196,82a13.84,13.84,0,0,1,0-8.9,8.82,8.82,0,0,1,2-3.16,8.28,8.28,0,0,1,3-1.89,11.83,11.83,0,0,1,7.6,0,8.29,8.29,0,0,1,3,1.89,8.82,8.82,0,0,1,2,3.16,13.85,13.85,0,0,1,0,8.9,8.81,8.81,0,0,1-2,3.16,8.28,8.28,0,0,1-3,1.89A11.24,11.24,0,0,1,204.88,87.65Zm0-2.59a6.73,6.73,0,0,0,2.31-.39,4.84,4.84,0,0,0,1.92-1.29A6.32,6.32,0,0,0,210.42,81a13.18,13.18,0,0,0,0-7,6.42,6.42,0,0,0-1.29-2.34,4.71,4.71,0,0,0-1.92-1.29,7.07,7.07,0,0,0-4.66,0,4.72,4.72,0,0,0-1.92,1.29A6.42,6.42,0,0,0,199.34,74a13.18,13.18,0,0,0,0,7,6.31,6.31,0,0,0,1.31,2.34,4.83,4.83,0,0,0,1.92,1.29A6.73,6.73,0,0,0,204.88,85.06Z" transform="translate(-31.12 -26.53)"/><path d="M217.48,87.32a.48.48,0,0,1-.54-.54V68.26a.48.48,0,0,1,.54-.54h10.43a.48.48,0,0,1,.54.54v1.36a.48.48,0,0,1-.54.54h-7.54v4.93h3.27a6.66,6.66,0,0,1,2.74.52A5.81,5.81,0,0,1,228.31,77a5.51,5.51,0,0,1,1.16,1.95,6.92,6.92,0,0,1,.38,2.27,6.11,6.11,0,0,1-.48,2.42,6,6,0,0,1-3.29,3.24,6.43,6.43,0,0,1-2.46.46ZM222.71,85a4.47,4.47,0,0,0,1.84-.33,2.9,2.9,0,0,0,1.13-.86,3.17,3.17,0,0,0,.57-1.23,6.1,6.1,0,0,0,.16-1.4,5.51,5.51,0,0,0-.18-1.39,3.17,3.17,0,0,0-1.76-2.11,4.08,4.08,0,0,0-1.77-.34h-2.34V85Z" transform="translate(-31.12 -26.53)"/><path d="M232.84,87.32a.48.48,0,0,1-.54-.54V68.26a.48.48,0,0,1,.54-.54H238a7.32,7.32,0,0,1,2.83.53A6.73,6.73,0,0,1,243,69.7a6.63,6.63,0,0,1,1.44,2.18,6.93,6.93,0,0,1,.52,2.67,6.76,6.76,0,0,1-.52,2.63A6.65,6.65,0,0,1,243,79.34a6.86,6.86,0,0,1-2.22,1.47,7.18,7.18,0,0,1-2.82.54h-2.29v5.42a.48.48,0,0,1-.54.54Zm4.63-8.41a4.08,4.08,0,0,0,3.06-1.08,5.64,5.64,0,0,0,0-6.55,4.16,4.16,0,0,0-3.06-1.11h-1.74v8.74Z" transform="translate(-31.12 -26.53)"/><path d="M256.8,87.65A11.24,11.24,0,0,1,253,87a8.27,8.27,0,0,1-3-1.89,8.81,8.81,0,0,1-2-3.16,13.84,13.84,0,0,1,0-8.9,8.82,8.82,0,0,1,2-3.16A8.28,8.28,0,0,1,253,68a11.83,11.83,0,0,1,7.6,0,8.29,8.29,0,0,1,3,1.89,8.83,8.83,0,0,1,2,3.16,13.84,13.84,0,0,1,0,8.9,8.82,8.82,0,0,1-2,3.16,8.27,8.27,0,0,1-3,1.89A11.24,11.24,0,0,1,256.8,87.65Zm0-2.59a6.73,6.73,0,0,0,2.31-.39A4.83,4.83,0,0,0,261,83.37,6.32,6.32,0,0,0,262.34,81a13.21,13.21,0,0,0,0-7A6.43,6.43,0,0,0,261,71.66a4.71,4.71,0,0,0-1.92-1.29,7.07,7.07,0,0,0-4.66,0,4.71,4.71,0,0,0-1.92,1.29A6.42,6.42,0,0,0,251.26,74a13.17,13.17,0,0,0,0,7,6.3,6.3,0,0,0,1.31,2.34,4.83,4.83,0,0,0,1.92,1.29A6.73,6.73,0,0,0,256.8,85.06Z" transform="translate(-31.12 -26.53)"/><path d="M267.06,65.26a.48.48,0,0,1-.54-.54V62.81a.48.48,0,0,1,.54-.54H269a.48.48,0,0,1,.54.54v1.91a.48.48,0,0,1-.54.54Zm2.34,22.05a.48.48,0,0,1-.54-.54V68.26a.48.48,0,0,1,.54-.54h2.34a.48.48,0,0,1,.54.54V86.77a.48.48,0,0,1-.54.54Zm2.83-22.05a.48.48,0,0,1-.54-.54V62.81a.48.48,0,0,1,.54-.54h1.91a.48.48,0,0,1,.54.54v1.91a.48.48,0,0,1-.54.54Z" transform="translate(-31.12 -26.53)"/><path d="M283.72,87.32a.48.48,0,0,1-.54-.54V68.26a.48.48,0,0,1,.54-.54h4a8.46,8.46,0,0,1,5,1.33,4.45,4.45,0,0,1,1.85,3.84,4.39,4.39,0,0,1-.67,2.48A4.62,4.62,0,0,1,292.06,77V77a4.54,4.54,0,0,1,3,1.58,4.86,4.86,0,0,1,1,3.13,5.1,5.1,0,0,1-.48,2.21,5.58,5.58,0,0,1-1.32,1.77,6.09,6.09,0,0,1-2,1.18,7,7,0,0,1-2.46.42Zm4.52-11.14a3,3,0,0,0,1.14-.22,2.71,2.71,0,0,0,1-.64,3,3,0,0,0,.64-1,3.78,3.78,0,0,0,.23-1.36,2.84,2.84,0,0,0-.83-2.14,3.72,3.72,0,0,0-2.65-.8h-1.12v6.18ZM289,85a5,5,0,0,0,1.84-.29,3,3,0,0,0,1.13-.74,2.54,2.54,0,0,0,.57-1,4.47,4.47,0,0,0,.16-1.21,4.07,4.07,0,0,0-.18-1.18,2.74,2.74,0,0,0-.61-1.06,3.1,3.1,0,0,0-1.14-.76,4.76,4.76,0,0,0-1.77-.29h-2.34V85Z" transform="translate(-31.12 -26.53)"/><path d="M307.87,87.65a11.24,11.24,0,0,1-3.8-.63,8.27,8.27,0,0,1-3-1.89A8.81,8.81,0,0,1,299,82a13.84,13.84,0,0,1,0-8.9,8.82,8.82,0,0,1,2-3.16,8.29,8.29,0,0,1,3-1.89,11.83,11.83,0,0,1,7.6,0,8.29,8.29,0,0,1,3,1.89,8.83,8.83,0,0,1,2,3.16,13.84,13.84,0,0,1,0,8.9,8.82,8.82,0,0,1-2,3.16,8.27,8.27,0,0,1-3,1.89A11.24,11.24,0,0,1,307.87,87.65Zm0-2.59a6.73,6.73,0,0,0,2.31-.39,4.83,4.83,0,0,0,1.92-1.29A6.32,6.32,0,0,0,313.42,81a13.21,13.21,0,0,0,0-7,6.43,6.43,0,0,0-1.29-2.34,4.71,4.71,0,0,0-1.92-1.29,7.07,7.07,0,0,0-4.66,0,4.71,4.71,0,0,0-1.92,1.29A6.42,6.42,0,0,0,302.33,74a13.18,13.18,0,0,0,0,7,6.29,6.29,0,0,0,1.31,2.34,4.82,4.82,0,0,0,1.92,1.29A6.73,6.73,0,0,0,307.87,85.06Z" transform="translate(-31.12 -26.53)"/><path d="M330.5,87.32a.48.48,0,0,1-.54-.54V70.17h-5l-1.23,12.91a6,6,0,0,1-1.08,3.19,3.45,3.45,0,0,1-2.85,1.06h-.46a.48.48,0,0,1-.54-.54v-1.2a.48.48,0,0,1,.54-.54h.19q.38,0,.64-.5a5.24,5.24,0,0,0,.39-1.65L322,68.26a.51.51,0,0,1,.57-.54h10.32a.48.48,0,0,1,.54.54V86.77a.48.48,0,0,1-.54.54Z" transform="translate(-31.12 -26.53)"/><path d="M336.65,87.32a.48.48,0,0,1-.54-.54V68.26a.48.48,0,0,1,.54-.54H339a.48.48,0,0,1,.55.54V86.77a.48.48,0,0,1-.55.54Z" transform="translate(-31.12 -26.53)"/><rect class="cls-67" x="222.3" y="173.81" width="9.54" height="1.17"/><path class="cls-68" d="M266.35,201a1.76,1.76,0,0,1,0,.18c0,.06,0,.11,0,.18a1.92,1.92,0,0,1,0,.2,2.13,2.13,0,0,1-.2.51l-.16.29-12.65,22.88a2.09,2.09,0,0,1-3.66-2L260,204.51l-13.51,3.85a2.08,2.08,0,0,1-2-.53l-.19-.2a1.5,1.5,0,0,1-.14-.2l-.08-.16a2,2,0,0,1-.23-.83,2.09,2.09,0,0,1,.26-1.12l12.81-23.17a2.09,2.09,0,0,1,3.66,2L250.12,203l13.19-3.76.39-.11a2.1,2.1,0,0,1,2.58,1.44A2,2,0,0,1,266.35,201Z" transform="translate(-31.12 -26.53)"/><rect class="cls-69" x="240.14" y="230.96" width="35.22" height="4.18" rx="2" ry="2" transform="translate(-107.73 301.14) rotate(-57.92)"/><rect class="cls-69" x="240.14" y="244.42" width="35.22" height="4.18" rx="2" ry="2" transform="translate(-119.14 307.46) rotate(-57.92)"/></svg>