<?xml version="1.0" encoding="utf-8"?>
<!-- Generator: Adobe Illustrator 21.0.0, SVG Export Plug-In . SVG Version: 6.00 Build 0)  -->
<svg version="1.1" id="Слой_1" xmlns="http://www.w3.org/2000/svg" xmlns:xlink="http://www.w3.org/1999/xlink" x="0px" y="0px"
	 viewBox="0 0 463.4 456.9" style="enable-background:new 0 0 463.4 456.9;" xml:space="preserve">
<style type="text/css">
	.st0{fill:#CE4D56;stroke:#000000;stroke-width:0.25;stroke-miterlimit:10;}
	.st1{fill:url(#SVGID_1_);stroke:#000000;stroke-width:0.25;stroke-miterlimit:10;}
	.st2{fill:url(#SVGID_2_);stroke:#000000;stroke-width:0.25;stroke-miterlimit:10;}
	.st3{fill:none;stroke:#000000;stroke-miterlimit:10;}
	.st4{fill:url(#SVGID_3_);stroke:#000000;stroke-width:0.25;stroke-miterlimit:10;}
	.st5{fill:#CC6666;stroke:#000000;stroke-width:0.25;stroke-miterlimit:10;}
	.st6{fill:url(#SVGID_4_);stroke:#000000;stroke-width:0.25;stroke-miterlimit:10;}
	.st7{fill:url(#SVGID_5_);stroke:#000000;stroke-width:0.25;stroke-miterlimit:10;}
	.st8{fill:url(#SVGID_6_);stroke:#000000;stroke-width:0.25;stroke-miterlimit:10;}
	.st9{fill:url(#SVGID_7_);stroke:#000000;stroke-width:0.25;stroke-miterlimit:10;}
	.st10{opacity:0.8;fill:#FFFF00;stroke:#000000;stroke-width:0.25;stroke-miterlimit:10;enable-background:new    ;}
	.st11{opacity:0.8;fill:#3FA9F5;stroke:#000000;stroke-width:0.25;stroke-miterlimit:10;enable-background:new    ;}
	.st12{font-family:'GOSTTypeB';}
	.st13{font-size:32px;}
	.st14{letter-spacing:-2;}
</style>
<title>logo</title>
<polygon class="st0" points="231.9,421.6 443.6,70.6 20.1,70.6 "/>
<linearGradient id="SVGID_1_" gradientUnits="userSpaceOnUse" x1="246.0025" y1="182.6716" x2="300.8172" y2="182.6716" gradientTransform="matrix(1 0 0 -1 0.13 458.13)">
	<stop  offset="0" style="stop-color:#42210B"/>
	<stop  offset="1" style="stop-color:#8C6239"/>
</linearGradient>
<path class="st1" d="M295.6,260.6c-1.1-1.5-2.2-3.1-3.3-4.7c-1.6-2.2-3.1-4.3-4.7-6.3l1.1,1.5c-3.1-4.5-7.3-8-12.2-10.3
	c-3.5-1.6-7.2-2.5-11-2.7c1.2,0.9,11,8.6,10.1,19.2c-0.2,2.1-0.8,4.1-1.7,5.9l-24.6,25.7c-0.6,0.8-4.4,6.1-2.8,12.4
	s7.6,11.1,15,11.5c18.1,0.7,33.7-9.8,38.2-24.5s-4-27.5-5.3-29.5"/>
<linearGradient id="SVGID_2_" gradientUnits="userSpaceOnUse" x1="163.65" y1="181.6916" x2="218.4646" y2="181.6916" gradientTransform="matrix(1 0 0 -1 0.13 458.13)">
	<stop  offset="0" style="stop-color:#8C6239"/>
	<stop  offset="1" style="stop-color:#42210B"/>
</linearGradient>
<path class="st2" d="M169.1,261.6c1.1-1.5,2.2-3.1,3.3-4.7c1.6-2.2,3.1-4.3,4.7-6.3l-1.1,1.5c3.1-4.5,7.3-8,12.2-10.3
	c3.5-1.6,7.2-2.5,11-2.7c-1.2,0.9-11,8.6-10.1,19.2c0.2,2.1,0.8,4.1,1.7,5.9l24.7,25.7c0.6,0.8,4.4,6.1,2.8,12.4s-7.6,11.1-15,11.5
	c-18.1,0.7-33.7-9.8-38.2-24.5s4-27.5,5.3-29.5"/>
<line class="st3" x1="20.6" y1="70.6" x2="0.6" y2="70.6"/>
<linearGradient id="SVGID_3_" gradientUnits="userSpaceOnUse" x1="221.8934" y1="331.73" x2="242" y2="331.73" gradientTransform="matrix(1 0 0 -1 0.13 458.13)">
	<stop  offset="0" style="stop-color:#999999"/>
	<stop  offset="0.13" style="stop-color:#888888"/>
	<stop  offset="0.36" style="stop-color:#6F6F6F"/>
	<stop  offset="0.5" style="stop-color:#666666"/>
	<stop  offset="0.82" style="stop-color:#8A8A8A"/>
	<stop  offset="1" style="stop-color:#999999"/>
</linearGradient>
<path class="st4" d="M242.1,131.1l-10-52.5l-10,52.5c-0.4,4.2,0.3,8.4,2,12.2c1.4,3.1,3.3,5.9,5.6,8.3c-1.7,6.9-2.6,13.9-2.7,21
	c0,0.5,0,1,0,1.5l0.1-0.4h10l0.1,0.4c0-0.5,0-1,0-1.5c-0.1-7.1-1-14.2-2.7-21.1c2.3-2.4,4.2-5.2,5.5-8.2c1.7-3.8,2.4-8,2-12.2
	L242.1,131.1z"/>
<path class="st5" d="M201.1,306.3c5.3-2.3,6.9-4.9,7.4-6.8c2.4-8.2-10.5-21-32.5-32.3c-8.2,10.9-6,26.4,5,34.6
	C186.8,306.2,194.1,307.8,201.1,306.3L201.1,306.3z"/>
<linearGradient id="SVGID_4_" gradientUnits="userSpaceOnUse" x1="107.9325" y1="279.1491" x2="123.9682" y2="290.3761" gradientTransform="matrix(1 0 0 -1 0.13 458.13)">
	<stop  offset="0" style="stop-color:#E6E6E6"/>
	<stop  offset="1" style="stop-color:#808080"/>
</linearGradient>
<path class="st6" d="M169.1,261.6c1.1-1.5,2.2-3.1,3.3-4.7c1.6-2.2,3.1-4.3,4.7-6.3l-1.1,1.5c-20.9-24.4-40.3-50.1-58.2-76.9
	c-19.6-29.4-37.2-60-52.7-91.7c9.7,28.5,21.9,56.1,36.7,82.3c19,33.9,42,65.4,68.5,93.9"/>
<path class="st5" d="M263.6,305.3c-5.3-2.3-6.9-4.9-7.5-6.8c-2.4-8.2,10.5-21,32.5-32.3c8.2,10.9,6,26.4-5,34.6
	C278,305.2,270.6,306.8,263.6,305.3L263.6,305.3z"/>
<linearGradient id="SVGID_5_" gradientUnits="userSpaceOnUse" x1="287.5" y1="286.52" x2="399.45" y2="286.52" gradientTransform="matrix(1 0 0 -1 0.13 458.13)">
	<stop  offset="0" style="stop-color:#E6E6E6"/>
	<stop  offset="1" style="stop-color:#808080"/>
</linearGradient>
<path class="st7" d="M295.6,260.6c-1.1-1.5-2.2-3.1-3.3-4.7c-1.6-2.2-3.1-4.3-4.7-6.3l1.1,1.5c20.9-24.4,40.3-50.1,58.2-76.8
	c19.6-29.4,37.2-60,52.7-91.7c-9.7,28.5-21.9,56.1-36.7,82.3c-19,33.9-42,65.4-68.5,93.8"/>
<linearGradient id="SVGID_6_" gradientUnits="userSpaceOnUse" x1="227.13" y1="160.37" x2="237.13" y2="160.37" gradientTransform="matrix(1 0 0 -1 0 458)">
	<stop  offset="0" style="stop-color:#C69C6D"/>
	<stop  offset="0.3" style="stop-color:#AF855A"/>
	<stop  offset="0.5" style="stop-color:#A67C52"/>
	<stop  offset="0.82" style="stop-color:#845B32"/>
	<stop  offset="1" style="stop-color:#754C24"/>
</linearGradient>
<polygon class="st8" points="227.1,413.4 227.1,173.6 237.1,173.6 237.1,413.3 232.1,421.6 "/>
<radialGradient id="SVGID_7_" cx="231.63" cy="194.37" r="213.1212" gradientTransform="matrix(1 0 0 -1 0 458)" gradientUnits="userSpaceOnUse">
	<stop  offset="0" style="stop-color:#E6E6E6"/>
	<stop  offset="1" style="stop-color:#4D4D4D"/>
</radialGradient>
<polyline class="st9" points="20.1,70.6 232.1,421.6 443.1,70.6 463.1,70.6 232.1,456.6 0.1,70.6 "/>
<rect x="0.1" y="35.5" class="st10" width="463" height="35.2"/>
<rect x="0.1" y="0.1" class="st11" width="463" height="35.3"/>
<text transform="matrix(1 0 0 1 178.75 27.89)" class="st12 st13">К</text>
<text transform="matrix(1 0 0 1 195.14 27.89)" class="st12 st13">ОРПУС</text>
<text transform="matrix(1 0 0 1 128.69 63.14)" class="st12 st13">«</text>
<text transform="matrix(1 0 0 1 146.19 63.14)" class="st12 st13">Д</text>
<text transform="matrix(1 0 0 1 164.89 63.14)" class="st12 st13">ОБРОЇ В</text>
<text transform="matrix(1 0 0 1 275.58 63.14)" class="st12 st13 st14">О</text>
<text transform="matrix(1 0 0 1 292.64 63.14)" class="st12 st13">ЛІ»</text>
</svg>
