<?xml version="1.0" encoding="iso-8859-1"?>
<!-- Generator: Adobe Illustrator 19.0.0, SVG Export Plug-In . SVG Version: 6.00 Build 0)  -->
<svg version="1.1" id="Layer_1" xmlns="http://www.w3.org/2000/svg" xmlns:xlink="http://www.w3.org/1999/xlink" x="0px" y="0px"
	 viewBox="0 0 512.001 512.001" style="enable-background:new 0 0 512.001 512.001;" xml:space="preserve">
<path style="fill:#FBCB99;" d="M347.855,98.863c0,1.889-0.055,3.764-0.178,5.625c-0.219,3.613-0.644,7.158-1.273,10.648
	c-1.383,7.747-3.736,15.165-6.939,22.104c-14.521,31.589-46.453,53.529-83.503,53.529c-37.871,0-70.391-22.898-84.446-55.609
	c-2.738-6.351-4.777-13.071-6.008-20.065c-0.616-3.449-1.041-6.953-1.259-10.526c-0.137-1.889-0.192-3.791-0.192-5.707
	c0-50.75,41.142-91.906,91.906-91.906C306.713,6.957,347.855,48.113,347.855,98.863z"/>
<path style="fill:#EAA96E;" d="M346.405,115.137c-1.383,7.747-3.736,15.165-6.939,22.104c-76.81,0.411-110.41-33.724-110.41-33.724
	c-17.451,16.999-39.979,26.47-57.538,31.644c-2.738-6.351-4.777-13.071-6.008-20.065c7.705-42.948,45.275-75.55,90.456-75.55
	C301.143,39.545,338.712,72.174,346.405,115.137z"/>
<path style="fill:#694B4B;" d="M347.855,98.863c0,1.889-0.055,3.764-0.178,5.625c-82.626,2.997-118.622-33.56-118.622-33.56
	c-5.174,5.036-10.785,9.416-16.588,13.207c-16.602,10.881-34.723,17.04-48.219,20.434c-0.137-1.889-0.192-3.791-0.192-5.707
	c0-50.75,41.142-91.906,91.906-91.906c32.766,0,61.535,17.163,77.796,42.99C342.695,64.113,347.855,80.879,347.855,98.863z"/>
<path style="fill:#563939;" d="M347.855,98.863c0,1.889-0.055,3.764-0.178,5.625c-82.626,2.997-118.622-33.56-118.622-33.56
	c-5.174,5.036-10.785,9.416-16.588,13.207c16.082-26.716,45.358-44.592,78.808-44.592c15.329,0,29.782,3.75,42.484,10.402
	C342.695,64.113,347.855,80.879,347.855,98.863z"/>
<path style="fill:#3C6F99;" d="M397.211,316.652H115.788c7.724-70.891,67.766-126.059,140.711-126.059
	S389.488,245.76,397.211,316.652z"/>
<path style="fill:#6598CB;" d="M388.889,316.652H124.113c20.253-53.399,71.884-91.361,132.388-91.361
	S368.635,263.252,388.889,316.652z"/>
<path style="fill:#EAA96E;" d="M304.23,200.753l-15.526,17.757l-33.215,37.971l-35.868-36.035l-19.605-19.693
	C258.672,172.57,304.23,200.753,304.23,200.753z"/>
<path style="fill:#FBCB99;" d="M288.703,218.51l-33.215,37.971l-35.868-36.035C248.246,210.806,272.715,213.911,288.703,218.51z"/>
<polygon style="fill:#C62E1E;" points="504.885,336.001 488.16,352.736 468.88,372.007 447.79,350.918 431.999,366.7 
	346.584,280.518 328.001,261.768 379.347,210.452 "/>
<path style="fill:#EF4C35;" d="M488.16,352.736l-19.28,19.271l-21.089-21.089L431.999,366.7l-85.415-86.182l0,0
	c19.16-19.149,50.213-19.145,69.368,0.01L488.16,352.736z"/>
<polygon style="fill:#C62E1E;" points="7.727,336.001 24.452,352.736 43.733,372.007 64.821,350.918 80.613,366.7 166.028,280.518 
	184.611,261.768 133.266,210.452 "/>
<path style="fill:#EF4C35;" d="M24.452,352.736l19.28,19.271l21.089-21.089L80.613,366.7l85.415-86.182l0,0
	c-19.16-19.149-50.213-19.145-69.368,0.01L24.452,352.736z"/>
<polygon style="fill:#FBCB99;" points="368.4,389.43 386.618,407.639 385.379,408.877 370.1,424.158 306.716,487.551 
	296.977,477.813 275.398,499.393 253.543,477.547 227.934,503.166 209.41,484.642 205.037,489.025 128.102,412.09 145.859,394.333 
	98.396,346.879 177.728,259.803 330.301,259.803 414.162,343.676 "/>
<g>
	<path style="fill:#EAA96E;" d="M209.012,267.379l-55.813,55.813c-10.573,10.573-10.573,27.715,0,38.288l14.51,14.51l-21.413,21.413
		l-50.128-50.128l83.974-83.974L209.012,267.379z"/>
	<path style="fill:#EAA96E;" d="M349.667,371.254l5.602-5.602c13.069-13.069,13.069-34.257,0-47.325l-51.043-51.043l26.012-6.036
		l84.515,84.514l-46.244,46.244L349.667,371.254z"/>
	<path style="fill:#EAA96E;" d="M169.909,449.636l17.525-17.525c6.486-6.486,6.486-17.001,0-23.486l0,0l7.619-7.619l21.61,21.61
		l-36.439,36.439L169.909,449.636z"/>
	<path style="fill:#EAA96E;" d="M194.8,474.527l17.525-17.525c6.486-6.486,6.486-17.001,0-23.486l0,0l7.619-7.619l21.61,21.61
		l-36.439,36.439L194.8,474.527z"/>
	<path style="fill:#EAA96E;" d="M146.279,426.007l17.525-17.525c6.486-6.486,6.486-17.001,0-23.486l0,0l7.619-7.619l21.61,21.61
		l-36.439,36.439L146.279,426.007z"/>
	<path style="fill:#EAA96E;" d="M318.98,460.066l-8.12,8.166l-30.481-30.481c-4.475-4.475-4.415-11.75,0.134-16.151l0,0
		c0,0,11.687,3.701,12.209,3.831C293.245,425.564,318.98,460.066,318.98,460.066z"/>
	<path style="fill:#EAA96E;" d="M307.293,394.823L307.293,394.823c-5.074,5.074-5.074,13.299,0,18.372l31.253,31.253l13.97-13.97
		l-36.417-36.417L307.293,394.823z"/>
	<path style="fill:#EAA96E;" d="M220.581,489.102l12.298-12.297c3.693-3.693,3.693-9.68,0-13.372l0,0l19.342-19.342l34.864,34.864
		l-16.597,16.597l-17.193-17.193l-21.611,21.611L220.581,489.102z"/>
	<path style="fill:#EAA96E;" d="M232.438,288.321L232.438,288.321c6.303,6.303,6.303,16.523,0,22.827l-27.446,27.446l-16.976-16.976
		l30.607-30.607"/>
	<path style="fill:#EAA96E;" d="M385.379,408.877l-15.281,15.281l-57.851-57.859c-10.251-10.253-26.875-10.253-37.127-0.001
		l-10.774,10.774c-10.25,10.25-26.868,10.252-37.121,0.005l0,0l-4.648-4.648l63.177-63.177L385.379,408.877z"/>
</g>
<path d="M358.443,222.736c-17.631-16.448-38.939-28.369-61.918-34.892c33.693-15.57,57.133-49.683,57.133-89.172
	c0-54.133-44.04-98.174-98.173-98.174c-54.133,0-98.174,44.041-98.174,98.174c0,39.443,23.385,73.523,57.016,89.117
	c-22.777,6.433-43.821,18.206-61.523,34.678l-20.322-20.322L0,334.627l43.065,43.065l18.767-18.766l16.157,16.157l19.516-19.515
	l39.644,39.644l-17.779,17.779l35.517,35.545l0.01-0.01l25.194,25.215l0.01-0.01l24.287,24.306l5.65-5.65l19.102,19.117
	l22.708-22.708l21.372,21.371l21.424-21.425l8.253,8.252l31.451-31.45l0,0l26.505-26.504l0,0l31.99-31.991l-15.392-15.393
	l35.895-35.894l19.75,19.751l16.038-16.038l18.766,18.767l43.066-43.066L378.486,202.693L358.443,222.736z M310.19,208.375
	c13.818,6.07,26.635,14.423,37.828,24.787l-21.265,21.265h-56.734L310.19,208.375z M255.484,248.666l-39.996-45.85
	c12.81-3.926,26.26-5.97,39.996-5.97c13.638,0,27.094,2.084,39.935,6.039L255.484,248.666z M255.484,15.238
	c46.005,0,83.432,37.429,83.432,83.433c0,0.284-0.019,0.564-0.022,0.848c-55.308-1.464-88.253-19.992-101.196-29.097
	c6.169-7.421,8.846-12.775,9.128-13.358l-13.262-6.434c-0.152,0.314-14.872,29.67-61.469,46.224
	C173.07,51.688,210.088,15.238,255.484,15.238z M173.141,112.075c25.302-8.332,42.723-20.237,54.247-30.85
	c13.526,10.054,49.006,31.183,110.051,32.999c-7.31,38.595-41.268,67.88-81.956,67.88
	C214.043,182.106,179.575,151.729,173.141,112.075z M200.715,208.304l40.233,46.124h-56.185l-21.535-21.534
	C174.423,222.559,187.084,214.3,200.715,208.304z M92.558,339.726l-0.028-0.028l-14.539,14.54l-5.734-5.734l62.442-62.444
	l-10.424-10.421l-67.653,67.653l0,0l-13.555,13.554l-22.221-22.22l111.636-111.635l38.405,38.406L92.558,339.726z M154.892,427.687
	l-14.679-14.691l31.365-31.365l14.685,14.685L154.892,427.687z M179.285,452.079L165.416,438.2l31.365-31.365l13.874,13.874
	L179.285,452.079z M203.57,476.364l-13.045-13.057l31.365-31.365l13.051,13.052L203.57,476.364z M229.147,490.655l-8.684-8.691
	l20.078-20.078l8.687,8.687L229.147,490.655z M273.222,489.321l-10.948-10.949l7.8-7.8l-19.11-19.11l3.201-3.201l7.09,7.09
	l-0.069,0.069l22.967,22.968L273.222,489.321z M367.03,381.233l-82.405-82.404l-57.399,57.399l-31.348-31.348l36.56-36.559
	l-10.423-10.423l-46.982,46.982l52.194,52.193l57.399-57.399l64.406,64.406l22.967,22.968l-15.816,15.816l-38.466-38.466
	l-10.423,10.423l38.466,38.465l-16.356,16.357l-38.466-38.466l-10.423,10.423l38.466,38.465l-16.082,16.082l-38.465-38.465
	l-7.979,7.979l-24.142-24.142l0,0l-25.203-25.203l-10.328-10.328l-25.202-25.204l-24.003,24.003l-39.617-39.616l76.005-76.005
	h142.792l76.171,76.171L367.03,381.233z M467.902,357.396l-13.554-13.555l0,0l-67.655-67.653l-10.421,10.423l62.441,62.441
	l-5.615,5.615l-9.327-9.328l0,0l-83.54-83.54l38.257-38.259l111.635,111.636L467.902,357.396z"/>
<rect id="SVGCleanerId_0" x="361.892" y="260.564" transform="matrix(0.7071 0.7071 -0.7071 0.7071 297.2448 -181.7444)" width="12.23" height="14.74"/>
<rect x="136.833" y="260.023" transform="matrix(-0.7072 0.707 -0.707 -0.7072 433.092 355.4298)" width="12.232" height="14.74"/>
<rect id="SVGCleanerId_1" x="497.261" y="79.668" width="14.74" height="16.047"/>
<rect id="SVGCleanerId_2" x="443.203" y="109.719" width="14.74" height="16.047"/>
<rect id="SVGCleanerId_3" x="400.928" y="45.824" width="14.74" height="16.048"/>
<rect id="SVGCleanerId_4" x="443.203" y="14.889" width="14.74" height="16.048"/>
<rect id="SVGCleanerId_5" x="368.853" y="133.107" width="14.74" height="16.048"/>
<rect id="SVGCleanerId_6" x="441.768" y="182.742" width="14.74" height="16.047"/>
<rect id="SVGCleanerId_7" x="1.001" y="79.668" width="14.74" height="16.047"/>
<rect id="SVGCleanerId_8" x="55.06" y="109.719" width="14.74" height="16.047"/>
<rect id="SVGCleanerId_9" x="97.335" y="45.824" width="14.74" height="16.048"/>
<rect id="SVGCleanerId_10" x="55.06" y="14.889" width="14.74" height="16.048"/>
<rect id="SVGCleanerId_11" x="129.41" y="133.107" width="14.74" height="16.048"/>
<rect id="SVGCleanerId_12" x="56.495" y="182.742" width="14.74" height="16.047"/>
<path d="M358.443,222.736c-17.631-16.448-38.939-28.369-61.918-34.892c33.693-15.57,57.133-49.683,57.133-89.172
	c0-54.133-44.04-98.174-98.173-98.174c-54.133,0-98.174,44.041-98.174,98.174c0,39.443,23.385,73.523,57.016,89.117
	c-22.777,6.433-43.821,18.206-61.523,34.678l-20.322-20.322L0,334.627l43.065,43.065l18.767-18.766l16.157,16.157l19.516-19.515
	l39.644,39.644l-17.779,17.779l35.517,35.545l0.01-0.01l25.194,25.215l0.01-0.01l24.287,24.306l5.65-5.65l19.102,19.117
	l22.708-22.708l21.372,21.371l21.424-21.425l8.253,8.252l31.451-31.45l0,0l26.505-26.504l0,0l31.99-31.991l-15.392-15.393
	l35.895-35.894l19.75,19.751l16.038-16.038l18.766,18.767l43.066-43.066L378.486,202.693L358.443,222.736z M326.752,254.428h-56.734
	l40.171-46.052c13.818,6.07,26.635,14.423,37.828,24.787L326.752,254.428z M255.484,15.238c46.005,0,83.432,37.429,83.432,83.433
	c0,0.284-0.019,0.564-0.022,0.848c-55.308-1.464-88.253-19.992-101.196-29.097c6.169-7.421,8.846-12.775,9.128-13.358l-13.262-6.434
	c-0.152,0.314-14.872,29.67-61.469,46.224C173.07,51.688,210.088,15.238,255.484,15.238z M173.141,112.075
	c25.302-8.332,42.723-20.237,54.247-30.85c13.526,10.054,49.006,31.183,110.051,32.999c-7.31,38.595-41.268,67.88-81.956,67.88
	C214.043,182.106,179.575,151.729,173.141,112.075z M295.419,202.885l-39.936,45.782l-39.996-45.85
	c12.81-3.926,26.26-5.97,39.996-5.97C269.122,196.846,282.578,198.93,295.419,202.885z M200.715,208.304l40.233,46.124h-56.185
	l-21.535-21.534C174.423,222.559,187.084,214.3,200.715,208.304z M72.256,348.505l62.442-62.444l-10.424-10.421l-67.653,67.653l0,0
	l-13.555,13.554l-22.22-22.22l111.636-111.635l38.405,38.406l-78.329,78.329L92.53,339.7l-14.539,14.54L72.256,348.505z
	 M171.578,381.631l14.685,14.685l-31.371,31.37l-14.679-14.691L171.578,381.631z M196.781,406.835l13.874,13.874l-31.37,31.37
	L165.415,438.2L196.781,406.835z M221.889,431.943l13.051,13.052l-31.37,31.369l-13.045-13.057L221.889,431.943z M220.463,481.965
	l20.078-20.078l8.687,8.687l-20.082,20.082L220.463,481.965z M284.153,478.39l-10.93,10.931l-10.948-10.949l7.8-7.8l-19.11-19.11
	l3.201-3.201l7.09,7.09l-0.069,0.069L284.153,478.39z M367.03,381.233l-82.405-82.404l-57.399,57.399l-31.348-31.348l36.56-36.559
	l-10.423-10.423l-46.982,46.982l52.194,52.193l57.399-57.399l64.406,64.406l22.967,22.968l-15.816,15.816l-38.466-38.466
	l-10.423,10.423l38.466,38.465l-16.356,16.357l-38.466-38.466l-10.423,10.423l38.466,38.465l-16.082,16.082l-38.465-38.465
	l-7.979,7.979l-24.142-24.142l0,0l-25.203-25.203l-10.328-10.328l-25.202-25.204l-24.003,24.003l-39.617-39.616l76.005-76.005
	h142.792l76.171,76.171L367.03,381.233z M467.902,357.396l-13.554-13.555l0,0l-67.655-67.653l-10.421,10.423l62.441,62.441
	l-5.615,5.615l-9.327-9.328l0,0l-83.54-83.54l38.257-38.259l111.635,111.636L467.902,357.396z"/>
<g>
	
		<rect id="SVGCleanerId_0_1_" x="361.892" y="260.564" transform="matrix(0.7071 0.7071 -0.7071 0.7071 297.2448 -181.7444)" width="12.23" height="14.74"/>
</g>
<rect x="135.571" y="261.245" transform="matrix(-0.707 -0.7072 0.7072 -0.707 54.9222 557.4774)" width="14.74" height="12.232"/>
<g>
	<rect id="SVGCleanerId_1_1_" x="497.261" y="79.668" width="14.74" height="16.047"/>
</g>
<g>
	<rect id="SVGCleanerId_2_1_" x="443.203" y="109.719" width="14.74" height="16.047"/>
</g>
<g>
	<rect id="SVGCleanerId_3_1_" x="400.928" y="45.824" width="14.74" height="16.048"/>
</g>
<g>
	<rect id="SVGCleanerId_4_1_" x="443.203" y="14.889" width="14.74" height="16.048"/>
</g>
<g>
	<rect id="SVGCleanerId_5_1_" x="368.853" y="133.107" width="14.74" height="16.048"/>
</g>
<g>
	<rect id="SVGCleanerId_6_1_" x="441.768" y="182.742" width="14.74" height="16.047"/>
</g>
<g>
	<rect id="SVGCleanerId_7_1_" x="1.001" y="79.668" width="14.74" height="16.047"/>
</g>
<g>
	<rect id="SVGCleanerId_8_1_" x="55.06" y="109.719" width="14.74" height="16.047"/>
</g>
<g>
	<rect id="SVGCleanerId_9_1_" x="97.335" y="45.824" width="14.74" height="16.048"/>
</g>
<g>
	<rect id="SVGCleanerId_10_1_" x="55.06" y="14.889" width="14.74" height="16.048"/>
</g>
<g>
	<rect id="SVGCleanerId_11_1_" x="129.41" y="133.107" width="14.74" height="16.048"/>
</g>
<g>
	<rect id="SVGCleanerId_12_1_" x="56.495" y="182.742" width="14.74" height="16.047"/>
</g>
<g>
</g>
<g>
</g>
<g>
</g>
<g>
</g>
<g>
</g>
<g>
</g>
<g>
</g>
<g>
</g>
<g>
</g>
<g>
</g>
<g>
</g>
<g>
</g>
<g>
</g>
<g>
</g>
<g>
</g>
</svg>
