<?xml version="1.0" encoding="iso-8859-1"?>
<!-- Generator: Adobe Illustrator 19.0.0, SVG Export Plug-In . SVG Version: 6.00 Build 0)  -->
<svg version="1.1" id="Layer_1" xmlns="http://www.w3.org/2000/svg" xmlns:xlink="http://www.w3.org/1999/xlink" x="0px" y="0px"
	 viewBox="0 0 508 508" style="enable-background:new 0 0 508 508;" xml:space="preserve">
<circle style="fill:#324A5E;" cx="254" cy="254" r="254"/>
<polygon style="fill:#4CDBC4;" points="398,359.6 326.4,431.2 254.8,359.6 292.8,359.6 292.8,206.8 360,206.8 360,359.6 "/>
<circle style="fill:#FFD05B;" cx="240.8" cy="207.6" r="130.8"/>
<path style="fill:#FFFFFF;" d="M240.8,311.6c-57.2,0-103.6-46.4-103.6-103.6s46.4-103.6,103.6-103.6S344.4,150.8,344.4,208
	C344.4,264.8,298,311.6,240.8,311.6z"/>
<path style="fill:#FFD05B;" d="M245.6,254.4v14.4H236v-14c-9.2,0-17.6-2-25.2-6V230c2.4,2,6.4,4,11.6,6c5.2,1.6,9.6,2.8,13.6,3.2
	v-24.4c-10.4-4-17.6-8-21.2-12.8c-4-4.4-5.6-10-5.6-16.4c0-7.2,2.4-12.8,7.6-18c4.8-4.8,11.6-8,19.6-8.8v-12.4h9.6v12
	c9.6,0.4,16.4,2,21.2,4.4v18c-6.4-3.6-13.2-6-21.2-6.8v25.2c9.6,3.6,16.8,7.6,21.2,12s6.4,10,6.4,16.4c0,7.6-2.4,13.2-7.2,18
	C261.2,250.8,254.4,253.6,245.6,254.4z M235.6,195.6v-21.2c-6.4,1.2-9.2,4.4-9.2,9.6C226.4,188.8,229.6,192.8,235.6,195.6z
	 M245.6,218.4v20.4c6.4-0.8,9.6-4,9.6-9.6C255.2,224.8,252,221.2,245.6,218.4z"/>
<g>
</g>
<g>
</g>
<g>
</g>
<g>
</g>
<g>
</g>
<g>
</g>
<g>
</g>
<g>
</g>
<g>
</g>
<g>
</g>
<g>
</g>
<g>
</g>
<g>
</g>
<g>
</g>
<g>
</g>
</svg>
