<?xml version="1.0" encoding="iso-8859-1"?>
<!-- Generator: Adobe Illustrator 19.0.0, SVG Export Plug-In . SVG Version: 6.00 Build 0)  -->
<svg version="1.1" id="Layer_1" xmlns="http://www.w3.org/2000/svg" xmlns:xlink="http://www.w3.org/1999/xlink" x="0px" y="0px"
	 viewBox="0 0 512 512" style="enable-background:new 0 0 512 512;" xml:space="preserve">
<path style="fill:#27B5F7;" d="M213.864,319.12v20.353c0,6.799-4.088,12.932-10.365,15.549l-67.241,28.017
	c-14.206,5.92-23.459,22.008-23.459,37.397v81.092h286.352v-81.092c0-15.389-9.254-31.479-23.459-37.397l-67.242-28.016
	c-6.277-2.615-10.365-8.749-10.365-15.549v-20.353h-84.221V319.12z"/>
<path style="fill:#89CD37;" d="M353.078,501.527v-96.02c0-10.48,3.554-20.168,9.507-27.93l-54.134-22.555
	c-6.277-2.615-10.365-8.749-10.365-15.549l-0.094,37.531c0,23.082-18.885,41.966-41.966,41.966l0,0
	c-23.082,0-41.966-18.885-41.966-41.966l-0.195-37.531c0,6.799-4.088,12.932-10.365,15.549l-54.134,22.556
	c5.952,7.764,9.507,17.45,9.507,27.93v96.02h194.207V501.527z"/>
<path style="fill:#FEBBA0;" d="M350.006,199.165v-30.443c0-51.83-42.017-93.848-93.848-93.848
	c-51.831,0-93.848,42.017-93.848,93.848h-0.368v30.443c-12.925,0-23.403,10.478-23.403,23.403s10.478,23.403,23.403,23.403v17.472
	c1.126,14.735,8.311,27.853,19.192,35.038l56.575,32.343c11.36,7.503,25.173,7.503,36.533,0l56.405-32.343
	c10.879-7.185,18.233-20.303,19.36-35.038v-17.472c12.925,0,23.403-10.478,23.403-23.403
	C373.409,209.642,362.931,199.165,350.006,199.165z"/>
<path style="fill:#89CD37;" d="M256.026,33.46L256.026,33.46c-52.277,0-95.74,37.744-104.621,87.468
	c-2.903,16.255-7.3,32.206-13.708,47.423l-1.309,3.108h239.274l-1.309-3.108c-6.408-15.217-10.803-31.169-13.708-47.423
	C351.765,71.204,308.303,33.46,256.026,33.46z"/>
<circle style="fill:#3BBF6E;" cx="254.783" cy="112.202" r="20.222"/>
<path style="fill:#89CD37;" d="M443.285,380.016L443.285,380.016c-24.996,0-45.259-20.263-45.259-45.259v-29.768
	c0-24.996,20.263-45.259,45.259-45.259l0,0c24.996,0,45.259,20.263,45.259,45.259v29.768
	C488.543,359.752,468.282,380.016,443.285,380.016z"/>
<path d="M10.585,511.975h-0.137C4.678,511.975,0,507.298,0,501.527c0-5.77,4.678-10.448,10.448-10.448h0.137
	c5.77,0,10.448,4.678,10.448,10.448C21.033,507.298,16.355,511.975,10.585,511.975z"/>
<path d="M501.501,511.975h-0.137c-5.77,0-10.448-4.678-10.448-10.448c0-5.77,4.678-10.448,10.448-10.448h0.137
	c5.77,0,10.448,4.678,10.448,10.448C511.949,507.298,507.271,511.975,501.501,511.975z"/>
<path d="M294.077,235.476c-6.44,0-11.679-5.239-11.679-11.678c0-6.44,5.239-11.679,11.679-11.679c6.44,0,11.679,5.239,11.679,11.679
	C305.756,230.237,300.517,235.476,294.077,235.476z"/>
<path d="M217.872,235.476c-6.44,0-11.679-5.239-11.679-11.678c0-6.44,5.239-11.679,11.679-11.679s11.679,5.239,11.679,11.679
	C229.549,230.237,224.311,235.476,217.872,235.476z"/>
<path d="M254.782,142.875c-16.912,0-30.67-13.759-30.67-30.67s13.759-30.67,30.67-30.67s30.67,13.759,30.67,30.67
	S271.694,142.875,254.782,142.875z M254.782,102.43c-5.39,0-9.774,4.385-9.774,9.774c0,5.389,4.385,9.774,9.774,9.774
	s9.774-4.385,9.774-9.774C264.556,106.815,260.172,102.43,254.782,102.43z"/>
<path d="M276.675,271.794c0-5.77-4.678-10.448-10.448-10.448h-20.418c-5.77,0-10.448,4.678-10.448,10.448
	c0,11.39,9.267,20.658,20.658,20.658C267.409,292.452,276.675,283.184,276.675,271.794z"/>
<path d="M256.025,454.851c-5.77,0-10.448-4.678-10.448-10.448v-0.137c0-5.77,4.678-10.448,10.448-10.448
	c5.77,0,10.448,4.678,10.448,10.448v0.137C266.473,450.174,261.795,454.851,256.025,454.851z"/>
<path d="M205.527,449.627c-5.77,0-10.448-4.678-10.448-10.448v-0.137c0-5.77,4.678-10.448,10.448-10.448s10.448,4.678,10.448,10.448
	v0.137C215.974,444.95,211.297,449.627,205.527,449.627z"/>
<path d="M306.872,449.627c-5.77,0-10.448-4.678-10.448-10.448v-0.137c0-5.77,4.678-10.448,10.448-10.448
	c5.77,0,10.448,4.678,10.448,10.448v0.137C317.319,444.95,312.642,449.627,306.872,449.627z"/>
<path d="M501.552,309.425h-2.56v-4.437c0-11.801-3.7-22.749-9.985-31.768c8.982-5.346,15.016-15.148,15.016-26.338
	c0-16.891-13.742-30.632-30.633-30.632c-7.477,0-14.332,2.696-19.657,7.162v-17.749c0-5.77-4.678-10.448-10.448-10.448
	c-5.77,0-10.448,4.678-10.448,10.448v11.609c-39.369,5.139-69.876,38.874-69.876,79.622c0,5.77,4.678,10.448,10.448,10.448
	c5.77,0,10.448-4.678,10.448-10.448c0-29.203,21.179-53.535,48.98-58.49v11.874c-25.738,4.905-45.259,27.565-45.259,54.711v4.437
	h-4.963c-5.77,0-10.448,4.678-10.448,10.448c0,5.77,4.678,10.448,10.448,10.448h4.963v4.436c0,30.717,24.99,55.706,55.707,55.706
	s55.707-24.989,55.707-55.706v-4.436h2.56c5.77,0,10.448-4.678,10.448-10.448C512,314.103,507.322,309.425,501.552,309.425z
	 M473.39,237.146c5.369,0,9.737,4.368,9.737,9.736c0,5.369-4.368,9.737-9.737,9.737s-9.736-4.368-9.736-9.737
	C463.652,241.513,468.02,237.146,473.39,237.146z M408.474,304.988c0-19.195,15.617-34.811,34.811-34.811
	c19.195,0,34.811,15.617,34.811,34.811v4.437h-69.623V304.988z M478.096,334.757c0,19.195-15.617,34.81-34.811,34.81
	c-19.195,0-34.811-15.617-34.811-34.81v-4.436h69.623V334.757z"/>
<path d="M467.563,491.08h-57.964v-70.644c0-20.365-12.291-39.709-29.888-47.042l-67.241-28.016c-2.39-0.996-3.936-3.313-3.936-5.904
	v-16.27l27.31-15.659c0.19-0.109,0.377-0.225,0.561-0.346c13.674-9.03,22.654-25.091,24.02-42.961
	c0.021-0.264,0.03-0.531,0.03-0.796v-8.674c13.568-4.413,23.402-17.181,23.402-32.202s-9.835-27.788-23.402-32.202v-8.459h15.209
	c3.5,0,6.768-1.753,8.704-4.669c1.936-2.916,2.284-6.608,0.925-9.835l-1.309-3.107c-5.734-13.619-10.125-28.829-13.052-45.206
	c-9.944-55.672-58.269-96.079-114.905-96.079c-27.977,0-53.916,9.872-74.213,26.562c-15.42-17.046-36.685-27.947-59.484-30.522
	v-8.579c0-5.77-4.678-10.448-10.448-10.448c-5.77,0-10.448,4.678-10.448,10.448v8.584c-43.338,4.808-77.904,39.119-83.068,82.351
	h-7.866c-5.77,0-10.448,4.678-10.448,10.448c0,5.77,4.678,10.448,10.448,10.448h7.684c4.499,43.976,39.382,79.069,83.25,83.935v7
	c0,5.77,4.678,10.448,10.448,10.448c5.77,0,10.448-4.678,10.448-10.448v-6.98c3.751-0.415,7.456-1.045,11.1-1.895
	c-3.37,5.262-5.337,11.505-5.337,18.204c0,15.021,9.835,27.788,23.402,32.202v8.674c0,0.265,0.01,0.532,0.03,0.796
	c1.372,17.943,10.288,34.003,23.852,42.961c0.187,0.123,0.378,0.24,0.573,0.352l27.467,15.702v16.219
	c0,2.59-1.545,4.907-3.936,5.904l-8.052,3.355l-49.977-49.976c-2.234-2.234-5.228-3.237-8.15-3.024l-33.478-33.476
	c-1.959-1.959-4.617-3.06-7.388-3.06H63.481l-17.786-17.786l3.562-3.562c4.08-4.08,4.08-10.696,0-14.777
	c-4.08-4.079-10.696-4.079-14.777,0l-3.562,3.562l-13.032-13.031c-4.08-4.08-10.696-4.08-14.777,0c-4.08,4.08-4.08,10.696,0,14.777
	l98.762,98.762c-0.219,2.929,0.784,5.932,3.023,8.171l34.924,34.924l-7.581,3.158c-3.857,1.608-7.461,3.793-10.734,6.439
	c-0.021-0.032-0.041-0.06-0.062-0.092c-10.278,7.029-22.318,10.745-34.819,10.745c-10.527,0-20.932-2.703-30.09-7.818
	c-3.235-1.807-7.186-1.766-10.383,0.111c-3.196,1.875-5.159,5.304-5.159,9.011v44.603c0,4.522,2.909,8.53,7.206,9.932
	c12.389,4.043,25.317,6.093,38.426,6.093c5.257,0,10.514-0.347,15.727-1.012v39.674H44.386c-5.77,0-10.448,4.678-10.448,10.448
	s4.678,10.448,10.448,10.448h423.177c5.77,0,10.448-4.678,10.448-10.448S473.333,491.08,467.563,491.08z M101.433,185.196
	c-32.327-4.636-57.899-30.453-62.189-62.891h19.79c3.944,21.635,20.878,38.784,42.399,43.045V185.196z M101.433,143.779
	c-9.978-3.358-17.828-11.385-20.939-21.474h20.939V143.779z M101.433,101.409H81.027c3.413-9.34,10.958-16.701,20.407-19.882v19.882
	H101.433z M101.433,59.949c-20.994,4.156-37.629,20.575-42.093,41.461H39.45c4.899-31.696,30.179-56.745,61.983-61.304v19.844
	H101.433z M256.026,43.908c46.5,0,86.173,33.165,94.335,78.858c2.411,13.496,5.752,26.31,9.964,38.246H151.726
	c4.214-11.939,7.554-24.754,9.964-38.247C169.851,77.073,209.525,43.908,256.026,43.908z M122.329,40.135
	c17.154,2.497,33.047,11.037,44.576,24.1c-4.375,5.16-8.308,10.721-11.75,16.623c-7.91-10.691-19.642-18.233-32.826-20.883
	C122.329,59.975,122.329,40.135,122.329,40.135z M122.329,185.189v-19.839c2.01-0.4,3.99-0.911,5.931-1.532
	c-0.066,0.158-0.126,0.321-0.192,0.477l-1.309,3.108c-1.358,3.226-1.011,6.919,0.925,9.835c1.863,2.805,4.962,4.518,8.311,4.644
	C131.573,183.423,127.001,184.521,122.329,185.189z M138.351,132.381c-0.396,0.353-0.778,0.729-1.126,1.151
	c-3.973,4.814-9.141,8.323-14.895,10.25v-21.478h18.175C139.849,125.716,139.134,129.078,138.351,132.381z M122.329,101.409V81.557
	c9.303,3.161,16.949,10.405,20.398,19.852H122.329z M186.636,289.592c-7.983-5.407-13.284-15.292-14.245-26.569v-17.052
	c0-5.77-4.678-10.448-10.448-10.448c-7.143,0-12.954-5.812-12.954-12.954c0-7.142,5.812-12.954,12.954-12.954
	c5.77,0,10.448-4.678,10.448-10.448v-17.257h167.167v17.257c0,5.77,4.678,10.448,10.448,10.448c7.143,0,12.954,5.812,12.954,12.954
	c0,7.142-5.812,12.954-12.954,12.954c-5.77,0-10.448,4.678-10.448,10.448v17.05c-0.949,11.049-6.442,21.174-14.419,26.574
	l-56.094,32.164c-0.191,0.11-0.377,0.225-0.561,0.346c-7.831,5.173-17.184,5.174-25.018,0c-0.187-0.124-0.377-0.241-0.573-0.352
	L186.636,289.592z M287.638,335.186l-0.094,41.818c0,17.379-14.139,31.518-31.518,31.518c-17.487,0-31.714-14.139-31.714-31.518
	v-41.804l7.938,4.539c7.333,4.763,15.529,7.144,23.725,7.144c8.198,0,16.396-2.383,23.73-7.148L287.638,335.186z M114.858,310.574
	l-30.482-30.482h3.731l28.616,28.617L114.858,310.574z M61.886,428.525v-20.929c7.976,2.497,16.328,3.787,24.737,3.787
	c5.72,0,11.368-0.583,16.876-1.725c-0.748,3.519-1.149,7.132-1.149,10.778v9.883C88.871,432.394,75.013,431.768,61.886,428.525z
	 M148.423,491.08h-25.176v-70.644c0-11.776,7.321-23.707,17.029-27.753l4.87-2.029c2.153,4.627,3.276,9.656,3.276,14.855v85.571
	H148.423z M127.059,327.925l7.004-7.004l36.504,36.504l-9.888,4.12L127.059,327.925z M342.63,405.509v85.572h-25.31V472.98
	c0-5.77-4.678-10.448-10.448-10.448c-5.77,0-10.448,4.678-10.448,10.448v18.1h-29.95v-12.876c0-5.77-4.678-10.448-10.448-10.448
	c-5.77,0-10.448,4.678-10.448,10.448v12.876h-29.603v-18.1c0-5.77-4.678-10.448-10.448-10.448s-10.448,4.678-10.448,10.448v18.1
	h-25.759v-85.572c0-8.003-1.666-15.746-4.869-22.898l38.966-16.235v10.629c0,28.901,23.601,52.414,52.61,52.414
	c28.901,0,52.414-23.513,52.414-52.379l0.037-10.688l39.023,16.259C344.297,389.763,342.63,397.506,342.63,405.509z M388.703,491.08
	h-25.177v-85.572c0-5.199,1.123-10.226,3.277-14.855l4.871,2.029c9.708,4.045,17.029,15.976,17.029,27.753V491.08z"/>
<g>
</g>
<g>
</g>
<g>
</g>
<g>
</g>
<g>
</g>
<g>
</g>
<g>
</g>
<g>
</g>
<g>
</g>
<g>
</g>
<g>
</g>
<g>
</g>
<g>
</g>
<g>
</g>
<g>
</g>
</svg>
