<?xml version="1.0" encoding="iso-8859-1"?>
<!-- Generator: Adobe Illustrator 19.0.0, SVG Export Plug-In . SVG Version: 6.00 Build 0)  -->
<svg version="1.1" id="Layer_1" xmlns="http://www.w3.org/2000/svg" xmlns:xlink="http://www.w3.org/1999/xlink" x="0px" y="0px"
	 viewBox="0 0 512.002 512.002" style="enable-background:new 0 0 512.002 512.002;" xml:space="preserve">
<g>
	<circle style="fill:#E6B263;" cx="255.97" cy="135.707" r="25.014"/>
	<path style="fill:#FF3147;" d="M280.975,135.708c0,13.817-11.198,25.015-25.011,25.015c-13.817,0-25.016-11.198-25.016-25.015
		c0-13.815,11.198-25.013,25.016-25.013C269.777,110.695,280.975,121.893,280.975,135.708L280.975,135.708z M255.964,10.647
		c-11.065,0-21.789,1.442-32.004,4.138v30.391c-11.235,3.974-21.507,9.972-30.38,17.561l-26.34-15.203
		c-7.445,7.5-14.055,16.064-19.584,25.643c-5.532,9.579-9.644,19.588-12.415,29.785l26.322,15.201
		c-1.05,5.69-1.604,11.553-1.604,17.546c0,5.996,0.555,11.859,1.604,17.548l-26.324,15.201c2.773,10.192,6.886,20.201,12.418,29.781
		c1.37,2.376,2.807,4.688,4.306,6.936c4.551,6.823,9.679,13.069,15.277,18.711l26.34-15.209
		c8.873,7.596,19.148,13.594,30.379,17.568v30.391c10.217,2.696,20.941,4.138,32.006,4.138c11.061,0,21.784-1.442,32.001-4.138
		v-30.391c11.234-3.974,21.507-9.976,30.379-17.568l26.34,15.209c5.599-5.642,10.728-11.889,15.277-18.711
		c1.5-2.248,2.938-4.56,4.306-6.936c5.532-9.579,9.644-19.588,12.418-29.781l-26.324-15.201c1.05-5.69,1.604-11.553,1.604-17.548
		c0-5.994-0.555-11.857-1.604-17.546l26.324-15.201c-2.773-10.197-6.886-20.205-12.418-29.785
		c-5.53-9.58-12.14-18.143-19.584-25.643l-26.34,15.203c-8.871-7.59-19.144-13.588-30.38-17.561V14.784
		C277.749,12.088,267.025,10.647,255.964,10.647z"/>
	<path style="fill:#C2C3C9;" d="M318.345,208.676c-8.871,7.592-19.144,13.594-30.379,17.568v30.391
		c-10.217,2.696-20.941,4.138-32.001,4.138c-11.065,0-21.789-1.442-32.006-4.138v-30.391c-11.23-3.974-21.505-9.972-30.379-17.568
		l-26.34,15.209c-5.598-5.642-10.728-11.889-15.277-18.711c-14.634,16.095-26.095,36.216-33.177,59.922
		c-4.646,15.551-3.661,37.678-0.936,59.138l46.194-41.269l48.61,31.997l43.311-34.668l43.306,34.668l48.61-31.997l46.194,41.269
		c2.727-21.459,3.709-43.587-0.938-59.138c-7.082-23.71-18.541-43.827-33.173-59.922c-4.552,6.823-9.68,13.069-15.28,18.711
		L318.345,208.676z"/>
	<path style="fill:#F2D59F;" d="M347.881,282.965l-48.61,31.997l-43.306-34.668l-43.311,34.668l-48.61-31.997l-46.194,41.269
		c2.988,23.516,8.065,46.244,10.105,58.648c12.635,76.735,22.609,72.187,63.544,99.956c42.679,24.637,86.166,24.685,128.926-0.004
		c40.939-27.765,50.913-23.218,63.544-99.952c2.042-12.405,7.119-35.132,10.105-58.648L347.881,282.965z"/>
</g>
<g>
	<path style="fill:#000003;" d="M373.154,204.159c0.114-0.196,0.238-0.387,0.352-0.586c5.873-10.171,10.407-21.045,13.474-32.316
		c1.27-4.673-0.766-9.615-4.959-12.038l-20.052-11.578c0.442-3.961,0.665-7.952,0.665-11.934c0-3.979-0.223-7.972-0.665-11.932
		l20.052-11.578c4.194-2.423,6.231-7.365,4.959-12.038c-3.067-11.273-7.6-22.147-13.474-32.316
		c-5.871-10.171-13.02-19.533-21.251-27.826c-3.41-3.436-8.709-4.144-12.904-1.725l-20.054,11.576
		c-6.433-4.759-13.348-8.755-20.668-11.946V14.784c0-4.842-3.263-9.078-7.945-10.313c-22.586-5.963-46.868-5.961-69.446,0
		c-4.684,1.235-7.946,5.471-7.946,10.313v23.138c-7.319,3.192-14.232,7.188-20.668,11.946l-20.053-11.576
		c-4.194-2.419-9.493-1.712-12.905,1.725c-8.231,8.294-15.38,17.655-21.25,27.824c-5.877,10.173-10.408,21.048-13.473,32.32
		c-1.269,4.671,0.767,9.613,4.958,12.036l20.052,11.578c-0.443,3.961-0.666,7.952-0.666,11.932c0,3.981,0.223,7.974,0.666,11.934
		l-20.053,11.578c-4.195,2.423-6.231,7.367-4.958,12.04c3.068,11.271,7.6,22.143,13.472,32.31c0.115,0.198,0.239,0.391,0.354,0.592
		c-13.508,16.532-23.659,35.962-30.206,57.88c-8.856,29.641,0.197,76.836,6.187,108.066c1.099,5.727,2.047,10.674,2.679,14.508
		c11.182,67.916,20.969,76.847,53.19,97.346c4.415,2.809,9.419,5.992,14.892,9.705c0.212,0.146,0.431,0.284,0.654,0.413
		c22.893,13.213,46.365,19.918,69.763,19.922c0.013,0,0.021,0,0.031,0c23.411,0,46.898-6.704,69.799-19.928
		c0.223-0.127,0.442-0.265,0.654-0.409c5.472-3.712,10.475-6.894,14.89-9.703c32.223-20.495,42.01-29.426,53.192-97.346
		c0.632-3.834,1.579-8.774,2.676-14.497c5.991-31.232,15.044-78.432,6.187-108.077C396.812,240.123,386.662,220.695,373.154,204.159
		z M382.917,268.147c2.724,9.119,3.232,21.149,2.528,34.072l-30.458-27.21c-3.607-3.225-8.932-3.617-12.971-0.956l-42.133,27.735
		l-37.101-29.702c-0.003-0.002-0.006-0.004-0.01-0.006l-0.142-0.114c-0.076-0.061-0.157-0.111-0.234-0.169
		c-0.193-0.144-0.384-0.289-0.583-0.419c-0.037-0.025-0.074-0.052-0.112-0.075c9.808-0.413,19.535-1.86,28.985-4.354
		c4.684-1.235,7.946-5.471,7.946-10.315v-23.138c7.318-3.194,14.23-7.19,20.665-11.95l20.053,11.578
		c4.194,2.423,9.494,1.714,12.905-1.723c2.836-2.859,5.535-5.852,8.106-8.953C370.236,235.733,377.81,251.046,382.917,268.147z
		 M166.897,162.494c3.911-2.258,5.976-6.734,5.155-11.174c-0.946-5.13-1.427-10.381-1.427-15.613c0-5.229,0.481-10.482,1.427-15.611
		c0.82-4.44-1.245-8.915-5.154-11.174L147.95,97.979c2.36-6.732,5.354-13.255,8.944-19.472c3.586-6.215,7.738-12.07,12.39-17.48
		l18.962,10.947c3.915,2.26,8.829,1.806,12.267-1.134c8.017-6.859,17.103-12.111,27.003-15.611
		c4.262-1.506,7.111-5.535,7.111-10.057V23.303c14.019-2.644,28.647-2.644,42.669,0v21.872c0,4.521,2.85,8.551,7.112,10.057
		c9.903,3.502,18.987,8.755,27.003,15.611c3.436,2.938,8.35,3.392,12.267,1.134l18.962-10.947
		c4.652,5.41,8.804,11.267,12.391,17.482c3.589,6.215,6.584,12.735,8.944,19.47l-18.947,10.942
		c-3.911,2.258-5.977,6.734-5.156,11.174c0.947,5.128,1.427,10.379,1.427,15.611c0,5.233-0.48,10.486-1.427,15.613
		c-0.82,4.44,1.246,8.915,5.156,11.174l18.947,10.94c-2.361,6.734-5.355,13.257-8.947,19.472
		c-3.584,6.215-7.736,12.069-12.388,17.482l-18.962-10.951c-3.916-2.26-8.833-1.806-12.269,1.134
		c-8.018,6.861-17.102,12.115-27,15.616c-4.262,1.506-7.111,5.535-7.111,10.057v21.872c-14.02,2.644-28.653,2.642-42.673,0v-21.872
		c0-4.521-2.848-8.551-7.11-10.057c-9.903-3.502-18.989-8.757-27-15.613c-3.436-2.942-8.352-3.394-12.27-1.135l-18.962,10.951
		c-4.652-5.413-8.805-11.269-12.39-17.485c-3.587-6.215-6.583-12.735-8.944-19.47L166.897,162.494z M129.006,268.147
		c5.108-17.1,12.683-32.414,22.558-45.7c2.571,3.1,5.268,6.094,8.105,8.953c3.412,3.436,8.711,4.144,12.906,1.723l20.052-11.578
		c6.433,4.759,13.345,8.757,20.665,11.95v23.138c0,4.844,3.263,9.08,7.946,10.315c9.45,2.494,19.178,3.944,28.989,4.354
		c-0.035,0.022-0.07,0.046-0.107,0.068c-0.21,0.14-0.413,0.289-0.614,0.444c-0.068,0.052-0.14,0.096-0.208,0.15l-0.126,0.102
		c-0.011,0.009-0.02,0.017-0.031,0.025l-37.098,29.695l-42.133-27.735c-4.04-2.658-9.365-2.269-12.972,0.956l-30.459,27.212
		C125.773,289.296,126.282,277.266,129.006,268.147z M373.445,381.15c-10.128,61.526-16.553,65.611-43.59,82.81
		c-4.454,2.831-9.487,6.033-15.09,9.826c-39.018,22.401-78.583,22.399-117.605,0.004c-5.601-3.792-10.637-6.997-15.09-9.83
		c-27.035-17.199-33.459-21.286-43.589-82.81c-0.677-4.112-1.65-9.185-2.778-15.061c-2.027-10.569-4.577-23.887-6.528-37.669
		l35.856-32.034l41.758,27.487c3.862,2.544,8.921,2.306,12.532-0.583l36.643-29.332l36.641,29.332
		c3.612,2.89,8.671,3.128,12.532,0.583l41.758-27.487l35.858,32.032c-1.952,13.788-4.505,27.109-6.531,37.681
		C375.094,371.97,374.122,377.039,373.445,381.15z"/>
	<path style="fill:#000003;" d="M215.455,362.749c0-7.85-6.37-14.219-14.224-14.219c-7.856,0-14.224,6.369-14.224,14.219
		c0,7.856,6.367,14.23,14.224,14.23C209.084,376.979,215.455,370.606,215.455,362.749z"/>
	<path style="fill:#000003;" d="M310.694,348.53c-7.857,0-14.221,6.369-14.221,14.219c0,7.856,6.364,14.23,14.221,14.23
		c7.856,0,14.225-6.374,14.225-14.23C324.919,354.898,318.55,348.53,310.694,348.53z"/>
	<path style="fill:#000003;" d="M288.796,418.964c-8.769,8.772-20.429,13.601-32.83,13.601c-12.406,0-24.069-4.831-32.841-13.601
		c-4.164-4.164-10.919-4.164-15.085,0.002c-4.166,4.164-4.164,10.919,0.001,15.084c12.802,12.801,29.822,19.848,47.925,19.848
		c18.101,0,35.118-7.05,47.917-19.848c4.166-4.164,4.166-10.919,0-15.087C299.717,414.8,292.962,414.8,288.796,418.964z"/>
	<path style="fill:#000003;" d="M89.557,159.28c5.873-0.457,10.265-5.587,9.809-11.461c-0.309-3.994-0.467-8.068-0.467-12.111
		c0-41.952,16.338-81.393,46.004-111.059c4.166-4.167,4.164-10.921,0-15.087c-4.167-4.164-10.92-4.164-15.087,0
		C96.123,43.258,77.565,88.058,77.565,135.708c0,4.592,0.179,9.222,0.531,13.761c0.434,5.594,5.106,9.845,10.623,9.845
		C88.997,159.313,89.276,159.301,89.557,159.28z"/>
	<path style="fill:#000003;" d="M410.457,46.506c-2.304-3.987-4.775-7.909-7.342-11.651c-3.333-4.857-9.975-6.092-14.831-2.759
		c-4.859,3.331-6.094,9.974-2.761,14.829c2.257,3.29,4.431,6.739,6.459,10.248c20.977,36.333,26.549,78.662,15.692,119.186
		c-1.525,5.692,1.852,11.54,7.542,13.065c0.925,0.247,1.854,0.367,2.768,0.367c4.71,0,9.02-3.144,10.297-7.911
		C440.614,135.854,434.285,87.776,410.457,46.506z"/>
	<path style="fill:#000003;" d="M104.135,175.922c-1.459-5.709-7.271-9.15-12.977-7.694c-5.708,1.458-9.152,7.268-7.693,12.976
		l0.167,0.642c1.263,4.783,5.581,7.948,10.308,7.948c0.9,0,1.817-0.116,2.729-0.356c5.696-1.504,9.095-7.34,7.592-13.036
		L104.135,175.922z"/>
	<path style="fill:#000003;" d="M367.505,25.128c2.076,2.037,4.774,3.052,7.469,3.052c2.765,0,5.528-1.067,7.616-3.196
		c4.126-4.206,4.061-10.96-0.145-15.085l-0.367-0.365c-4.182-4.151-10.934-4.125-15.085,0.059
		c-4.15,4.182-4.124,10.936,0.058,15.084L367.505,25.128z"/>
	<path style="fill:#000003;" d="M255.964,171.391c19.672,0,35.678-16.007,35.678-35.683c0-19.673-16.006-35.681-35.678-35.681
		c-19.676,0-35.683,16.007-35.683,35.681C220.282,155.384,236.289,171.391,255.964,171.391z M255.964,121.362
		c7.909,0,14.344,6.435,14.344,14.346s-6.435,14.348-14.344,14.348c-7.912,0-14.348-6.438-14.348-14.348
		C241.616,127.797,248.052,121.362,255.964,121.362z"/>
</g>
<g>
</g>
<g>
</g>
<g>
</g>
<g>
</g>
<g>
</g>
<g>
</g>
<g>
</g>
<g>
</g>
<g>
</g>
<g>
</g>
<g>
</g>
<g>
</g>
<g>
</g>
<g>
</g>
<g>
</g>
</svg>
