<?xml version="1.0" encoding="iso-8859-1"?>
<!-- Generator: Adobe Illustrator 19.0.0, SVG Export Plug-In . SVG Version: 6.00 Build 0)  -->
<svg version="1.1" id="Layer_1" xmlns="http://www.w3.org/2000/svg" xmlns:xlink="http://www.w3.org/1999/xlink" x="0px" y="0px"
	 viewBox="0 0 512.001 512.001" style="enable-background:new 0 0 512.001 512.001;" xml:space="preserve">
<path style="fill:#FFE1B2;" d="M89.217,483.179v20.194H18.539V311.532h70.678v50.484l30.29-35.339c0,0,10.096-10.096,25.242-14.54
	c14.54-4.342,196.889-30.29,196.889-30.29s30.29-5.048,30.29,15.146s-35.34,30.29-35.34,30.29l-100.969,25.242
	c0,0-15.146,4.442-15.146,14.539l20.194,15.146l121.162,0.606c0,0,35.34-5.654,80.775-61.186
	c40.893-50.08,50.484-5.048,50.484-5.048s-40.388,96.526-111.065,111.672s-237.277,9.491-237.277,9.491L89.217,483.179z"/>
<polygon style="fill:#FFD311;" points="79.119,8.626 79.119,210.564 250.766,210.564 250.766,250.951 311.348,210.564 
	452.703,210.564 452.703,8.626 "/>
<path style="fill:#FFD7A3;" d="M151.775,310.617c-3.344,0.635-5.814,1.158-7.026,1.521c-15.146,4.443-25.242,14.54-25.242,14.54
	l-30.29,35.339v-50.484H18.539v191.841h70.678V483.18l55.533-45.436c0,0,99.153,3.356,176.929-2.062
	C239.781,412.202,176.952,366.552,151.775,310.617z"/>
<rect x="18.542" y="311.528" style="fill:#00B4D7;" width="70.679" height="191.84"/>
<path style="fill:#FBBF1A;" d="M191.962,8.626H79.119v201.937h171.647v40.388l60.581-40.388h72.868
	C288.45,183.837,214.08,106.238,191.962,8.626z"/>
<g>
	<rect x="45.249" y="336.775" style="fill:#FFFFFF;" width="17.253" height="20.194"/>
	<rect x="45.249" y="372.108" style="fill:#FFFFFF;" width="17.253" height="85.827"/>
	<polygon style="fill:#FFFFFF;" points="316.396,35.339 316.396,52.592 341.005,52.592 274.538,119.06 274.538,68.573 
		163.891,179.221 176.09,191.422 257.285,110.228 257.285,160.712 353.205,64.792 353.205,84.354 370.458,84.354 370.458,35.339 	
		"/>
	<rect x="99.308" y="171.642" style="fill:#FFFFFF;" width="20.194" height="17.253"/>
	<rect x="412.32" y="30.29" style="fill:#FFFFFF;" width="20.194" height="17.253"/>
</g>
<path d="M501.528,314.784c-0.454-2.134-4.899-20.964-20.742-24.799c-13.188-3.192-27.866,5.375-44.861,26.189
	c-39.373,48.118-70.624,56.981-74.946,58.011l-117.415-0.587l-12.376-9.282c1.776-1.384,4.403-2.747,6.737-3.474l100.758-25.189
	l0.278-0.075c4.258-1.216,41.595-12.633,41.595-38.584c0-7.115-2.662-13.129-7.697-17.395c-11.046-9.36-29.898-6.702-32.528-6.278
	c-19.178,2.729-183.342,26.161-198.008,30.541c-17.063,5.006-28.438,16.242-28.913,16.717l-15.564,18.12v-35.792H9.911v209.094
	h87.931v-24.734l49.866-40.799c24.316,0.733,169.852,4.419,236.124-9.78c74.234-15.907,115.496-112.665,117.217-116.776l1.041-2.488
	L501.528,314.784z M380.218,419.817c-68.826,14.748-233.52,9.364-235.176,9.304l-3.244-0.109l-43.956,35.964v-42.379H80.59v72.15
	H27.164V320.158h53.425v65.178l45.198-52.731c1.319-1.234,9.717-8.766,21.429-12.201c10.215-3.05,122.593-19.622,195.635-30.016
	l0.181-0.026c5.534-0.895,14.989-0.736,18.684,2.411c0.783,0.667,1.585,1.692,1.585,4.222c0,10.23-19.434,19.181-28.959,21.961
	l-100.814,25.203l-0.336,0.091c-0.505,0.148-5.064,1.531-9.726,4.451c-9.603,6.018-11.618,13.309-11.618,18.366v4.313l25.925,19.444
	l124.721,0.623l0.698-0.112c1.575-0.253,39.117-6.833,86.089-64.244l0.006-0.007c17.03-20.855,25.289-20.837,27.415-20.336
	c3.397,0.803,5.952,5.59,7.23,9.189C476.881,331.268,439.236,407.171,380.218,419.817z"/>
<polygon points="444.077,201.937 412.314,201.937 412.314,219.19 461.33,219.19 461.33,0 195.229,0 195.229,17.253 444.077,17.253 
	"/>
<polygon points="242.14,267.069 313.96,219.19 387.072,219.19 387.072,201.937 308.735,201.937 259.392,234.833 259.392,201.937 
	87.745,201.937 87.745,17.253 164.945,17.253 164.945,0 70.493,0 70.493,219.19 242.14,219.19 "/>
<rect x="99.308" y="30.29" width="20.194" height="17.253"/>
<rect x="154.851" y="111.062" width="20.194" height="17.253"/>
<rect x="412.32" y="171.642" width="20.194" height="17.253"/>
<polygon points="239.617,85.405 251.817,73.205 229.097,50.485 190.185,50.485 190.185,67.738 221.95,67.738 "/>
<rect x="139.703" y="50.485" width="35.339" height="17.253"/>
<rect x="109.407" y="80.778" width="65.63" height="17.253"/>
<g>
</g>
<g>
</g>
<g>
</g>
<g>
</g>
<g>
</g>
<g>
</g>
<g>
</g>
<g>
</g>
<g>
</g>
<g>
</g>
<g>
</g>
<g>
</g>
<g>
</g>
<g>
</g>
<g>
</g>
</svg>
