<?xml version="1.0" encoding="iso-8859-1"?>
<!-- Generator: Adobe Illustrator 19.0.0, SVG Export Plug-In . SVG Version: 6.00 Build 0)  -->
<svg version="1.1" id="Layer_1" xmlns="http://www.w3.org/2000/svg" xmlns:xlink="http://www.w3.org/1999/xlink" x="0px" y="0px"
	 viewBox="0 0 512 512" style="enable-background:new 0 0 512 512;" xml:space="preserve">
<path style="fill:#61322E;" d="M354.141,242.623c5.686-7.364,9.085-16.591,9.085-26.613c0-18.661-11.743-34.587-28.247-40.786
	v-25.437c0-77.595-62.725-140.811-140.135-141.606l78.173,354.032h18.388c42.115,0,76.255-34.141,76.255-76.255
	C367.66,269.857,362.67,254.932,354.141,242.623z"/>
<path style="fill:#81433D;" d="M323.998,242.623c6.917,12.31,10.981,27.234,10.981,43.335c0,42.115-27.735,76.255-61.963,76.255
	H95.319c-42.115,0-76.255-34.141-76.255-76.255c0-16.101,4.989-31.025,13.519-43.335c-5.686-7.364-9.085-16.591-9.085-26.613
	c0-18.661,11.743-34.587,28.247-40.786v-25.437c0-78.085,63.532-141.617,141.617-141.617c0.501,0,0.991,0,1.482,0.011
	c62.769,0.98,113.577,64.131,113.577,141.606v25.437c13.41,6.198,22.953,22.125,22.953,40.786
	C331.373,226.032,328.617,235.259,323.998,242.623z"/>
<path style="fill:#763C8D;" d="M269.671,335.044l-33.302,7.974L345.872,503.83h32.681
	C378.553,428.751,333.889,364.119,269.671,335.044z"/>
<path style="fill:#9E52B6;" d="M269.051,343.018l-151.966-7.985C52.856,364.097,8.17,428.74,8.17,503.83h337.702
	C345.872,434.993,314.945,374.936,269.051,343.018z"/>
<path style="fill:#A77C77;" d="M195.333,318.649l73.717,24.369c0.403-2.658,0.61-5.316,0.621-7.974
	C246.958,324.76,221.816,318.922,195.333,318.649z"/>
<path style="fill:#BA9894;" d="M195.333,318.649c26.809,0.414,51.941,9.227,73.717,24.369c-1.623,11.003-6.373,22.005-12.746,32.452
	L256,375.285l-62.638,32.681l-63.063-32.681c-7.865-12.931-13.214-26.711-13.214-40.252c23.258-10.534,49.087-16.395,76.277-16.395
	C194.015,318.638,194.68,318.638,195.333,318.649z"/>
<path style="fill:#FFFFFF;" d="M256,375.285l0.305,0.185c-21.885,35.862-62.943,65.176-62.943,65.176s-41.232-29.445-63.063-65.362
	H256z"/>
<path style="fill:#A77C77;" d="M297.309,117.106h-20.611c-3.551,0-7.059-0.174-10.523-0.501l-0.044,0.501l-72.769,168.851
	c60.165,0,108.936-48.771,108.936-108.936v-27.234C302.298,138.403,300.555,127.423,297.309,117.106z"/>
<path style="fill:#BA9894;" d="M269.617,149.787v27.234c0,60.165-34.141,108.936-76.255,108.936
	c-60.165,0-108.936-48.771-108.936-108.936v-27.234c0-11.384,1.743-22.365,4.989-32.681h20.611c33.433,0,63.357-15.066,83.336-38.77
	c17.855,21.188,43.662,35.47,72.813,38.269l-0.044,0.501C268.397,127.423,269.617,138.403,269.617,149.787z"/>
<path style="fill:#A77C77;" d="M503.83,269.465v72.835h-0.142l-30.905,21.787l10.894-114.775
	C494.81,249.311,503.83,258.331,503.83,269.465z"/>
<path style="fill:#BA9894;" d="M483.677,249.311v114.775h-30.655l10.894-98.565C465.746,256.272,473.894,249.311,483.677,249.311z"
	/>
<path style="fill:#A77C77;" d="M443.37,205.443l-10.894,158.644h31.036c0.011,0,0.011-138.491,0.011-138.491
	C463.523,214.474,454.503,205.443,443.37,205.443z"/>
<path style="fill:#BA9894;" d="M443.37,205.443v158.644h-31.047l10.894-138.491C423.217,214.474,432.237,205.443,443.37,205.443z"/>
<path style="fill:#A77C77;" d="M423.217,225.596v138.491H392.17l10.894-187.294c11.133,0,20.153,9.02,20.153,20.153V225.596z"/>
<path style="fill:#BA9894;" d="M403.064,176.792v187.294h-31.047l10.894-138.817v-28.323
	C382.911,185.812,391.931,176.792,403.064,176.792z"/>
<path style="fill:#A77C77;" d="M382.911,225.269v138.817h-31.047l10.894-158.971C373.891,205.116,382.911,214.147,382.911,225.269z"
	/>
<path style="fill:#BA9894;" d="M342.604,225.269v77.388l-21.787,61.429h41.94V205.116
	C351.624,205.116,342.604,214.147,342.604,225.269z"/>
<path style="fill:#A77C77;" d="M463.512,342.299L403.565,503.83c55.634,0,100.265-44.631,100.265-100.265v-61.266H463.512z"/>
<path style="fill:#BA9894;" d="M463.512,403.565c0.076-30.23,0-61.266,0-61.266H320.817l82.748,161.531
	c33.302,0,60.024-44.631,60.024-100.265H463.512z"/>
<path style="fill:#CDB4B1;" d="M403.565,436.91v66.919c-55.634,0-101.191-45.1-101.191-100.733l-0.076-100.439
	c0-11.122,9.02-20.153,20.153-20.153s20.153,9.031,20.153,20.153v39.642v32.681h0.065
	C376.734,375.122,403.696,402.846,403.565,436.91z"/>
<path d="M172.664,155.234v-5.447c0-4.512-3.658-8.17-8.17-8.17h-21.787c-4.512,0-8.17,3.658-8.17,8.17s3.658,8.17,8.17,8.17h14.082
	c1.121,3.173,4.148,5.447,7.705,5.447C169.006,163.404,172.664,159.746,172.664,155.234z"/>
<path d="M244.017,141.617H222.23c-4.512,0-8.17,3.658-8.17,8.17v5.447c0,4.512,3.658,8.17,8.17,8.17
	c3.558,0,6.584-2.273,7.705-5.447h14.082c4.512,0,8.17-3.658,8.17-8.17S248.529,141.617,244.017,141.617z"/>
<path d="M211.336,190.638h-35.949c-4.512,0-8.17,3.658-8.17,8.17s3.658,8.17,8.17,8.17h35.949c4.512,0,8.17-3.658,8.17-8.17
	S215.848,190.638,211.336,190.638z"/>
<path d="M310.468,149.787c0-11.981-1.804-23.8-5.363-35.13c-1.07-3.405-4.226-5.721-7.794-5.721h-20.613
	c-29.779,0-57.877-13.073-77.089-35.869c-1.552-1.842-3.838-2.905-6.247-2.905c-2.41,0-4.695,1.063-6.247,2.905
	c-19.212,22.796-47.31,35.869-77.089,35.869H89.413c-3.569,0-6.726,2.317-7.794,5.721c-3.559,11.329-5.363,23.149-5.363,35.13
	v27.234c0,64.573,52.533,117.106,117.106,117.106s117.106-52.533,117.106-117.106V149.787z M294.128,177.021
	c0,55.563-45.203,100.766-100.766,100.766S92.596,232.584,92.596,177.021v-27.234c0-8.315,1.008-16.534,3-24.511h14.43
	c31.505,0,61.39-12.59,83.336-34.831c21.946,22.241,51.831,34.831,83.336,34.831h14.43c1.992,7.977,3,16.197,3,24.511V177.021z"/>
<path d="M483.677,241.143c-4.281,0-8.341,0.96-11.983,2.668v-18.213c0-15.617-12.706-28.323-28.323-28.323
	c-4.281,0-8.341,0.96-11.983,2.668v-2.998c0-15.617-12.706-28.323-28.323-28.323s-28.323,12.706-28.323,28.323v2.672
	c-2.136-1.002-4.417-1.742-6.803-2.185c-4.579-11.901-13.415-21.725-24.788-27.524v-20.121C343.149,67.194,275.955,0,193.362,0
	S43.574,67.194,43.574,149.787v20.127c-17.103,8.751-28.246,26.613-28.246,46.1c0,9.562,2.559,18.702,7.447,26.749
	c-7.79,13.037-11.882,27.855-11.882,43.194c0,33.843,19.985,63.765,50.052,77.104C23.452,398.351,0,448.4,0,503.83
	c0,4.512,3.658,8.17,8.17,8.17s8.17-3.658,8.17-8.17c0-67.569,38.058-126.407,93.859-156.231
	c2.126,10.684,6.753,21.228,12.748,31.233c0.216,0.447,0.47,0.869,0.759,1.266c22.395,36.514,62.567,65.526,64.907,67.197
	c1.421,1.014,3.084,1.521,4.747,1.521s3.328-0.507,4.747-1.521c3.007-2.147,68.478-49.44,78.431-99.786
	c6.047,3.231,11.93,6.83,17.626,10.787l0.032,44.803c0,60.048,49.061,108.9,109.365,108.9c29.089,0,56.354-11.244,76.773-31.661
	C500.755,459.921,512,432.656,512,403.568V269.467C512,253.85,499.294,241.143,483.677,241.143z M443.37,213.616
	c6.607,0,11.983,5.376,11.983,11.983V334.13h-23.966V225.599C431.387,218.991,436.763,213.616,443.37,213.616z M391.081,196.946
	c0-6.607,5.376-11.983,11.983-11.983c6.607,0,11.983,5.376,11.983,11.983V334.13h-23.966V196.946z M374.74,225.273V334.13h-23.966
	V225.273c0-6.356,4.979-11.559,11.241-11.946c0.159-0.003,0.318-0.012,0.477-0.024c0.089-0.002,0.175-0.013,0.265-0.013
	C369.364,213.29,374.74,218.666,374.74,225.273z M193.358,430.41c-9.495-7.379-31.291-25.382-47.686-46.955h95.352
	C224.627,405.018,202.843,423.03,193.358,430.41z M251.819,367.115H134.886c-4.878-8.793-8.321-17.859-9.325-26.798
	c20.894-8.695,43.795-13.508,67.801-13.508c23.594,0,46.514,4.576,67.808,13.42C260.176,349.192,256.721,358.289,251.819,367.115z
	 M193.362,310.468c-28.003,0-54.63,5.991-78.68,16.747c-0.65,0.2-1.263,0.486-1.832,0.832c-13.48,6.198-26.127,13.904-37.73,22.897
	c-28.377-8.769-47.885-34.961-47.885-64.987c0-13.911,4.171-27.287,12.061-38.683c2.026-2.927,1.925-6.829-0.252-9.645
	c-4.825-6.245-7.375-13.719-7.375-21.615c0-14.665,9.224-27.985,22.951-33.146c3.185-1.197,5.295-4.244,5.295-7.647v-25.433
	c0-73.583,59.864-133.447,133.447-133.447s133.447,59.864,133.447,133.447v25.433c0,3.403,2.11,6.45,5.295,7.648
	c8.204,3.084,14.877,9.07,18.873,16.659c-9.752,4.478-16.543,14.331-16.543,25.746v51.733c-3.642-1.708-7.702-2.668-11.983-2.668
	c-15.617,0-28.323,12.706-28.323,28.329l0.025,36.109C263.871,320.212,229.333,310.468,193.362,310.468z M495.66,403.568
	c0,50.779-41.314,92.091-92.097,92.091c-51.294,0-93.025-41.522-93.025-92.566l-0.034-48.497c0.022-0.356,0.024-0.712-0.001-1.068
	l-0.035-50.868c0-6.607,5.376-11.983,11.983-11.983c6.607,0,11.983,5.376,11.983,11.983v72.319c0,4.499,3.703,8.152,8.203,8.17
	c29.209,0.118,52.875,24.217,52.757,53.721c-0.019,4.512,3.625,8.185,8.138,8.203c4.531,0,8.185-3.636,8.203-8.138
	c0.075-18.672-7.012-36.228-19.957-49.435c-11.092-11.317-25.403-18.329-41.001-20.191v-16.84h120.23c4.512,0,8.17-3.658,8.17-8.17
	c0-4.144-3.088-7.559-7.087-8.091v-67.735c1.334-5.161,6.017-8.991,11.59-8.991c6.607,0,11.983,5.376,11.983,11.983v134.103H495.66z
	"/>
<g>
</g>
<g>
</g>
<g>
</g>
<g>
</g>
<g>
</g>
<g>
</g>
<g>
</g>
<g>
</g>
<g>
</g>
<g>
</g>
<g>
</g>
<g>
</g>
<g>
</g>
<g>
</g>
<g>
</g>
</svg>
