<?xml version="1.0" encoding="iso-8859-1"?>
<!-- Generator: Adobe Illustrator 19.0.0, SVG Export Plug-In . SVG Version: 6.00 Build 0)  -->
<svg version="1.1" id="Layer_1" xmlns="http://www.w3.org/2000/svg" xmlns:xlink="http://www.w3.org/1999/xlink" x="0px" y="0px"
	 viewBox="0 0 508 508" style="enable-background:new 0 0 508 508;" xml:space="preserve">
<circle style="fill:#90DFAA;" cx="254" cy="254" r="254"/>
<path style="fill:#FFFFFF;" d="M307.2,497.6V311.2c-3.6-2.4-6.8-6-8.4-10c-1.2-2.4-2-5.2-2.4-8.4l-4-53.6h-76.8l-2.8,40.4l0,0
	l-0.8,13.2c-0.4,8-5.2,14.8-11.6,18.8v185.6h106.8V497.6z"/>
<g>
	<path style="fill:#E6E9EE;" d="M298.8,301.2L298.8,301.2c-64.4,50.8-85.6-19.2-86-21.6l0,0l2.8-40.4h77.2l4,53.6
		C296.8,296,297.2,298.8,298.8,301.2z"/>
	<rect x="196" y="338" style="fill:#E6E9EE;" width="116" height="159.6"/>
</g>
<g>
	<path style="fill:#2C9984;" d="M438,428.8C438,300,304.4,308,302.4,306c0,0-3.2-0.8-3.6,0c-7.6,26-45.6,32-45.6,32
		s-32.4-4.4-44.8-32c-0.4-0.8-3.2,0-3.2,0S70,299.2,70,428.8c45.2,47.6,108.8,77.6,179.2,79.2c0.8,0,1.6,0,2.4,0c0.8,0,1.6,0,2.4,0
		c0.8,0,1.6,0,2.4,0l0,0C328,507.2,392.4,477.2,438,428.8z"/>
	<path style="fill:#2C9984;" d="M438,428.8c-45.6,48-110,78.4-181.6,79.2l0,0c-0.8,0-1.6,0-2.4,0c-0.8,0-1.6,0-2.4,0
		c-0.8,0-1.6,0-2.4,0c-17.6-0.4-34.8-2.4-51.2-6c-22-4.8-42.8-12.8-62-22.8c-14-7.2-27.2-16-39.6-25.6c-9.2-7.2-17.6-15.2-25.6-23.2
		l0,0c-0.4-0.4-0.4-0.4-0.8-0.8c0-11.2,0.8-21.2,2.8-30.4c2.4-12.4,6.4-23.2,11.6-32.8c0.4-0.8,1.2-2,1.6-2.8
		c2.4-4.4,5.6-8.4,8.4-12.4c7.6-9.2,16-16.4,25.2-22.4l0,0c13.6-8.8,28.4-14,41.6-17.2c24.8-6.8,44-5.6,44-5.6s2.8-0.8,3.2,0
		c12.8,27.6,44.8,32,44.8,32s38-6,45.6-32c0.4-0.8,3.6,0,3.6,0c0.4,0.8,14.4,0.4,33.2,3.6c26,4.8,61.2,16.8,82.8,48.4
		c5.2,8,10,17.2,13.2,27.6l0,0l0,0c1.2,4,2.4,8,3.2,12c1.6,7.6,2.4,15.6,2.8,24.4C438,424.4,438,426.4,438,428.8z"/>
</g>
<path style="fill:#324A5E;" d="M352.8,154.8c-0.8-7.2-5.6-13.2-12.4-16c0-2.4,0.4-4.8,0.4-6.8c0-50.8-38.8-76.4-86.8-76.4
	s-86.8,25.6-86.8,76.4c0,2.4,0,4.8,0.4,6.8c-6.4,2.4-11.2,8.4-12.4,16l-5.6,47.2h208.8L352.8,154.8z"/>
<path style="fill:#ACB3BA;" d="M356,202H153.2c0.8-5.6,2.8-23.6,7.2-32c0,0,4.4-0.4,11.6-1.2c20.4-2,61.6-5.2,82.4-4
	c20.4-1.2,60.8,2,81.2,4c8,0.8,12.8,1.2,12.8,1.2C353.2,178.4,355.2,196.4,356,202z"/>
<g>
	<path style="fill:#2B3B4E;" d="M339.6,170c0,0-59.6-6.8-84.8-5.2c-25.6-2-85.2,5.2-85.2,5.2c-4,8.4-6,26.4-6.4,32h89.2h4.4H346
		C345.2,196.4,343.2,178.4,339.6,170z"/>
	<path style="fill:#2B3B4E;" d="M178,148.4c0,0,0.4-0.4,1.6-0.4c1.2-0.4,2.8-0.8,4.8-1.6c4-1.2,10-2.8,16.8-4.4
		c7.2-1.6,15.6-2.8,24.4-3.6c4.4-0.4,9.2-0.8,14-1.2s9.6-0.4,14.4-0.4s9.6,0,14.4,0.4s9.6,0.4,14,1.2c9.2,0.8,17.2,2,24.4,3.6
		c7.2,1.6,12.8,3.2,16.8,4.4c2,0.8,3.6,1.2,4.8,1.6c1.2,0.4,1.6,0.4,1.6,0.4s-2.4-0.8-6.4-1.6c-4-1.2-10-2.4-17.2-3.6
		c-7.2-1.2-15.6-2-24.4-2.8c-4.4-0.4-9.2-0.8-14-0.8s-9.6-0.4-14.4-0.4c-4.8,0-9.6,0-14.4,0.4c-4.8,0-9.2,0.4-14,0.8
		c-8.8,0.8-17.2,1.6-24.4,2.8c-3.6,0.8-6.8,1.2-9.6,1.6c-2.8,0.4-5.2,1.2-7.2,1.6C180.4,147.6,178,148.4,178,148.4z"/>
</g>
<g>
	<ellipse style="fill:#324A5E;" cx="319.6" cy="134" rx="2.8" ry="4.8"/>
	<ellipse style="fill:#324A5E;" cx="188.4" cy="134" rx="2.8" ry="4.8"/>
</g>
<path style="fill:#FFFFFF;" d="M336,171.2c0,10-1.2,20.4-3.2,30.8c-10,48-41.6,96-78.8,96s-68.8-48-78.8-96
	c-2-10.4-3.2-20.8-3.2-30.8c0-0.8,0-1.6,0-2.4c20.4-2,61.6-5.2,82.4-4c20.4-1.2,60.8,2,81.2,4C336,169.6,336,170.4,336,171.2z"/>
<path style="fill:#324A5E;" d="M438,422c-2,2.8-4.8,5.2-8.4,6.8c-4.4,2-9.6,2-14.4,2c-14,0-28,0-42,0.4c-1.6,6.8-7.2,12-13.6,15.2
	c-6.4,2.8-13.6,3.6-20.4,4.4c-11.2,1.2-23.2,2-32-4.4c-2-1.6-4-3.2-6-4.4c-5.2-2.8-11.2-1.2-16.8,0c-19.2,4-38.8,6.4-58.4,6.8
	c-5.2,0-10.4,0-14.4-3.6c-2-1.6-3.2-4.8-2-7.2c1.2-2.4,4-3.2,6.4-3.6c7.6-1.2,15.2-0.8,22.8-0.8c17.2,0.4,34.8-0.8,52-3.6
	c3.6-0.4,7.6-1.2,11.2-2.8c6-2.4,11.2-7.2,17.2-10c13.6-6.4,29.6-2.4,44.8-2c24,0.4,47.2-8.8,69.2-18.4c0.8,0.4,1.6,1.2,2,1.6
	C436.8,405.2,437.6,413.2,438,422z"/>
<g>
	<path style="fill:#2B3B4E;" d="M432,385.6c-1.6,0-3.6,0-5.2-0.4c-9.2-1.2-18-2-27.2-3.2c-2.4-0.4-4.8-0.4-6.4,1.2
		c-1.2,1.2-1.6,2.8-2.8,4c-1.6,1.6-4,1.6-6,1.6c-22.4,0.4-44.8,0.4-67.2,0c-3.2,0-6.4,0-9.2-1.6c-2.8-1.6-5.2-4.8-4.4-8
		c0.8-2.8,3.6-4.4,6-5.6c24.4-11.2,52.8-4.8,79.2-9.2c-2,0-3.2-2.8-2.4-4.8c0.8-2,2.4-3.2,3.6-5.2c1.2-1.6,2-4.4,0.4-5.6
		c-5.6-4.4-13.6-4.4-21.2-4.4l-38,0.8c-8.8,0-18,0.4-26-3.2c-0.8-0.4-1.2-0.8-1.6-1.6c0-0.8,0.4-1.6,1.2-2
		c10.4-9.6,24-16.8,30.8-28.8C368.8,315.6,415.6,332.8,432,385.6z"/>
	<path style="fill:#2B3B4E;" d="M181.2,335.2c-0.8,1.6-2.8,2.4-4.8,2.4c-7.2,0.8-14.4,1.6-21.6,2.4c-9.6,1.2-20.4,2-28-4.4
		c-2.8-2-4.8-4.8-6.4-8c13.6-8.8,28.4-14,41.6-17.2c6,6.4,11.6,12.8,17.6,19.6C180.4,331.6,181.6,333.6,181.2,335.2z"/>
</g>
<path style="fill:#324A5E;" d="M305.2,498c-35.6,2-71.6,3.2-107.2,3.6c-22-4.8-42.8-12.8-62-22.8c8-0.4,16-1.2,24-3.2
	c-1.6-5.6,2.4-11.2,7.6-13.6c5.2-2.4,11.2-2.4,16.8-2c4.4,0,8.8,0.4,12.8,1.6c6.4,2,11.6,7.2,18,10c9.2,4,19.2,3.2,29.2,2.8
	c3.2,0,6.8-0.4,9.6,0.8c2.8,0.8,4.8,2.8,7.2,4.4c4.4,2.8,9.6,4,14.4,5.6C285.6,488,295.6,492.4,305.2,498z"/>
<g>
	<path style="fill:#2B3B4E;" d="M120.4,440.8c-1.6,4.8-6,8-10.8,10c-4.4,1.6-8.8,2-13.2,2c-9.2-7.2-17.6-15.2-25.6-23.2
		c15.2,4.8,31.2,7.6,47.2,7.6c0.8,0,1.6,0,2.4,0.8C120.8,438.8,120.8,440,120.4,440.8z"/>
	<path style="fill:#2B3B4E;" d="M294,428.8c0,1.2-0.4,2-1.2,2.8c-1.2,0.8-2.8,0.8-4,0.8c-28-3.6-56,6-84.4,4.8
		c-4.4-0.4-8.8-0.8-12.8-2.4s-7.6-4.8-11.6-7.2c-12.8-8-28-10.4-42.8-12.4c-1.2,0-2.4-0.4-3.2,0.4c-0.4,0.8-0.8,1.6-0.8,2.4
		c-1.6,4.4-8,3.6-12.4,1.6c-12-5.2-24.4-10.8-36.4-16c-4-1.6-7.6-3.6-11.6-5.6c2.4-12.4,6.4-23.2,11.6-32.8
		c19.6,5.6,38,14.4,54.4,26.4c3.6,2.4,6.8,5.2,10.8,7.2c6.8,3.2,14.4,3.2,21.6,5.2c8,2.4,15.2,7.6,23.6,9.6c6.4,1.2,12.8,0.8,19.2,0
		c11.2-1.2,22-2.8,33.2-4.4c9.6-1.6,19.6-3.6,29.2-0.8C285.6,410.8,294.4,419.2,294,428.8z"/>
</g>
<path style="fill:#324A5E;" d="M432,385.6c-1.2,0.4-2.8,0.4-4.4,0.4c-18.8-0.4-37.6,0-56.4,0.8c-1.2,0-2,0-2.8,0.8
	c-2.8,2.4,2.4,8-0.4,10.8c-6,1.2-12-2-17.6-4.4c-11.2-4.4-23.6-4-35.6-3.6c-1.2,0-2.4,0-3.6,0.8s-2,2-2.8,3.2c-4,4.8-10,7.2-16,9.6
	c-3.2,1.2-6.4,2.4-9.6,1.6c-7.2-1.2-10-10.4-11.2-17.6c-9.6-0.4-19.2-0.4-28.8-0.8c-2.4,0-4.8,0-6.8,0.8s-3.6,2.4-5.2,3.6
	c-3.2,2.4-7.2,3.2-11.2,4c-18.8,4.4-38,6.8-57.6,6.8c-1.6,0-3.2,0-4.4-0.8s-2-2-2.8-3.2c-1.6-2-4-3.6-6-4.8c-6.4-4-12.8-7.6-20-10
	c-8-2.8-16.8-4-24.8-7.2c-6.8-2.8-12.4-7.2-17.2-13.2c2.4-4.4,5.6-8.4,8.4-12.4c14,1.6,28,7.2,42,10.4c11.6,2.4,23.6,3.2,35.2,6.8
	c12.8,4,25.6,12.4,38.8,8.8c10.8-2.8,20.4-13.2,31.2-9.6c6,2,9.6,7.6,15.6,10c6,2,12.8-0.4,19.2-2c9.2-2,18.4-1.6,27.6-3.6
	c6.8-1.6,13.2-4.4,19.6-6.4c7.2-2,15.2-2.8,22.8-3.2c13.2-0.4,26.4,1.2,39.2-1.2c11.2-1.6,23.2-6,33.6-2.4
	C424.4,366,428.8,375.2,432,385.6z"/>
<g>
	<path style="fill:#4CDBC4;" d="M298.8,301.6c0,0-3.2,18-44.8,36.4c0,0,30.8,19.2,36.4,34.8C290.4,372.8,318.8,334,298.8,301.6z"/>
	<path style="fill:#4CDBC4;" d="M209.6,301.6c0,0,3.2,18,44.8,36.4c0,0-30.8,19.2-36.4,34.8C217.6,372.8,189.2,334,209.6,301.6z"/>
</g>
<g>
</g>
<g>
</g>
<g>
</g>
<g>
</g>
<g>
</g>
<g>
</g>
<g>
</g>
<g>
</g>
<g>
</g>
<g>
</g>
<g>
</g>
<g>
</g>
<g>
</g>
<g>
</g>
<g>
</g>
</svg>
