<?xml version="1.0" encoding="utf-8"?>
<!-- Generator: Adobe Illustrator 19.2.1, SVG Export Plug-In . SVG Version: 6.00 Build 0)  -->
<svg version="1.1" id="Layer_1" xmlns="http://www.w3.org/2000/svg" xmlns:xlink="http://www.w3.org/1999/xlink" x="0px" y="0px"
	 viewBox="0 0 384 246" enable-background="new 0 0 384 246" xml:space="preserve">
<g>
	<g>
		<g>
			<g>
				<polygon fill="#2578E0" points="108.19,194.67 108.19,22.8 191.86,8.37 275.81,22.76 275.81,194.68 191.98,238.4 				"/>
				<g>
					<path fill="#FFCF31" d="M191.86,14.44l68.71,11.77c5.51,0.94,9.55,5.95,9.55,11.83v145.48c0,4.55-2.45,8.71-6.33,10.74
						l-66.76,34.82c-3.19,1.66-6.92,1.66-10.11,0l-66.72-34.82c-3.87-2.02-6.33-6.18-6.33-10.73V38.07c0-5.87,4.04-10.87,9.54-11.82
						L191.86,14.44 M191.85,2.3l-1.83,0.32l-77.98,13.45l0,0c-5.5,0.95-9.54,5.95-9.54,11.82v0v163.06v0
						c0,4.55,2.45,8.71,6.33,10.73l0,0l78.1,40.76l0,0c3.18,1.66,6.92,1.66,10.11,0h0l78.14-40.75l0,0
						c3.88-2.02,6.33-6.18,6.33-10.74v0V27.85v0c0-5.87-4.05-10.88-9.55-11.83l0,0L193.69,2.62L191.85,2.3L191.85,2.3z"/>
				</g>
			</g>
			<g>
				<path fill="#FFCF31" d="M220.86,125.5c-2.92-0.41-4.97-3.09-4.61-6.01l0.13-1.06c0.42-3.34,7.54-31.57,14.81-48.17
					c2.55-5.82,6.57-10.87,11.64-14.7c0.51-0.39,1.03-0.77,1.55-1.15c3.85-2.82,9.27-0.08,9.27,4.69l0,106.17
					c0,3.96-3.19,7.18-7.16,7.21c-7.48,0.05-19.04,0.13-25.74,0.15c-1.11,0-1.59,0.25-1.83,1.33c-1.9,8.41-5.75,15.98-11.69,22.54
					c-2.42,2.68-5.18,5.13-8.03,7.42l-0.08,0.06c-4.43,3.53-10.75,3.42-15.03-0.29c-0.47-0.41-0.88-0.75-1.19-1.01
					c-8.61-7.06-14.38-15.86-17.44-26.27c-0.26-0.87-0.41-1.77-0.63-2.65c-0.25-1.01-0.8-1.21-2.37-1.07
					c-5.25,0.45-17.07,0.57-24.87,0.61c-3.99,0.02-7.24-3.22-7.24-7.21l0-106.21c0-4.91,5.7-7.61,9.5-4.51
					c5.21,4.24,11.12,9.53,13.78,13.46c5.55,8.21,12.45,39.18,13.85,50.08c0.03,0.22,0.06,0.43,0.08,0.65
					c0.36,2.85-1.58,5.5-4.41,5.98c-0.39,0.07-0.7,0.13-0.9,0.2c-3.43,1.21-5.89,4.1-6.38,7.79c-0.62,4.66,2.29,6.65,7.03,7.94
					c2.16,0.59,4.39,0.99,6.61,1.37c0.44,0.08,0.99-0.18,1.22-0.57c8.06-13.57,15.99-30.06,16.04-41.18
					c0-8.87-1.92-36.07-2.53-47.08c-0.21-3.84,0-8.03,1.28-11.8c2.11-6.24,11.06-6.34,13.07-0.06c1.01,3.16,1.28,7.29,0.92,13.28
					c-0.72,11.74-2.34,40.55-2.34,46.19c0,11.48,7.58,28.25,13.11,38.04c1.66,4.03,3.38,3.39,4.3,3.17
					c1.96-0.46,3.98-0.74,5.94-1.22c4.54-1.11,7.46-2.46,7.45-6.93c-0.02-4.29-2.78-7.96-6.98-9.14
					C220.97,125.52,220.93,125.51,220.86,125.5z M140.38,129.82c1.54,0,3-0.04,4.46,0.01c0.99,0.04,1.43-0.3,1.76-1.2
					c1.6-4.38,4.4-7.95,8.77-10.22c1.43-0.75,1.57-1.54,1.4-2.87c-1.22-9.14-7.01-34.99-12.27-42.36c-1.2-1.68-2.53-3.28-3.81-4.92
					c-0.1,0.06-0.2,0.11-0.3,0.17C140.38,92,140.38,106.15,140.38,129.82z M243.41,68.29c-0.23,0.1-0.33,0.12-0.39,0.18
					c-5.77,6.43-14.54,36.32-16.07,48.21c-0.05,0.41,0.36,1.08,0.77,1.29c4.75,2.52,7.87,6.25,9.66,11.03
					c0.12,0.33,0.55,0.77,0.86,0.78c1.65,0.08,3.3,0.04,5.17,0.04C243.41,106.17,243.41,92,243.41,68.29z M140.4,139.45v20.36
					c0,1.66,1.35,3.01,3.01,3.01h19.78c0.7-4.73,1.4-6.24,2.1-10.98c-1.5-0.33-3.1-0.58-4.63-1.02c-6.94-1.98-11.7-3.78-14.08-10.23
					c-0.24-0.64-0.44-1.19-1.37-1.16C143.66,139.49,142.09,139.45,140.4,139.45z M220.59,162.82c0.02,0.01,0.1,0.06,0.19,0.06
					c5.28,0.01,14.84-0.01,19.7-0.01c1.67,0,3-1.36,3.01-3.02c0-5.01,0.01-9.56,0.01-14.79c0-2.55,0-2.75,0-5.59
					c-1.57,0-2.99,0.06-4.4-0.02c-1.04-0.06-2.12-0.28-2.51,0.65c-0.72,1.66-1.24,2.36-2.3,3.84c-3.21,4.46-7.42,6.3-13.06,7.34
					c-0.97,0.18-1.93,0.42-2.7,0.59C219.22,156.65,219.9,158.09,220.59,162.82z M203.22,145.32c-4.69-7.6-8.47-13.01-11.32-21.21
					c-2.88,8.22-6.61,13.67-11.31,21.2c4.51,1.46,8.25,3.77,11.33,7.16C194.94,149.02,198.7,146.78,203.22,145.32z M197.11,192.83
					c5.89-5.94,9.72-12.51,11.67-20.15c-3.98,0-7.8,0-11.67,0C197.11,179.36,197.11,185.91,197.11,192.83z M186.64,192.79
					c0-6.93,0-13.5,0-20.14c-3.88,0-7.67,0-11.6,0C176.94,180.33,180.79,186.88,186.64,192.79z M197.06,162.82
					c4.39,0,8.56,0,12.86,0c0.05-3.63-0.5-3.95-1.39-7.39c-0.3-1.15-0.93-1.28-2-1c-3.01,0.77-5.25,1.65-7.73,4.21
					C197.29,160.64,197.06,161.41,197.06,162.82z M186.6,162.86c0.05-0.28,0.11-0.44,0.11-0.61c0.06-4.95-4.66-7.07-9.87-7.94
					c-1.08-0.18-1.28,0.31-1.57,1.1c-0.61,1.63-0.97,3.07-1.43,6.18c-0.06,0.4,0.03,0.82,0.06,1.27
					C178.2,162.86,182.33,162.86,186.6,162.86z"/>
			</g>
		</g>
		<g>
			<defs>
				<path id="SVGID_1_" d="M271.95,16.03L193.69,2.62l0,0c-1.22-0.21-2.45-0.21-3.67,0l0,0l-77.98,13.45l0,0
					c-5.5,0.95-9.54,5.95-9.54,11.82v0v163.06v0c0,4.55,2.45,8.71,6.33,10.73l0,0l78.1,40.76l0,0c3.18,1.66,6.92,1.66,10.11,0h0
					l78.14-40.75l0,0c3.88-2.02,6.33-6.18,6.33-10.74v0V27.85v0C281.5,21.98,277.46,16.97,271.95,16.03L271.95,16.03z"/>
			</defs>
			<clipPath id="SVGID_2_">
				<use xlink:href="#SVGID_1_"  overflow="visible"/>
			</clipPath>
		</g>
	</g>
	<path opacity="0.3" fill="#FFFFFF" d="M191.85,2.3l-1.83,0.32l-77.98,13.45h0c-1.72,0.3-3.3,0.99-4.65,1.98
		c-0.27,0.2-0.53,0.41-0.79,0.63c-1.01,0.89-1.87,1.95-2.54,3.14c-0.17,0.3-0.32,0.6-0.46,0.92c-0.43,0.94-0.74,1.95-0.92,3
		c-0.12,0.7-0.18,1.42-0.18,2.15v0v163.06l0,0l0,0c0,1.71,0.34,3.36,0.98,4.86c0.42,1,0.98,1.94,1.64,2.79
		c0.33,0.42,0.69,0.82,1.08,1.19c0.77,0.75,1.65,1.38,2.62,1.89l0,0l78.1,40.76h0c0.4,0.21,0.8,0.39,1.22,0.55
		c0.83,0.31,1.68,0.52,2.54,0.62c0.43,0.05,1.3,0.08,1.3,0.08L191.85,2.3z"/>
	<g>
		<polygon fill="#EC5463" points="80.24,33.39 80.24,22.22 69.07,22.22 69.07,11.06 57.84,11.06 57.84,68.02 69.01,68.02 
			69.01,79.19 80.18,79.19 80.18,90.36 91.41,90.36 91.41,33.39 		"/>
		<polygon fill="#EC5463" points="57.9,79.16 69.07,79.16 69.07,90.33 80.24,90.33 80.24,101.55 23.28,101.55 23.28,90.38 
			12.11,90.38 12.11,79.21 0.94,79.21 0.94,67.99 57.9,67.99 		"/>
		<polygon fill="#EC5463" points="80.24,180.98 80.24,192.15 69.07,192.15 69.07,203.32 57.84,203.32 57.84,146.36 69.01,146.36 
			69.01,135.19 80.18,135.19 80.18,124.02 91.41,124.02 91.41,180.98 		"/>
		<polygon fill="#EC5463" points="57.9,135.22 69.07,135.22 69.07,124.05 80.24,124.05 80.24,112.82 23.28,112.82 23.28,123.99 
			12.11,123.99 12.11,135.16 0.94,135.16 0.94,146.39 57.9,146.39 		"/>
	</g>
	<g>
		<polygon fill="#D9434E" points="303.76,33.39 303.76,22.22 314.93,22.22 314.93,11.06 326.16,11.06 326.16,68.02 314.99,68.02 
			314.99,79.19 303.82,79.19 303.82,90.36 292.59,90.36 292.59,33.39 		"/>
		<polygon fill="#D9434E" points="326.1,79.16 314.93,79.16 314.93,90.33 303.76,90.33 303.76,101.55 360.72,101.55 360.72,90.38 
			371.89,90.38 371.89,79.21 383.06,79.21 383.06,67.99 326.1,67.99 		"/>
		<polygon fill="#D9434E" points="303.76,180.98 303.76,192.15 314.93,192.15 314.93,203.32 326.16,203.32 326.16,146.36 
			314.99,146.36 314.99,135.19 303.82,135.19 303.82,124.02 292.59,124.02 292.59,180.98 		"/>
		<polygon fill="#D9434E" points="326.1,135.22 314.93,135.22 314.93,124.05 303.76,124.05 303.76,112.82 360.72,112.82 
			360.72,123.99 371.89,123.99 371.89,135.16 383.06,135.16 383.06,146.39 326.1,146.39 		"/>
	</g>
</g>
</svg>
