<?xml version="1.0" encoding="iso-8859-1"?>
<!-- Generator: Adobe Illustrator 19.0.0, SVG Export Plug-In . SVG Version: 6.00 Build 0)  -->
<svg version="1.1" id="Layer_1" xmlns="http://www.w3.org/2000/svg" xmlns:xlink="http://www.w3.org/1999/xlink" x="0px" y="0px"
	 viewBox="0 0 512 512" style="enable-background:new 0 0 512 512;" xml:space="preserve">
<path style="fill:#D6BAED;" d="M503.83,95.319c0-12.033-9.754-21.787-21.787-21.787h-10.894c18.05,0,32.681-14.631,32.681-32.681
	S489.199,8.17,471.149,8.17c-7.173,0-14.186,0.757-20.975,2.168l-0.813,281.066h32.681c12.033,0,21.787-9.754,21.787-21.787
	s-9.754-21.787-21.787-21.787c12.033,0,21.787-9.754,21.787-21.787s-9.754-21.787-21.787-21.787
	c12.033,0,21.787-9.754,21.787-21.787s-9.754-21.787-21.787-21.787c12.033,0,21.787-9.754,21.787-21.787
	s-9.754-21.787-21.787-21.787C494.076,117.106,503.83,107.352,503.83,95.319z"/>
<path style="fill:#E4D1F3;" d="M471.149,269.617c0-12.033-9.754-21.787-21.787-21.787c12.033,0,21.787-9.754,21.787-21.787
	s-9.754-21.787-21.787-21.787c12.033,0,21.787-9.754,21.787-21.787s-9.754-21.787-21.787-21.787
	c12.033,0,21.787-9.754,21.787-21.787s-9.754-21.787-21.787-21.787c12.033,0,21.787-9.754,21.787-21.787
	s-9.754-21.787-21.787-21.787h-10.894c18.05,0,32.681-14.631,32.681-32.681c0-13.922-8.709-25.804-20.975-30.513
	c-34.455,7.16-63.029,31.496-76.375,63.048l-65.107,162.731H203.308L138.2,73.386C122.225,35.618,84.439,8.17,40.851,8.17
	C22.801,8.17,8.17,22.801,8.17,40.851s14.631,32.681,32.681,32.681H29.957c-12.033,0-21.787,9.754-21.787,21.787
	s9.754,21.787,21.787,21.787c-12.033,0-21.787,9.754-21.787,21.787s9.754,21.787,21.787,21.787
	c-12.033,0-21.787,9.754-21.787,21.787s9.754,21.787,21.787,21.787c-12.033,0-21.787,9.754-21.787,21.787
	s9.754,21.787,21.787,21.787c-12.033,0-21.787,9.754-21.787,21.787c0,12.033,9.754,21.787,21.787,21.787h73.532
	c0,36.098,29.264,65.362,65.362,65.362h174.298c36.098,0,65.362-29.264,65.362-65.362h40.851
	C461.395,291.404,471.149,281.65,471.149,269.617z"/>
<path style="fill:#D6BAED;" d="M320.133,474.882l-43.549-125.277h-41.167l-21.444,61.688l61.2,52.263l9.877,34.692
	c3.856,3.459,8.937,5.581,14.524,5.581c12.033,0,21.787-9.754,21.787-21.787C321.362,479.53,320.915,477.127,320.133,474.882z"/>
<path style="fill:#E4D1F3;" d="M213.972,411.294l-22.105,63.588c-0.782,2.245-1.229,4.648-1.229,7.16
	c0,12.033,9.754,21.787,21.787,21.787s21.787-9.754,21.787-21.787c0,12.033,9.754,21.787,21.787,21.787
	c12.033,0,21.787-9.754,21.787-21.787c0,6.445,2.815,12.218,7.263,16.206c2.223-3.989,3.631-9.762,3.631-16.206
	c0-2.512-0.223-4.915-0.614-7.16l-9.679-55.684c-7.148,1.902-14.649,2.928-22.387,2.928
	C240.769,422.128,226.443,418.19,213.972,411.294z"/>
<path style="fill:#F1E8F9;" d="M288.681,204.254v-70.807c0-18.05-14.631-32.681-32.681-32.681v288.681
	c30.082,0,54.468-24.386,54.468-54.468V247.83C310.468,230.011,301.91,214.192,288.681,204.254z"/>
<path style="fill:#FFFFFF;" d="M269.072,204.254v-70.807c0-18.05-5.853-32.681-13.072-32.681c-18.05,0-32.681,14.631-32.681,32.681
	v70.807c-13.229,9.937-21.787,25.756-21.787,43.576v87.149c0,30.082,24.386,54.468,54.468,54.468
	c12.033,0,21.787-24.386,21.787-54.468V247.83C277.787,230.011,274.363,214.192,269.072,204.254z"/>
<path d="M512,95.319c0-10.209-5.132-19.241-12.954-24.652C507.014,63.207,512,52.601,512,40.851C512,18.325,493.675,0,471.149,0
	c-22.676,0-44.687,6.874-63.65,19.878c-18.371,12.597-32.626,30-41.224,50.326c-0.022,0.049-0.041,0.098-0.061,0.147L308.745,213.99
	c-3.243-5.034-7.22-9.639-11.895-13.648v-66.896c0-22.526-18.325-40.851-40.851-40.851s-40.851,18.325-40.851,40.851v66.896
	c-4.674,4.009-8.652,8.614-11.895,13.648L145.786,70.351c-0.02-0.049-0.04-0.098-0.061-0.147
	c-8.597-20.326-22.853-37.729-41.225-50.326C85.537,6.874,63.527,0,40.851,0C18.325,0,0,18.325,0,40.851
	c0,11.75,4.986,22.356,12.954,29.816C5.132,76.078,0,85.11,0,95.319c0,8.577,3.622,16.321,9.416,21.787
	C3.622,122.573,0,130.317,0,138.894c0,8.577,3.622,16.321,9.416,21.787C3.622,166.147,0,173.892,0,182.468
	c0,8.577,3.622,16.321,9.416,21.787C3.622,209.722,0,217.466,0,226.043c0,8.577,3.622,16.321,9.416,21.787
	C3.622,253.296,0,261.04,0,269.617c0,16.519,13.438,29.957,29.957,29.957H95.77c4.077,36.715,35.296,65.362,73.081,65.362h2.758
	c4.512,0,8.17-3.658,8.17-8.17c0-4.512-3.658-8.17-8.17-8.17h-2.758c-31.536,0-57.191-25.656-57.191-57.191
	c0-4.512-3.658-8.17-8.17-8.17h-8.17c-7.509,0-13.617-6.108-13.617-13.617S87.81,256,95.319,256c4.512,0,8.17-3.658,8.17-8.17
	c0-4.512-3.658-8.17-8.17-8.17c-7.509,0-13.617-6.108-13.617-13.617c0-7.509,6.108-13.617,13.617-13.617
	c4.512,0,8.17-3.658,8.17-8.17s-3.658-8.17-8.17-8.17c-16.519,0-29.957,13.438-29.957,29.957c0,8.577,3.622,16.321,9.416,21.787
	c-5.794,5.466-9.416,13.211-9.416,21.787c0,4.902,1.191,9.529,3.288,13.617H29.957c-7.509,0-13.617-6.108-13.617-13.617
	S22.448,256,29.957,256c4.512,0,8.17-3.658,8.17-8.17c0-4.512-3.658-8.17-8.17-8.17c-7.509,0-13.617-6.108-13.617-13.617
	c0-7.509,6.108-13.617,13.617-13.617c4.512,0,8.17-3.658,8.17-8.17s-3.658-8.17-8.17-8.17c-7.509,0-13.617-6.108-13.617-13.617
	s6.108-13.617,13.617-13.617c4.512,0,8.17-3.658,8.17-8.17s-3.658-8.17-8.17-8.17c-7.509,0-13.617-6.108-13.617-13.617
	s6.108-13.617,13.617-13.617c4.512,0,8.17-3.658,8.17-8.17c0-4.512-3.658-8.17-8.17-8.17c-7.509,0-13.617-6.108-13.617-13.617
	s6.108-13.617,13.617-13.617h10.894c4.512,0,8.17-3.658,8.17-8.17c0-4.512-3.658-8.17-8.17-8.17
	c-13.516,0-24.511-10.995-24.511-24.511S27.335,16.34,40.851,16.34c38.464,0,74.538,24.172,89.794,60.157l63.833,159.547
	c-0.723,3.839-1.117,7.777-1.117,11.786v87.149c0,19.018,8.531,36.071,21.954,47.568l-31.164,89.648
	c-1.117,3.207-1.683,6.52-1.683,9.848c0,16.519,13.438,29.957,29.957,29.957c8.577,0,16.321-3.622,21.787-9.416
	C239.679,508.378,247.423,512,256,512c8.575,0,16.321-3.622,21.787-9.416c5.466,5.794,13.212,9.416,21.787,9.416
	c16.518,0,29.957-13.438,29.957-29.957c0-3.327-0.566-6.64-1.682-9.843l-31.166-89.651c13.423-11.497,21.954-28.551,21.954-47.569
	V247.83c0-4.009-0.393-7.946-1.117-11.786l63.833-159.548c15.255-35.984,51.33-60.156,89.794-60.156
	c13.515,0,24.511,10.995,24.511,24.511s-10.996,24.511-24.511,24.511c-4.513,0-8.17,3.658-8.17,8.17c0,4.512,3.657,8.17,8.17,8.17
	h10.894c7.509,0,13.617,6.108,13.617,13.617s-6.108,13.617-13.617,13.617c-4.513,0-8.17,3.658-8.17,8.17
	c0,4.512,3.657,8.17,8.17,8.17c7.509,0,13.617,6.108,13.617,13.617s-6.108,13.617-13.617,13.617c-4.513,0-8.17,3.658-8.17,8.17
	s3.657,8.17,8.17,8.17c7.509,0,13.617,6.108,13.617,13.617s-6.108,13.617-13.617,13.617c-4.513,0-8.17,3.658-8.17,8.17
	s3.657,8.17,8.17,8.17c7.509,0,13.617,6.108,13.617,13.617c0,7.509-6.108,13.617-13.617,13.617c-4.513,0-8.17,3.658-8.17,8.17
	c0,4.512,3.657,8.17,8.17,8.17c7.509,0,13.617,6.108,13.617,13.617s-6.108,13.617-13.617,13.617h-38.692
	c2.096-4.088,3.288-8.715,3.288-13.617c0-8.577-3.621-16.321-9.416-21.787c5.794-5.466,9.416-13.211,9.416-21.787
	c0-16.519-13.439-29.957-29.957-29.957c-4.513,0-8.17,3.658-8.17,8.17s3.657,8.17,8.17,8.17c7.509,0,13.617,6.108,13.617,13.617
	c0,7.509-6.108,13.617-13.617,13.617c-4.513,0-8.17,3.658-8.17,8.17c0,4.512,3.657,8.17,8.17,8.17
	c7.509,0,13.617,6.108,13.617,13.617s-6.108,13.617-13.617,13.617h-8.17c-4.513,0-8.17,3.658-8.17,8.17
	c0,31.536-25.657,57.191-57.191,57.191h-2.757c-4.513,0-8.17,3.658-8.17,8.17c0,4.512,3.657,8.17,8.17,8.17h2.757
	c37.784,0,69.003-28.647,73.081-65.362h65.813c16.518,0,29.957-13.438,29.957-29.957c0-8.577-3.621-16.321-9.416-21.787
	c5.794-5.466,9.416-13.211,9.416-21.787c0-8.577-3.621-16.321-9.416-21.787c5.794-5.466,9.416-13.211,9.416-21.787
	c0-8.577-3.621-16.321-9.416-21.787c5.794-5.466,9.416-13.211,9.416-21.787c0-8.577-3.621-16.321-9.416-21.787
	C508.379,111.64,512,103.896,512,95.319z M312.417,477.57c0.514,1.475,0.775,2.979,0.775,4.473c0,7.509-6.108,13.617-13.617,13.617
	c-7.509,0-13.617-6.108-13.617-13.617c0-4.512-3.657-8.17-8.17-8.17c-4.513,0-8.17,3.658-8.17,8.17
	c0,7.509-6.108,13.617-13.617,13.617s-13.617-6.108-13.617-13.617c0-4.512-3.658-8.17-8.17-8.17c-4.512,0-8.17,3.658-8.17,8.17
	c0,7.509-6.108,13.617-13.617,13.617c-7.509,0-13.617-6.108-13.617-13.617c0-1.494,0.26-2.998,0.776-4.477l29.853-85.877
	c8.07,3.795,17.07,5.928,26.563,5.928c9.493,0,18.493-2.133,26.562-5.928L312.417,477.57z M302.298,334.979
	c0,25.529-20.769,46.298-46.298,46.298c-25.529,0-46.298-20.769-46.298-46.298V247.83c0-3.553,0.403-7.035,1.168-10.4
	c0.053-0.2,0.101-0.402,0.141-0.606c2.489-10.305,8.461-19.46,17.215-26.037c2.055-1.544,3.264-3.963,3.264-6.533v-70.809
	c0-13.516,10.995-24.511,24.511-24.511c13.515,0,24.511,10.995,24.511,24.511v70.809c0,2.57,1.208,4.989,3.263,6.533
	c8.755,6.576,14.727,15.733,17.216,26.038c0.038,0.203,0.086,0.402,0.139,0.601c0.766,3.366,1.169,6.849,1.169,10.403
	L302.298,334.979L302.298,334.979z"/>
<path d="M416.681,152.511c-4.513,0-8.17,3.658-8.17,8.17s3.657,8.17,8.17,8.17c16.518,0,29.957-13.438,29.957-29.957
	s-13.439-29.957-29.957-29.957c-4.513,0-8.17,3.658-8.17,8.17c0,4.512,3.657,8.17,8.17,8.17c7.509,0,13.617,6.108,13.617,13.617
	S424.19,152.511,416.681,152.511z"/>
<path d="M95.319,125.277c4.512,0,8.17-3.658,8.17-8.17c0-4.512-3.658-8.17-8.17-8.17c-16.519,0-29.957,13.438-29.957,29.957
	s13.438,29.957,29.957,29.957c4.512,0,8.17-3.658,8.17-8.17s-3.658-8.17-8.17-8.17c-7.509,0-13.617-6.108-13.617-13.617
	S87.81,125.277,95.319,125.277z"/>
<path d="M256,125.277c-4.512,0-8.17,3.658-8.17,8.17v21.787c0,4.512,3.658,8.17,8.17,8.17c4.513,0,8.17-3.658,8.17-8.17v-21.787
	C264.17,128.935,260.513,125.277,256,125.277z"/>
<g>
</g>
<g>
</g>
<g>
</g>
<g>
</g>
<g>
</g>
<g>
</g>
<g>
</g>
<g>
</g>
<g>
</g>
<g>
</g>
<g>
</g>
<g>
</g>
<g>
</g>
<g>
</g>
<g>
</g>
</svg>
