<?xml version="1.0" encoding="iso-8859-1"?>
<!-- Generator: Adobe Illustrator 19.1.0, SVG Export Plug-In . SVG Version: 6.00 Build 0)  -->
<svg version="1.1" id="Capa_1" xmlns="http://www.w3.org/2000/svg" xmlns:xlink="http://www.w3.org/1999/xlink" x="0px" y="0px"
	 viewBox="0 0 470 470" style="enable-background:new 0 0 470 470;" xml:space="preserve">
<g>
	<path style="fill:#F6E3DE;" d="M366.458,156.729c0-4.001-3.255-7.257-7.257-7.257c-3.954,0-7.17,3.256-7.17,7.257
		c-0.024,9.072-0.047,21.756-0.045,30.322c0.09-0.001,0.18-0.009,0.271-0.009h14.202V156.729z"/>
	<path style="fill:#F6E3DE;" d="M403.516,311.896c-4.142,0-7.5-3.358-7.5-7.5s3.358-7.5,7.5-7.5
		c28.389,0,51.484-23.096,51.484-51.484v-29.834c-2.276,0.788-4.716,1.221-7.257,1.221c-5.656,0-10.826-2.121-14.757-5.609
		c-3.931,3.488-9.101,5.609-14.757,5.609c-2.39,0-4.69-0.383-6.85-1.083c-2.761,9.154-11.268,15.841-21.31,15.841h-15.556l0,10.826
		l27.774,11.938c3.805,1.636,5.564,6.047,3.929,9.853c-1.221,2.84-3.987,4.54-6.894,4.54c-0.988,0-1.993-0.196-2.958-0.611
		l-32.312-13.889c-2.753-1.184-4.538-3.893-4.538-6.891l0-23.266c0-1.989,0.79-3.896,2.197-5.303
		c1.406-1.407,3.314-2.197,5.303-2.197h23.056c4.001,0,7.257-3.256,7.257-7.257s-3.255-7.257-7.257-7.257h-37.812
		c-1.331,0-2.629,0.361-3.755,1.044c-0.082,0.05-0.167,0.089-0.25,0.135c-2.036,1.32-3.252,3.572-3.252,6.078v34.551
		c0,19.574,10.54,37.831,27.506,47.646c2.317,1.34,3.744,3.814,3.744,6.492l0,163.249h54.444V306.064
		C422.39,309.8,413.196,311.896,403.516,311.896z"/>
	<path style="fill:#F6E3DE;" d="M395.972,156.729c0-4.001-3.255-7.257-7.257-7.257s-7.257,3.256-7.257,7.257v30.313h8.611
		c2.044,0,4.022,0.282,5.903,0.801V156.729z"/>
	<path style="fill:#F6E3DE;" d="M425.486,170.618v-13.889c0-4.001-3.255-7.257-7.257-7.257s-7.257,3.256-7.257,7.257v37.813
		c0,4.001,3.255,7.257,7.257,7.257s7.257-3.256,7.257-7.257C425.486,194.542,425.486,170.627,425.486,170.618z"/>
	<path style="fill:#F6E3DE;" d="M447.743,163.36c-3.998,0-7.252,3.251-7.257,7.248v23.933c0,4.001,3.255,7.257,7.257,7.257
		s7.257-3.256,7.257-7.257v-23.924C455,166.616,451.745,163.36,447.743,163.36z"/>
	<path style="fill:#3E2C3A;" d="M447.743,148.36c-2.935,0-5.739,0.571-8.307,1.607c-2.868-8.978-11.291-15.497-21.208-15.497
		c-5.656,0-10.826,2.121-14.757,5.609c-3.931-3.488-9.101-5.609-14.757-5.609s-10.826,2.121-14.757,5.609
		c-3.931-3.488-9.101-5.609-14.757-5.609c-12.225,0-22.17,9.984-22.17,22.238c-0.056,21.452-0.059,31.504-0.033,36.324
		c-4.444,4.144-6.999,9.963-6.999,16.266v34.551c0,23.437,11.869,45.387,31.25,58.302l0,159.084c0,4.142,3.358,7.5,7.5,7.5
		s7.5-3.358,7.5-7.5l0-163.249c0-2.677-1.427-5.151-3.744-6.492C355.54,281.68,345,263.423,345,243.85v-34.551
		c0-2.506,1.216-4.758,3.252-6.078c0.083-0.046,0.168-0.085,0.25-0.135c1.125-0.683,2.424-1.044,3.755-1.044h37.812
		c4.001,0,7.257,3.256,7.257,7.257s-3.255,7.257-7.257,7.257h-23.056c-1.989,0-3.897,0.79-5.303,2.197
		c-1.407,1.407-2.197,3.314-2.197,5.303l0,23.266c0,2.998,1.785,5.707,4.538,6.891l32.312,13.889
		c0.966,0.415,1.97,0.611,2.958,0.611c2.907,0,5.673-1.7,6.894-4.54c1.636-3.806-0.124-8.217-3.929-9.853l-27.774-11.938l0-10.826
		h15.556c10.042,0,18.548-6.687,21.31-15.841c2.159,0.7,4.46,1.083,6.85,1.083c5.656,0,10.827-2.121,14.757-5.609
		c3.931,3.488,9.101,5.609,14.757,5.609c2.541,0,4.981-0.434,7.257-1.221v29.834c0,28.389-23.096,51.484-51.484,51.484
		c-4.142,0-7.5,3.358-7.5,7.5s3.358,7.5,7.5,7.5c9.68,0,18.875-2.097,27.179-5.833v155.172c0,4.142,3.358,7.5,7.5,7.5
		s7.5-3.358,7.5-7.5V296.764C460.525,284.561,470,266.073,470,245.412v-74.794C470,158.345,460.016,148.36,447.743,148.36z
		 M351.986,187.051c-0.002-8.567,0.021-21.25,0.045-30.322c0-4.001,3.217-7.257,7.17-7.257c4.001,0,7.257,3.256,7.257,7.257v30.313
		h-14.202C352.166,187.042,352.077,187.05,351.986,187.051z M390.069,187.042h-8.611v-30.313c0-4.001,3.255-7.257,7.257-7.257
		s7.257,3.256,7.257,7.257v31.114C394.091,187.324,392.113,187.042,390.069,187.042z M418.229,201.799
		c-4.001,0-7.257-3.256-7.257-7.257v-37.813c0-4.001,3.255-7.257,7.257-7.257s7.257,3.256,7.257,7.257v13.889
		c0,0.01,0,23.924,0,23.924C425.486,198.543,422.23,201.799,418.229,201.799z M447.743,201.799c-4.001,0-7.257-3.256-7.257-7.257
		v-23.933c0.005-3.997,3.259-7.248,7.257-7.248c4.001,0,7.257,3.256,7.257,7.257v23.924
		C455,198.543,451.745,201.799,447.743,201.799z"/>
	<path style="fill:#AE8B81;" d="M102.361,182.804c0-4.587-3.732-8.32-8.319-8.32s-8.319,3.732-8.319,8.32v40.536
		c0,4.587,3.732,8.319,8.319,8.319s8.319-3.732,8.319-8.319V182.804z"/>
	<path style="fill:#AE8B81;" d="M78.269,348.604c-4.142,0-7.5-3.358-7.5-7.5s3.358-7.5,7.5-7.5c30.73,0,55.731-25.001,55.731-55.731
		V245.12c-2.586,0.991-5.389,1.54-8.319,1.54c-6.1,0-11.66-2.354-15.82-6.201c-4.16,3.847-9.72,6.201-15.819,6.201
		c-2.701,0-5.293-0.467-7.707-1.315c-2.718,9.865-11.763,17.135-22.48,17.135H46.639l0,12.501l30.101,12.938
		c3.805,1.636,5.564,6.047,3.929,9.853c-1.221,2.84-3.987,4.54-6.894,4.54c-0.988,0-1.993-0.196-2.958-0.611l-34.639-14.889
		c-2.753-1.184-4.538-3.893-4.538-6.891l0-24.941c0-1.989,0.79-3.896,2.197-5.303c1.406-1.407,3.314-2.197,5.303-2.197h24.715
		c4.587,0,8.319-3.732,8.319-8.32s-3.732-8.32-8.319-8.32H23.319c-1.526,0-3.015,0.415-4.306,1.198
		c-0.088,0.053-0.179,0.095-0.268,0.145c-2.345,1.514-3.746,4.1-3.746,6.977v37.039c0,21.175,11.402,40.926,29.756,51.544
		c2.317,1.34,3.744,3.814,3.744,6.492l0,128.267h59.444V342.054C98.913,346.247,88.863,348.604,78.269,348.604z"/>
	<path style="fill:#AE8B81;" d="M39.083,182.804c-0.002-4.59-3.734-8.32-8.319-8.32c-4.536,0-8.226,3.732-8.226,8.32
		c-0.027,10.266-0.052,24.008-0.049,33.063c0.277-0.01,0.553-0.028,0.831-0.028h15.764V182.804z"/>
	<path style="fill:#AE8B81;" d="M70.722,182.804c0-4.587-3.732-8.32-8.319-8.32s-8.319,3.732-8.319,8.32c0,0.01,0,33.035,0,33.035
		h9.771c2.39,0,4.696,0.363,6.868,1.033V182.804z"/>
	<path style="fill:#AE8B81;" d="M125.68,189.374c-4.587,0-8.319,3.732-8.319,8.32v25.646c0,4.587,3.732,8.319,8.32,8.319
		S134,227.927,134,223.34v-25.646C134,193.106,130.268,189.374,125.68,189.374z"/>
	<path style="fill:#3E2C3A;" d="M125.68,174.374c-3.283,0-6.41,0.682-9.247,1.912c-2.827-9.696-11.795-16.801-22.392-16.801
		c-6.1,0-11.66,2.354-15.819,6.201c-4.16-3.847-9.72-6.201-15.819-6.201s-11.66,2.354-15.819,6.201
		c-4.16-3.847-9.72-6.201-15.82-6.201c-12.807,0-23.226,10.461-23.226,23.3c-0.061,23.381-0.062,34.124-0.034,39.173
		C2.742,226.309,0,232.474,0,239.159v37.039c0,25.041,12.729,48.487,33.5,62.21l0,124.092c0,4.142,3.358,7.5,7.5,7.5
		s7.5-3.358,7.5-7.5l0-128.267c0-2.677-1.427-5.151-3.744-6.492C26.402,317.124,15,297.373,15,276.198v-37.039
		c0-2.877,1.401-5.463,3.746-6.977c0.089-0.049,0.18-0.091,0.268-0.145c1.291-0.784,2.78-1.198,4.306-1.198h40.535
		c4.587,0,8.319,3.732,8.319,8.32s-3.732,8.32-8.319,8.32H39.139c-1.989,0-3.897,0.79-5.303,2.197
		c-1.407,1.407-2.197,3.314-2.197,5.303l0,24.941c0,2.998,1.785,5.707,4.538,6.891L70.816,301.7c0.966,0.415,1.97,0.611,2.958,0.611
		c2.907,0,5.673-1.7,6.894-4.54c1.636-3.806-0.124-8.217-3.929-9.853L46.639,274.98l0-12.501h17.215
		c10.717,0,19.763-7.27,22.48-17.135c2.414,0.848,5.007,1.315,7.707,1.315c6.1,0,11.66-2.354,15.819-6.201
		c4.16,3.847,9.72,6.201,15.82,6.201c2.93,0,5.734-0.549,8.319-1.54v32.753c0,30.73-25.001,55.731-55.731,55.731
		c-4.142,0-7.5,3.358-7.5,7.5s3.358,7.5,7.5,7.5c10.595,0,20.644-2.357,29.676-6.55V462.5c0,4.142,3.358,7.5,7.5,7.5
		s7.5-3.358,7.5-7.5V332.66C138.834,319.679,149,299.943,149,277.873v-80.179C149,184.835,138.539,174.374,125.68,174.374z
		 M22.488,215.868c-0.003-9.056,0.022-22.797,0.049-33.063c0-4.587,3.69-8.32,8.226-8.32c4.586,0,8.317,3.73,8.32,8.315
		c0,0.005,0,33.04,0,33.04H23.319C23.041,215.839,22.765,215.858,22.488,215.868z M63.854,215.839h-9.771v-33.025
		c0-4.597,3.732-8.33,8.32-8.33s8.319,3.732,8.319,8.32v34.069C68.55,216.202,66.244,215.839,63.854,215.839z M94.042,231.659
		c-4.587,0-8.319-3.732-8.319-8.319v-40.536c0-4.587,3.732-8.32,8.319-8.32s8.319,3.732,8.319,8.32v40.536
		C102.361,227.927,98.629,231.659,94.042,231.659z M125.681,231.659c-4.587,0-8.32-3.732-8.32-8.319v-25.646
		c0-4.587,3.732-8.32,8.319-8.32s8.32,3.732,8.32,8.32v25.646C134,227.927,130.268,231.659,125.681,231.659z"/>
	<path style="fill:#E8B9AC;" d="M296.107,32.777c-6.276,0-11.382,5.104-11.387,11.379v30.63c0,6.279,5.108,11.388,11.388,11.388
		c6.276,0,11.382-5.104,11.387-11.379v-30.63C307.495,37.886,302.386,32.777,296.107,32.777z"/>
	<path style="fill:#E8B9AC;" d="M269.719,44.165V26.388c0-6.279-5.108-11.388-11.388-11.388c-6.279,0-11.387,5.109-11.387,11.388
		v48.397c0,6.279,5.108,11.388,11.388,11.388s11.388-5.109,11.388-11.388C269.72,74.786,269.72,44.175,269.719,44.165z"/>
	<path style="fill:#E8B9AC;" d="M231.944,26.388c0-6.279-5.108-11.388-11.388-11.388s-11.388,5.109-11.388,11.388v40.897h13.121
		c3.407,0,6.662,0.656,9.655,1.837V26.388z"/>
	<path style="fill:#E8B9AC;" d="M194.169,26.388c0-6.279-5.108-11.388-11.388-11.388c-6.218,0-11.277,5.109-11.277,11.388
		c-0.034,12.871-0.065,30.278-0.057,41.025c0.811-0.075,1.626-0.127,2.446-0.127h20.276V26.388z"/>
	<path style="fill:#E8B9AC;" d="M239.5,222.891c-4.142,0-7.5-3.358-7.5-7.5s3.358-7.5,7.5-7.5c37.493,0,67.995-30.502,67.995-67.995
		V98.587c-3.449,1.657-7.312,2.587-11.387,2.587c-7.397,0-14.092-3.059-18.888-7.978c-4.796,4.919-11.491,7.978-18.888,7.978
		c-3.622,0-7.076-0.735-10.221-2.061c-2.514,11.95-13.135,20.949-25.821,20.949H200.28l0,17.338l36.819,15.826
		c3.805,1.636,5.564,6.047,3.929,9.853c-1.221,2.84-3.987,4.54-6.894,4.54c-0.988,0-1.993-0.196-2.958-0.611l-41.357-17.777
		c-2.753-1.184-4.538-3.893-4.538-6.891l0-29.778c0-1.989,0.79-3.896,2.197-5.303c1.406-1.407,3.314-2.197,5.303-2.197h29.509
		c6.279,0,11.388-5.109,11.388-11.388s-5.108-11.388-11.388-11.388h-48.397c-2.088,0-4.126,0.568-5.896,1.642
		c-0.106,0.064-0.216,0.116-0.323,0.175c-3.235,2.075-5.168,5.625-5.168,9.572v44.222c0,25.8,13.892,49.863,36.253,62.8
		c2.317,1.34,3.744,3.814,3.744,6.492l0,255.312h73.883V214.214C265.266,219.756,252.745,222.891,239.5,222.891z"/>
	<path style="fill:#3E2C3A;" d="M322.495,74.776V44.165c0-14.55-11.837-26.388-26.388-26.388c-4.323,0-8.406,1.045-12.011,2.896
		C281.478,8.86,270.92,0,258.332,0c-7.396,0-14.091,3.059-18.887,7.978C234.648,3.059,227.954,0,220.557,0
		s-14.092,3.059-18.888,7.978C196.873,3.059,190.178,0,182.781,0c-14.489,0-26.277,11.838-26.277,26.369
		c-0.076,29.09-0.073,41.764-0.038,47.417c-5.678,4.942-8.962,12.103-8.962,19.888v44.222c0,29.669,15.22,57.434,39.998,73.489
		l0,251.115c0,4.142,3.358,7.5,7.5,7.5s7.5-3.358,7.5-7.5l0-255.312c0-2.677-1.427-5.151-3.744-6.492
		c-22.362-12.937-36.253-37-36.253-62.8V93.674c0-3.946,1.933-7.497,5.168-9.572c0.108-0.058,0.217-0.11,0.323-0.175
		c1.77-1.074,3.808-1.642,5.896-1.642h48.397c6.279,0,11.388,5.109,11.388,11.388s-5.108,11.388-11.388,11.388H192.78
		c-1.989,0-3.897,0.79-5.303,2.197c-1.407,1.407-2.197,3.314-2.197,5.303l0,29.778c0,2.998,1.785,5.707,4.538,6.891l41.357,17.777
		c0.966,0.415,1.97,0.611,2.958,0.611c2.907,0,5.673-1.7,6.894-4.54c1.636-3.806-0.124-8.216-3.929-9.853L200.281,137.4l0-17.338
		h22.009c12.686,0,23.307-9,25.821-20.949c3.145,1.327,6.599,2.061,10.221,2.061c7.397,0,14.092-3.059,18.888-7.978
		c4.796,4.919,11.491,7.978,18.888,7.978c4.076,0,7.938-0.93,11.387-2.587v41.309c0,37.493-30.502,67.995-67.995,67.995
		c-4.142,0-7.5,3.358-7.5,7.5s3.358,7.5,7.5,7.5c13.245,0,25.766-3.135,36.886-8.677V462.5c0,4.142,3.358,7.5,7.5,7.5
		s7.5-3.358,7.5-7.5V204.604c18.948-15.224,31.109-38.567,31.109-64.708C322.495,139.896,322.495,74.805,322.495,74.776z
		 M171.447,67.413c-0.007-10.747,0.024-28.153,0.057-41.025c0-6.279,5.059-11.388,11.277-11.388c6.279,0,11.388,5.109,11.388,11.388
		v40.897h-20.276C173.073,67.286,172.258,67.338,171.447,67.413z M222.29,67.286h-13.121V26.388c0-6.279,5.108-11.388,11.388-11.388
		s11.388,5.109,11.388,11.388v42.735C228.952,67.942,225.697,67.286,222.29,67.286z M258.332,86.174
		c-6.279,0-11.388-5.109-11.388-11.388V26.388c0-6.279,5.108-11.388,11.387-11.388c6.279,0,11.388,5.109,11.388,11.388v17.777
		c0,0.01,0,30.621,0,30.621C269.72,81.065,264.611,86.174,258.332,86.174z M296.107,86.174c-6.279,0-11.388-5.109-11.388-11.388
		v-30.63c0.005-6.275,5.111-11.379,11.387-11.379c6.279,0,11.388,5.109,11.388,11.388v30.63
		C307.489,81.07,302.383,86.174,296.107,86.174z"/>
</g>
<g>
</g>
<g>
</g>
<g>
</g>
<g>
</g>
<g>
</g>
<g>
</g>
<g>
</g>
<g>
</g>
<g>
</g>
<g>
</g>
<g>
</g>
<g>
</g>
<g>
</g>
<g>
</g>
<g>
</g>
</svg>
